<?xml version="1.0" encoding="UTF-8"?>
<svg width="68" height="128" version="1" xmlns="http://www.w3.org/2000/svg">
 <defs>
  <style id="current-color-scheme" type="text/css">.ColorScheme-Background {color:#2f343f; } .ColorScheme-ButtonBackground { color:#444a58; } .ColorScheme-Highlight { color:#5c87cc; } .ColorScheme-Text { color:#d3dae3; } .ColorScheme-NegativeText { color:#f44336; } .ColorScheme-PositiveText { color:#4caf50; } .ColorScheme-NeutralText { color:#ff9800; }</style>
 </defs>
 <g id="focus" transform="matrix(1.6 0 0 1.6 67.344 99.056)">
  <rect x="-42.09" y="-1.91" width="20" height="20" opacity=".001"/>
  <path class="ColorScheme-Highlight" transform="matrix(.625 0 0 .625 -42.09 -61.91)" d="m16 98c-7.7157 0-14 6.2843-14 14s6.2843 14 14 14c7.7157 0 14-6.2843 14-14s-6.2843-14-14-14z" fill="currentColor"/>
 </g>
 <g id="hover" transform="matrix(1.6 0 0 1.6 67.344 65.056)">
  <rect x="-42.09" y="-1.91" width="20" height="20" opacity=".001"/>
  <path d="m-32.09-0.66c-4.8223 0-8.75 3.9277-8.75 8.75 0 4.8223 3.9277 8.75 8.75 8.75s8.75-3.9277 8.75-8.75c0-4.8223-3.9277-8.75-8.75-8.75zm0 0.67308c4.4608 0 8.0769 3.4655 8.0769 7.7404 0 4.0077-3.1838 7.3019-7.2566 7.6983-0.02086 0.0023-0.04219-0.0022-0.0631 0-0.25125 0.02257-0.4998 0.04206-0.75721 0.04206s-0.50596-0.0195-0.75721-0.04206c-0.02091-0.0022-0.04225 0.0023-0.0631 0-4.0728-0.39638-7.2566-3.6906-7.2566-7.6983 0-4.2749 3.6162-7.7404 8.0769-7.7404z" opacity=".2"/>
  <circle class="ColorScheme-ButtonBackground" transform="matrix(1.0156 0 0 1.0156 .40985 -.035)" cx="-32" cy="8" r="8" fill="currentColor"/>
 </g>
 <g id="22-22-focus" transform="matrix(1.1 0 0 1.1 92.299 104.1)">
  <rect x="-42.09" y="-1.91" width="20" height="20" opacity=".001"/>
  <path class="ColorScheme-Highlight" transform="matrix(.90909 0 0 .90909 -83.908 -94.637)" d="m57 103c-5.5112 0-10 4.4888-10 10s4.4888 10 10 10c5.5112 0 10-4.4888 10-10s-4.4888-10-10-10z" fill="currentColor"/>
 </g>
 <g id="22-22-hover" transform="matrix(1.1 0 0 1.1 92.299 71.101)">
  <rect x="-42.09" y="-1.91" width="20" height="20" opacity=".001"/>
  <path d="m-32.09-1.0009c-5.0102 0-9.0909 4.0807-9.0909 9.0909 0 5.0102 4.0807 9.0909 9.0909 9.0909 5.0102 0 9.0909-4.0807 9.0909-9.0909 0-5.0102-4.0807-9.0909-9.0909-9.0909zm0 1.0101c4.4629 0 8.0808 3.3918 8.0808 7.5758 0 3.9225-3.1853 7.1562-7.2601 7.5442-0.03125 0.0036-0.06332-0.0032-0.0947 0-0.24116 0.0203-0.47922 0.03157-0.72601 0.03157s-0.48485-0.01127-0.72601-0.03157c-0.03138-0.0032-0.06344 0.0036-0.0947 0-4.0748-0.38795-7.2601-3.6217-7.2601-7.5442 0-4.184 3.6179-7.5758 8.0808-7.5758z" opacity=".2"/>
  <circle class="ColorScheme-ButtonBackground" transform="matrix(1.0227 0 0 1.0227 .63712 -.091818)" cx="-32" cy="8" r="8" fill="currentColor"/>
 </g>
 <g id="normal" transform="matrix(1.6 0 0 1.6 67.344 3.056)">
  <rect x="-42.09" y="-1.91" width="20" height="20" opacity=".001"/>
  <path d="m-32.09-0.66c-4.8223 0-8.75 3.9277-8.75 8.75 0 4.8223 3.9277 8.75 8.75 8.75s8.75-3.9277 8.75-8.75c0-4.8223-3.9277-8.75-8.75-8.75zm0 0.67308c4.4608 0 8.0769 3.4655 8.0769 7.7404 0 4.0077-3.1838 7.3019-7.2566 7.6983-0.02086 0.0023-0.04219-0.0022-0.0631 0-0.25125 0.02257-0.4998 0.04206-0.75721 0.04206s-0.50596-0.0195-0.75721-0.04206c-0.02091-0.0022-0.04225 0.0023-0.0631 0-4.0728-0.39638-7.2566-3.6906-7.2566-7.6983 0-4.2749 3.6162-7.7404 8.0769-7.7404z" opacity=".2"/>
  <circle class="ColorScheme-ButtonBackground" transform="matrix(1.0156 0 0 1.0156 .40985 -.035)" cx="-32" cy="8" r="8" fill="currentColor"/>
 </g>
 <g id="pressed" transform="translate(-11)">
  <path class="ColorScheme-Highlight" transform="translate(11)" d="m16 33c-7.7157 0-14 6.2843-14 14 0 7.7157 6.2843 14 14 14 7.7157 0 14-6.2843 14-14 0-7.7157-6.2843-14-14-14z" fill="currentColor"/>
  <path d="m11 31h32v32h-32z" opacity=".001"/>
 </g>
 <g id="22-22-normal" transform="matrix(1.1 0 0 1.1 92.299 13.101)">
  <rect x="-42.09" y="-1.91" width="20" height="20" opacity=".001"/>
  <path d="m-32.09-1.0009c-5.0102 0-9.0909 4.0807-9.0909 9.0909 0 5.0102 4.0807 9.0909 9.0909 9.0909 5.0102 0 9.0909-4.0807 9.0909-9.0909 0-5.0102-4.0807-9.0909-9.0909-9.0909zm0 1.0101c4.4629 0 8.0808 3.3918 8.0808 7.5758 0 3.9225-3.1853 7.1562-7.2601 7.5442-0.03125 0.0036-0.06332-0.0032-0.0947 0-0.24116 0.0203-0.47922 0.03157-0.72601 0.03157s-0.48485-0.01127-0.72601-0.03157c-0.03138-0.0032-0.06344 0.0036-0.0947 0-4.0748-0.38795-7.2601-3.6217-7.2601-7.5442 0-4.184 3.6179-7.5758 8.0808-7.5758z" opacity=".2"/>
  <path class="ColorScheme-ButtonBackground" transform="matrix(1.0227 0 0 1.0227 .63712 -.091818)" d="m-24 8a8 8 0 0 1-8 8 8 8 0 0 1-8-8 8 8 0 0 1 8-8 8 8 0 0 1 8 8z" fill="currentColor"/>
 </g>
 <g id="22-22-pressed" transform="translate(-11)">
  <path class="ColorScheme-Highlight" transform="translate(11)" d="m57 42c-5.5112 0-10 4.4888-10 10 0 5.5112 4.4888 10 10 10 5.5112 0 10-4.4888 10-10 0-5.5112-4.4888-10-10-10z" fill="currentColor"/>
  <rect x="57" y="41" width="22" height="22" opacity=".001"/>
 </g>
</svg>
