<?xml version="1.0" encoding="UTF-8"?>
<svg width="84" height="117" version="1" xmlns="http://www.w3.org/2000/svg" xmlns:xlink="http://www.w3.org/1999/xlink">
 <defs>
  <linearGradient id="linearGradient4465">
   <stop stop-opacity=".5098" offset="0"/>
   <stop stop-opacity="0" offset="1"/>
  </linearGradient>
  <radialGradient id="radialGradient4275-3" cx="984" cy="905.36" r="8.5" gradientTransform="matrix(-1.6187e-5 -1.4118 1.4118 -1.6187e-5 -1261.2 1406.2)" gradientUnits="userSpaceOnUse" xlink:href="#linearGradient4465"/>
  <radialGradient id="radialGradient4255-6" cx="982.91" cy="906.45" r="8.5" gradientTransform="matrix(1.4118 5.5406e-6 -5.5406e-6 1.4118 -1320.6 -1262.7)" gradientUnits="userSpaceOnUse" xlink:href="#linearGradient4465"/>
  <radialGradient id="radialGradient3382-7" cx="984" cy="905.36" r="8.5" gradientTransform="matrix(7.8257e-6 1.4118 -1.4118 7.8257e-6 1345.2 -1322.2)" gradientUnits="userSpaceOnUse" xlink:href="#linearGradient4465"/>
  <linearGradient id="linearGradient4452-5" x1="-260" x2="-260" y1="281" y2="293" gradientUnits="userSpaceOnUse" xlink:href="#linearGradient4465"/>
  <radialGradient id="radialGradient4263-5" cx="984" cy="905.36" r="8.5" gradientTransform="matrix(-1.4118 -9.8997e-6 9.8997e-6 -1.4118 1406.2 1345.2)" gradientUnits="userSpaceOnUse" xlink:href="#linearGradient4465"/>
  <linearGradient id="linearGradient4403" x1="83.6" x2="83.6" y1="-969.36" y2="-957.36" gradientTransform="matrix(.71429 0 0 1 -317.71 1250.4)" gradientUnits="userSpaceOnUse" xlink:href="#linearGradient4465"/>
  <style id="current-color-scheme" type="text/css">.ColorScheme-Background {color:#2f343f; } .ColorScheme-ButtonBackground { color:#444a58; } .ColorScheme-Highlight { color:#5c87cc; } .ColorScheme-Text { color:#d3dae3; } .ColorScheme-NegativeText { color:#f44336; } .ColorScheme-PositiveText { color:#4caf50; } .ColorScheme-NeutralText { color:#ff9800; }</style>
 </defs>
 <rect id="center" class="ColorScheme-Background" x="17" y="50" width="50" height="50" fill="currentColor" opacity=".9"/>
 <g id="bottomleft" transform="translate(0 32.999)">
  <path d="m17 84v-10h-2c-2.77 0-5-2.23-5-5v-2h-10v17z" fill="url(#radialGradient4263-5)"/>
  <path class="ColorScheme-Background" d="m17 74v-7h-7v2c0 2.77 2.23 5 5 5z" fill="currentColor" opacity=".9"/>
  <path d="m10 67v2c0 2.77 2.23 5 5 5h2v-1h-2c-2.2333 0-4-1.7667-4-4v-2z" opacity=".2"/>
 </g>
 <g id="left" transform="translate(0 32.999)">
  <g transform="matrix(-1,0,0,1,298,-240)">
   <rect transform="rotate(-90)" x="-307" y="288" width="50" height="10" fill="url(#linearGradient4403)"/>
  </g>
  <path class="ColorScheme-Background" d="m10 17v50l7 1e-5v-50z" fill="currentColor" opacity=".9"/>
  <path d="m10 17v50h1v-50z" opacity=".2"/>
 </g>
 <g id="right" transform="translate(0 32.999)">
  <g transform="translate(-214,-240)">
   <rect transform="rotate(-90)" x="-307" y="288" width="50" height="10" fill="url(#linearGradient4452-5)"/>
  </g>
  <path class="ColorScheme-Background" d="m74 17v50l-7 1e-5v-50z" fill="currentColor" opacity=".9"/>
  <path d="m73 17v50h1v-50z" opacity=".2"/>
 </g>
 <g id="bottom" transform="translate(0 32.999)">
  <g transform="rotate(90,269,55)">
   <rect transform="rotate(-90)" x="-307" y="288" width="50" height="10" fill="url(#linearGradient4403)"/>
  </g>
  <path class="ColorScheme-Background" d="m17 74h50v-7h-50z" fill="currentColor" opacity=".9"/>
  <path d="m17 73v1h50v-1z" opacity=".2"/>
 </g>
 <g id="bottomright" transform="translate(0 32.999)">
  <path d="m84 67h-10v2c0 2.77-2.23 5-5 5h-2v10h17z" fill="url(#radialGradient3382-7)"/>
  <path class="ColorScheme-Background" d="m67 74v-7h7v2c0 2.77-2.23 5-5 5z" fill="currentColor" opacity=".9"/>
  <path d="m73 67v2c0 2.2333-1.7667 4-4 4h-2v1h2c2.77 0 5-2.23 5-5v-2z" opacity=".2"/>
 </g>
 <g id="top" transform="translate(0 32.999)">
  <g transform="matrix(0,-1,-1,0,324,298)">
   <rect transform="rotate(-90)" x="-307" y="288" width="50" height="10" fill="url(#linearGradient4403)"/>
  </g>
  <path class="ColorScheme-Background" d="m17 9.9999h50v7h-50z" fill="currentColor" opacity=".9"/>
  <path d="m17 10v1h50v-1z" opacity=".2"/>
 </g>
 <g id="topright" transform="translate(0 32.999)">
  <path d="m67 0v10h2c2.77 0 5 2.23 5 5v2h10v-17z" fill="url(#radialGradient4255-6)"/>
  <path class="ColorScheme-Background" d="m67 9.9999v7h7v-2c0-2.77-2.23-5-5-5z" fill="currentColor" opacity=".9"/>
  <path d="m67 10v1h2c2.2333 0 4 1.7667 4 4v2h1v-2c0-2.77-2.23-5-5-5z" opacity=".2"/>
 </g>
 <g id="topleft" transform="translate(0 32.999)">
  <path d="m0 17h10v-2c0-2.77 2.23-5 5-5h2v-10h-17z" fill="url(#radialGradient4275-3)"/>
  <path class="ColorScheme-Background" d="m17 9.9999v7h-7v-2c0-2.77 2.23-5 5-5z" fill="currentColor" opacity=".9"/>
  <path d="m15 10c-2.77 0-5 2.23-5 5v2h1v-2c0-2.2333 1.7667-4 4-4h2v-1z" opacity=".2"/>
 </g>
 <rect id="hint-tile-center" width="5" height="5" fill="#f60"/>
 <rect id="hint-top-margin" x="39" y="33" width="4" height="17" fill="#f0f"/>
 <rect id="hint-bottom-margin" x="39" y="100" width="4" height="17" fill="#f0f"/>
 <rect id="hint-right-margin" transform="rotate(90)" x="72" y="-84" width="4" height="17" fill="#f0f"/>
 <rect id="hint-left-margin" transform="rotate(90)" x="72" y="-17" width="4" height="17" fill="#f0f"/>
</svg>
