<?xml version="1.0" encoding="UTF-8"?>
<svg width="16" height="16" version="1" xmlns="http://www.w3.org/2000/svg">
 <defs>
  <style id="current-color-scheme" type="text/css">.ColorScheme-Background {color:#2f343f; } .ColorScheme-ButtonBackground { color:#444a58; } .ColorScheme-Highlight { color:#5c87cc; } .ColorScheme-Text { color:#d3dae3; } .ColorScheme-NegativeText { color:#f44336; } .ColorScheme-PositiveText { color:#4caf50; } .ColorScheme-NeutralText { color:#ff9800; }</style>
 </defs>
 <g id="checkbox">
  <rect x="16" width="16" height="16" opacity=".001"/>
  <rect class="ColorScheme-Highlight" x="17" y="1" width="14" height="14" rx="2" ry="2" fill="currentColor"/>
  <path class="ColorScheme-Background" d="m27.279 4.4297-4.2422 4.2422-1.6504-1.6484c-0.26129-0.26129-0.68207-0.26129-0.94336 0l-0.4707 0.4707c-0.26129 0.26129-0.26129 0.68207 0 0.94336l1.6504 1.6484 1.4141 1.4141 0.45508-0.45508 0.48828-0.48633c0.005665-0.005665 0.010206-0.011767 0.015625-0.017578l4.6973-4.6973-1.4141-1.4141z" fill="currentColor"/>
 </g>
 <g id="radiobutton">
  <rect width="16" height="16" opacity=".001"/>
  <rect class="ColorScheme-Highlight" x="1" y="1" width="14" height="14" rx="7" ry="7" fill="currentColor"/>
  <rect class="ColorScheme-Background" x="6" y="6" width="4" height="4" rx="1.999" ry="2" fill="currentColor"/>
 </g>
</svg>
