<?xml version="1.0" encoding="UTF-8"?>
<svg width="208" height="208" version="1" xmlns="http://www.w3.org/2000/svg" xmlns:xlink="http://www.w3.org/1999/xlink">
 <defs id="defs5">
  <radialGradient id="radialGradient4671" cx="1255.9" cy="382.73" r="96.606" gradientTransform="matrix(1.0765 0 0 1.0765 -1248 -308.02)" gradientUnits="userSpaceOnUse">
   <stop stop-color="#232629" offset="0"/>
   <stop stop-color="#232629" stop-opacity=".52349" offset=".9"/>
   <stop stop-color="#232629" stop-opacity=".10738" offset=".96"/>
   <stop stop-color="#232629" stop-opacity="0" offset="1"/>
  </radialGradient>
  <style id="current-color-scheme" type="text/css">.ColorScheme-Background {color:#2f343f; } .ColorScheme-ButtonBackground { color:#444a58; } .ColorScheme-Highlight { color:#5c87cc; } .ColorScheme-Text { color:#d3dae3; } .ColorScheme-NegativeText { color:#f44336; } .ColorScheme-PositiveText { color:#4caf50; } .ColorScheme-NeutralText { color:#ff9800; }</style>
 </defs>
 <g id="ClockFace" transform="translate(4,4)">
  <path transform="translate(-4,-4)" d="m104 0a104 104 0 0 0-104 104 104 104 0 0 0 104 104 104 104 0 0 0 104-104 104 104 0 0 0-104-104zm0 7.3945a96.606 96.606 0 0 1 96.605 96.605 96.606 96.606 0 0 1-96.605 96.605 96.606 96.606 0 0 1-96.605-96.605 96.606 96.606 0 0 1 96.605-96.605z" fill="url(#radialGradient4671)"/>
  <circle class="ColorScheme-Background" cx="100" cy="100" r="96.606" fill="currentColor" opacity=".9"/>
  <g fill="#fff">
   <path class="ColorScheme-Text" transform="translate(-4,-4)" d="m107.5 16.475c-1.0655 0-2.1515 0.38704-3.0039 1.1426l-0.6582 0.61914c-0.19374 0.15498-0.21328 0.46642-0.01953 0.66016 0.15498 0.19373 0.46446 0.21132 0.6582 0.017578l0.6582-0.59961c0.67805-0.60056 1.5128-0.89062 2.3652-0.89062 0.94927 0 1.8981 0.38704 2.5762 1.1426 0.60056 0.65869 0.91015 1.4912 0.91015 2.3242 0 0.96865-0.40656 1.8983-1.1621 2.5957l-6.3359 5.7148c-0.19373 0.19373-0.1939 0.48417-0.01953 0.69727 0.0775 0.096859 0.21399 0.13672 0.34961 0.13672h0.07812 7.5547c0.25185 0 0.46484-0.21299 0.46484-0.46484 0-0.27122-0.21299-0.48438-0.46484-0.48437h-6.4121l5.4238-4.9023c0.96865-0.89115 1.4531-2.0918 1.4531-3.293 0-1.0461-0.36782-2.1105-1.1621-2.9629-0.87179-0.98802-2.0722-1.4531-3.2539-1.4531zm-7.793 0.0625c-0.091833-0.007832-0.18571 0.009146-0.26563 0.052735l-2.6152 1.5898c-0.23248 0.11624-0.31139 0.38682-0.17578 0.63867 0.07749 0.13561 0.23384 0.23242 0.4082 0.23242 0.07749 0 0.17431-0.039395 0.23242-0.078125l1.918-1.123v11.721c0 0.25186 0.213 0.46484 0.46484 0.46484 0.27122 0 0.46485-0.21299 0.46485-0.46484v-12.457c0.01936-0.11624-4.7e-4 -0.23337-0.0586-0.34961-0.07264-0.13319-0.21999-0.21351-0.37304-0.22656zm-38.453 10.789c-0.060843 0.005751-0.12055 0.021722-0.17383 0.050781l-2.6152 1.5898c-0.23247 0.11624-0.30944 0.38682-0.17383 0.63867 0.07749 0.13561 0.23189 0.23242 0.40625 0.23242 0.07749 0 0.1743-0.039395 0.23242-0.078125l1.918-1.123v11.721c0 0.25185 0.213 0.46484 0.46484 0.46484 0.27122 0 0.46484-0.21299 0.46484-0.46484v-12.457c0.01936-0.11624 0.001489-0.23142-0.056641-0.34766-0.087177-0.15983-0.28427-0.24382-0.4668-0.22656zm7.7422 0c-0.060843 0.005751-0.12055 0.021722-0.17383 0.050781l-2.6152 1.5898c-0.23248 0.11624-0.31139 0.38682-0.17578 0.63867 0.07749 0.13561 0.23384 0.23242 0.4082 0.23242 0.07749 0 0.17431-0.039395 0.23242-0.078125l1.918-1.123v11.721c0 0.25185 0.213 0.46484 0.46484 0.46484 0.27122 0 0.46484-0.21299 0.46484-0.46484v-12.457c0.01936-0.11624-4.64e-4 -0.23142-0.058594-0.34766-0.087178-0.15983-0.28232-0.24382-0.46484-0.22656zm76.879 0c-0.06085 0.005751-0.12056 0.021722-0.17383 0.050781l-2.6152 1.5898c-0.23247 0.11623-0.30942 0.38682-0.17382 0.63867 0.0774 0.13561 0.23189 0.23242 0.40625 0.23242 0.0774 0 0.17431-0.039415 0.23242-0.078125l1.918-1.123v11.721c0 0.25185 0.213 0.46484 0.46484 0.46484 0.27123 0 0.46484-0.21299 0.46484-0.46484v-12.457c0.0193-0.11623-4.9e-4 -0.23142-0.05859-0.34766-0.08716-0.15983-0.28231-0.24382-0.46484-0.22656zm-108.01 29.523c-1.3755 0-2.5576 0.83208-3.3906 2.0332-0.83304 1.2592-1.2969 2.925-1.2969 4.7461s0.46384 3.4886 1.2969 4.7285c0.83303 1.2205 2.0151 2.0527 3.3906 2.0527s2.5576-0.83224 3.3906-2.0527c0.81366-1.2399 1.3184-2.9075 1.3184-4.7285s-0.5047-3.4868-1.3184-4.7461c-0.83304-1.2011-2.0151-2.0332-3.3906-2.0332zm136.19 0c-1.0655 0-2.1515 0.38704-3.0039 1.1426l-0.6582 0.61914c-0.19374 0.15498-0.21333 0.46642-0.01953 0.66016 0.155 0.19373 0.46448 0.21133 0.6582 0.017578l0.66016-0.59961c0.67805-0.60056 1.5109-0.89062 2.3633-0.89062 0.94926 0 1.8981 0.38704 2.5762 1.1426 0.60057 0.65869 0.91016 1.4912 0.91016 2.3242 0 0.96865-0.40656 1.8983-1.1621 2.5957l-6.334 5.7148c-0.19373 0.19373-0.19397 0.48417-0.01954 0.69727 0.0774 0.096869 0.21205 0.13672 0.34766 0.13672h0.07812 7.5547c0.25184 0 0.46485-0.21299 0.46485-0.46484 0-0.27122-0.21301-0.48437-0.46485-0.48437h-6.4121l5.4238-4.9023c0.96865-0.89115 1.4531-2.0918 1.4531-3.293 0-1.0461-0.36782-2.1105-1.1621-2.9629-0.87177-0.98802-2.0722-1.4531-3.2539-1.4531zm-144.87 0.0625c-0.091832-0.007832-0.18571 0.009146-0.26562 0.052735l-2.6152 1.5898c-0.23247 0.11624-0.30944 0.38682-0.17383 0.63867 0.077501 0.13561 0.2319 0.23242 0.40625 0.23242 0.077491 0 0.1743-0.039395 0.23242-0.078125l1.918-1.123v11.721c0 0.25185 0.213 0.46484 0.46484 0.46484 0.27122 0 0.46484-0.21299 0.46484-0.46484v-12.457c0.01936-0.11624 0.001489-0.23337-0.056641-0.34961-0.072648-0.13319-0.22195-0.21351-0.375-0.22656zm8.6836 0.88672c0.96865 0 1.8789 0.56144 2.5957 1.627 0.69742 1.0461 1.1641 2.537 1.1641 4.2031 0 1.6661-0.46664 3.1589-1.1641 4.2051-0.7168 1.0268-1.6271 1.627-2.5957 1.627s-1.8983-0.60019-2.5957-1.627c-0.69743-1.0461-1.1426-2.539-1.1426-4.2051 0-1.6661 0.44515-3.157 1.1426-4.2031 0.69743-1.0655 1.6271-1.627 2.5957-1.627zm-14.396 39.426c-2.4604 0-4.4746 1.9947-4.4746 4.4551 0 2.4991 2.0142 4.4746 4.4746 4.4746 1.3561 0 2.5574-0.56034 3.3711-1.4902-0.17436 0.96865-0.5038 1.8973-0.96875 2.7109-0.83304 1.4142-2.072 2.3834-3.9512 2.4609-0.27122 0.0194-0.46484 0.23268-0.46484 0.5039 0 0.25185 0.21315 0.44532 0.48437 0.44532h0.019532c2.2279-0.0775 3.8162-1.3374 4.7461-2.9453 0.91053-1.608 1.2969-3.6026 1.2969-5.4043 0-0.40684-0.019632-0.79403-0.039062-1.1621-0.01935-0.03878-0.017679-0.05891-0.037109-0.09766-0.25183-2.2279-2.1323-3.9512-4.457-3.9512zm158.71 0c-0.27121 0-0.48437 0.21315-0.48437 0.48438s0.21316 0.48438 0.48437 0.48438h5.1914l-3.3711 3.4668c-0.19372 0.19373-0.19372 0.50354 0 0.69726h0.01953c0.0969 0.11624 0.23174 0.19336 0.38672 0.19336 0.9299 0 1.8592 0.34961 2.5566 1.0664 0.71679 0.69742 1.0664 1.6267 1.0664 2.5566 0 0.9299-0.34962 1.8594-1.0664 2.5762-0.7168 0.69743-1.6463 1.0469-2.5762 1.0469s-1.8398-0.34945-2.5566-1.0469c-0.19373-0.19373-0.50337-0.19373-0.67773 0-0.19372 0.19373-0.19372 0.50534 0 0.67969 0.89116 0.91053 2.072 1.3555 3.2344 1.3555 1.1818 0 2.3647-0.46431 3.2559-1.3555 0.91053-0.89115 1.3555-2.0741 1.3555-3.2559s-0.44479-2.3628-1.3359-3.2539c-0.65869-0.65868-1.4737-1.0659-2.3262-1.2402l3.5078-3.6035c0.0386-0.03878 0.07621-0.096182 0.09571-0.1543 0.0388-0.05812 0.05859-0.1354 0.05859-0.21289 0-0.27122-0.21315-0.48438-0.48438-0.48438h-6.334zm-158.71 0.94922c1.976 0 3.5449 1.5686 3.5449 3.5059 0 1.976-1.5689 3.5254-3.5449 3.5254-1.9373 0-3.5254-1.5494-3.5254-3.5254 0-1.9373 1.5881-3.5059 3.5254-3.5059zm10.848 39.426c-1.5692 0-2.8086 1.2588-2.8086 2.8086 0 0.94928 0.44499 1.7621 1.123 2.2852-1.5886 0.6587-2.7109 2.2473-2.7109 4.0684 0 2.441 1.9749 4.3984 4.3965 4.3984 2.441 0 4.3984-1.9574 4.3984-4.3984 0-1.8211-1.1245-3.4097-2.7324-4.0684 0.69743-0.52309 1.1621-1.3359 1.1621-2.2852 0-1.5498-1.2783-2.8086-2.8281-2.8086zm143.06 0.0293c-0.11624 0.00966-0.22728 0.06739-0.31446 0.17382l-0.01953 0.01954-7.8476 9.7637c-0.17436 0.19374-0.15449 0.50317 0.05859 0.6582 0.0774 0.0775 0.19415 0.09766 0.29102 0.09766h0.03906 0.01953 7.3418v2.3242c0 0.2518 0.21298 0.46484 0.46484 0.46484 0.27121 0 0.48437-0.21304 0.48437-0.46484v-2.3242h0.91016c0.27121 0 0.48438-0.21298 0.48438-0.46485 0-0.25181-0.21317-0.46484-0.48438-0.46484h-0.91016v-9.2988-0.05859c0-0.0191-0.01953-0.03747-0.01953-0.07617-0.0388-0.0775-0.07669-0.1743-0.15429-0.23243-0.10655-0.08719-0.22752-0.12685-0.34375-0.11718zm-143.06 0.90039c1.0461 0 1.8984 0.83279 1.8984 1.8789 0 1.0462-0.8523 1.8986-1.8984 1.918-1.0461-0.0191-1.8789-0.87179-1.8789-1.918 0-1.0461 0.83277-1.8789 1.8789-1.8789zm142.63 0.93945v7.9434h-6.4121l6.4121-7.9434zm-142.63 3.8262c1.9373 0 3.4688 1.5682 3.4688 3.4668 0 1.9179-1.5315 3.4688-3.4688 3.4688-1.9179 0-3.4668-1.5508-3.4668-3.4688 0-1.8986 1.5489-3.4668 3.4668-3.4668zm107.5 23.861c-0.11622 0-0.2311 0.03781-0.3086 0.11523-0.11621 0.0774-0.19335 0.19465-0.19335 0.34961l-0.66016 5.4629c0 0.0388-0.01953 0.07621-0.01953 0.09571 0 0.058 1.3e-4 0.1175 0.01953 0.15625 0 0.0192 1.3e-4 0.03939 0.01953 0.05859v0.01758c0.0194 0.058 0.05906 0.11742 0.11719 0.15625 0.17436 0.19367 0.48399 0.19367 0.67773 0 0.7168-0.71683 1.6269-1.0664 2.5762-1.0664 0.9299 0 1.8592 0.34948 2.5566 1.0469 0.69744 0.69748 1.0469 1.6269 1.0469 2.5762 0 0.92992-0.34763 1.8398-1.0644 2.5566-0.71679 0.71683-1.6287 1.0664-2.5586 1.0664-0.9299 0-1.8398-0.3494-2.5566-1.0469-0.19374-0.19374-0.50353-0.19374-0.69726 0-0.19374 0.17439-0.19374 0.484 0 0.67774 0.89114 0.89116 2.0721 1.3379 3.2539 1.3379 1.1624 0 2.3647-0.46421 3.2559-1.3359 0.91053-0.8912 1.3359-2.0935 1.3359-3.2559 0-1.2011-0.42541-2.3628-1.3359-3.2539-0.89116-0.91056-2.0546-1.3379-3.2363-1.3379-0.81365 0-1.6073 0.21428-2.3047 0.6211l0.48437-4.0293h5.9082c0.27122 0 0.48438-0.19374 0.48438-0.48438 0-0.27123-0.21316-0.48437-0.48438-0.48437h-6.3164zm-74.346 0.0332c-0.024216 0.00215-0.050004 0.00682-0.074219 0.01172h-7.168c-0.25185 0-0.46484 0.21298-0.46484 0.46485 0 0.25186 0.213 0.46484 0.46484 0.46484h6.5488l-5.0176 11.895c-0.07749 0.23252 0.038974 0.52425 0.27148 0.62109 0.07749 0.0388 0.11587 0.03711 0.19336 0.03711 0.17436 0 0.34829-0.11464 0.42578-0.28906l5.25-12.477c0.05812-0.0774 0.078125-0.15511 0.078125-0.25195 0-0.058-0.019632-0.09813-0.039062-0.15625-0.03878-0.11622-0.13572-0.23094-0.25195-0.28907-0.072652-0.0291-0.14415-0.0377-0.2168-0.03125zm38.336 10.795c-2.2473 0.0774-3.8162 1.2986-4.7461 2.9453-0.9299 1.608-1.299 3.5831-1.3184 5.3848 0 0.30993 3.53e-4 0.60006 0.039062 0.89063 0.07749 2.4022 2.053 4.3203 4.4746 4.3203 2.4991 0 4.4941-1.9949 4.4941-4.4746 0-2.4604-1.995-4.4746-4.4941-4.4746-1.3367 0-2.5379 0.59944-3.3516 1.5293 0.19373-0.96863 0.5038-1.9166 0.96875-2.7109 0.85241-1.4142 2.0546-2.3835 3.9531-2.4609 0.25185-0.0192 0.46485-0.23269 0.46485-0.5039-0.0194-0.25188-0.23253-0.46467-0.48438-0.44531zm-1.5508 5.541c1.976 0 3.5645 1.5881 3.5644 3.5254 0 1.9373-1.5884 3.5254-3.5644 3.5254-1.7823 0-3.2734-1.3364-3.5059-3.0606 0.01935-0.0388 0.01953-0.07682 0.01953-0.13476-0.01935-0.0776-0.03906-0.15512-0.03906-0.25195v-0.07813c0-1.9373 1.5881-3.5254 3.5254-3.5254z" fill="currentColor"/>
  </g>
 </g>
 <path id="HourHand" class="ColorScheme-Text" d="m103.57 98.016a6 6 0 0 0-3.166 1.1836 6 6 0 0 0-1.2012 8.4004 6 6 0 0 0 1.834 1.6094l-0.0332 41.551v0.03125l3.043 5.209 2.957-5.3223h-0.0625l0.0332-41.473a6 6 0 0 0 0.62891-0.4043 6 6 0 0 0 1.2012-8.4004 6 6 0 0 0-5.2344-2.3848z" fill="currentColor"/>
 <path id="MinuteHand" class="ColorScheme-Text" d="m104 101a3 3 0 0 0-3 3 3 3 0 0 0 1.5254 2.6035l-0.02539 59.896 1.4707 2.5 1.5039-2.5 0.02539-59.91a3 3 0 0 0 1.5-2.5898 3 3 0 0 0-3-3z" fill="currentColor" opacity=".6"/>
 <path id="SecondHand" class="ColorScheme-Highlight" d="m104.05 102c-0.70915-0.0183-1.4055 0.33052-1.7856 0.96681-0.55287 0.92548-0.22566 2.1094 0.7304 2.6446 0.0352 0.0198 0.071 0.0373 0.10693 0.0547l-0.0545 79.332 1.7897 2e-3 0.0544-79.334c0.33793-0.16354 0.63203-0.42146 0.83531-0.76173 0.55289-0.9255 0.22566-2.1094-0.73039-2.6446-0.29877-0.16725-0.62394-0.25144-0.94628-0.25977z" fill="currentColor"/>
 <circle id="hint-hourhand-rotation-center-offset" cx="104" cy="104" r="1" fill="#f00"/>
 <circle id="hint-minutehand-rotation-center-offset" cx="104" cy="104" r="1" fill="#f00"/>
 <circle id="hint-secondhand-rotation-center-offset" cx="104" cy="104" r="1" fill="#f00"/>
</svg>
