<?xml version="1.0" encoding="UTF-8"?>
<svg width="48" height="36" version="1" xmlns="http://www.w3.org/2000/svg" xmlns:xlink="http://www.w3.org/1999/xlink">
 <defs id="rounded">
  <style id="current-color-scheme" type="text/css">.ColorScheme-Background {color:#2f343f; } .ColorScheme-ButtonBackground { color:#444a58; } .ColorScheme-Highlight { color:#5c87cc; } .ColorScheme-Text { color:#d3dae3; } .ColorScheme-NegativeText { color:#f44336; } .ColorScheme-PositiveText { color:#4caf50; } .ColorScheme-NeutralText { color:#ff9800; }</style>
  <g class="ColorScheme-Highlight">
   <linearGradient id="linearGradient3771">
    <stop stop-color="currentColor" stop-opacity=".6" offset="0"/>
    <stop stop-color="currentColor" stop-opacity="0" offset="1"/>
   </linearGradient>
  </g>
  <radialGradient id="radialGradient3777" cx="37.919" cy="13.191" r="6" gradientTransform="matrix(2 0 0 2 -51.837 -14.381)" gradientUnits="userSpaceOnUse" xlink:href="#linearGradient3771"/>
  <radialGradient id="radialGradient3785" cx="37.919" cy="13.191" r="6" gradientTransform="matrix(2 0 0 2 -87.837 -14.381)" gradientUnits="userSpaceOnUse" xlink:href="#linearGradient3771"/>
  <linearGradient id="linearGradient3795" x1="62" x2="62" y1="20" y2="8" gradientTransform="translate(-42,-8)" gradientUnits="userSpaceOnUse" xlink:href="#linearGradient3771"/>
  <linearGradient id="linearGradient3799" x1="62" x2="62" y1="20" y2="8" gradientTransform="translate(-42,-44)" gradientUnits="userSpaceOnUse" xlink:href="#linearGradient3771"/>
  <radialGradient id="radialGradient3803" cx="37.919" cy="13.191" r="6" gradientTransform="matrix(2 0 0 2 -51.837 -50.381)" gradientUnits="userSpaceOnUse" xlink:href="#linearGradient3771"/>
  <linearGradient id="linearGradient3807" x1="62" x2="62" y1="20" y2="8" gradientTransform="translate(-78,-44)" gradientUnits="userSpaceOnUse" xlink:href="#linearGradient3771"/>
  <radialGradient id="radialGradient3815" cx="37.919" cy="13.191" r="6" gradientTransform="matrix(2 0 0 2 -51.837 -14.381)" gradientUnits="userSpaceOnUse" xlink:href="#linearGradient3771"/>
 </defs>
 <rect id="hint-glow-radius" x="43" y="21.33" width="5" height="5" fill="#f00"/>
 <rect id="hint-stretch-borders" x="43" y="29" width="5" height="5" fill="#f00"/>
 <rect id="center" x="12" y="12" width="12" height="12" opacity=".001"/>
 <rect id="topright" x="24" width="12" height="12" fill="url(#radialGradient3777)"/>
 <rect id="topleft" transform="rotate(-90)" x="-12" width="12" height="12" fill="url(#radialGradient3785)"/>
 <rect id="top" x="12" width="12" height="12" fill="url(#linearGradient3795)"/>
 <rect id="right" transform="rotate(90)" x="12" y="-36" width="12" height="12" fill="url(#linearGradient3799)"/>
 <rect id="bottomright" transform="scale(1,-1)" x="24" y="-36" width="12" height="12" fill="url(#radialGradient3803)"/>
 <rect id="bottom" transform="scale(-1)" x="-24" y="-36" width="12" height="12" fill="url(#linearGradient3807)"/>
 <rect id="left" transform="matrix(0,1,1,0,0,0)" x="12" width="12" height="12" fill="url(#linearGradient3795)"/>
 <rect id="bottomleft" transform="matrix(0,1,1,0,0,0)" x="24" width="12" height="12" fill="url(#radialGradient3815)"/>
</svg>
