<?xml version="1.0" encoding="UTF-8"?>
<svg width="109" height="143" version="1" xmlns="http://www.w3.org/2000/svg">
 <defs>
  <style id="current-color-scheme" type="text/css">.ColorScheme-Background {color:#2f343f; } .ColorScheme-ButtonBackground { color:#444a58; } .ColorScheme-Highlight { color:#5c87cc; } .ColorScheme-Text { color:#d3dae3; } .ColorScheme-NegativeText { color:#f44336; } .ColorScheme-PositiveText { color:#4caf50; } .ColorScheme-NeutralText { color:#ff9800; }</style>
 </defs>
 <g id="base-topleft" transform="translate(721.81 -777.58)">
  <path d="m-719.81 777.58c-1.1046 0-2 0.89543-2 2h1c0-0.55228 0.44772-1 1-1z" opacity=".2"/>
  <path class="ColorScheme-Highlight" transform="matrix(-.5 0 0 -.5 -639.81 700.08)" d="m162-159a2 2 0 0 1-2 2v-2z" fill="currentColor" opacity=".1"/>
 </g>
 <g id="base-bottomleft" transform="translate(721.81 -773.58)">
  <path d="m-719.81 812.58c-1.1046 0-2-0.89543-2-2h1c0 0.55228 0.44772 1 1 1z" opacity=".2"/>
  <path class="ColorScheme-Highlight" transform="matrix(-.5 0 0 .5 -639.81 890.08)" d="m162-159a2 2 0 0 1-2 2v-2z" fill="currentColor" opacity=".1"/>
 </g>
 <g id="base-left" transform="matrix(1 0 0 1.6667 721.81 -1314)">
  <rect x="-721.81" y="789.58" width="1" height="21" opacity=".2"/>
  <rect class="ColorScheme-Highlight" x="-720.81" y="789.58" width="1" height="21" fill="currentColor" opacity=".1"/>
 </g>
 <g id="base-top" transform="matrix(1.9091 0 0 1 1376.2 -777.58)">
  <rect x="-719.81" y="777.58" width="55" height="1" opacity=".2"/>
  <rect class="ColorScheme-Highlight" x="-719.81" y="778.58" width="55" height="1" fill="currentColor" opacity=".1"/>
 </g>
 <g id="base-bottom" transform="matrix(1.9091 0 0 1 1376.2 -773.58)">
  <rect x="-719.81" y="811.58" width="55" height="1" opacity=".2"/>
  <rect class="ColorScheme-Highlight" x="-719.81" y="810.58" width="55" height="1" fill="currentColor" opacity=".1"/>
 </g>
 <g id="base-topright" transform="translate(771.81 -777.58)">
  <path class="ColorScheme-Highlight" transform="matrix(.5 0 0 -.5 -744.81 700.08)" d="m162-159a2 2 0 0 1-2 2v-2z" fill="currentColor" opacity=".1"/>
  <path d="m-664.81 777.58c1.1046 0 2 0.89543 2 2h-1c0-0.55228-0.44772-1-1-1z" opacity=".2"/>
 </g>
 <g id="base-bottomright" transform="translate(771.81 -773.58)">
  <path d="m-664.81 812.58c1.1046 0 2-0.89543 2-2h-1c0 0.55228-0.44772 1-1 1z" opacity=".2"/>
  <path class="ColorScheme-Highlight" transform="matrix(.5 0 0 .5 -744.81 890.08)" d="m162-159a2 2 0 0 1-2 2v-2z" fill="currentColor" opacity=".1"/>
 </g>
 <g id="base-right" transform="matrix(1 0 0 1.6667 771.81 -1314)">
  <rect transform="scale(-1,1)" x="662.81" y="789.58" width="1" height="21" opacity=".2"/>
  <rect class="ColorScheme-Highlight" x="-664.81" y="789.58" width="1" height="21" fill="currentColor" opacity=".1"/>
 </g>
 <g id="base-center" transform="translate(-108 50)">
  <rect class="ColorScheme-Highlight" x="110" y="-48" width="105" height="35" fill="currentColor" opacity=".1"/>
 </g>
 <g id="hover-topleft" transform="translate(721.81 -721.58)">
  <path d="m-719.81 777.58c-1.1046 0-2 0.89543-2 2h1c0-0.55228 0.44772-1 1-1z" opacity=".001"/>
  <path transform="matrix(-.5 0 0 -.5 -639.81 700.08)" d="m162-159a2 2 0 0 1-2 2v-2z" opacity=".001"/>
 </g>
 <g id="hover-bottomleft" transform="translate(721.81 -717.58)">
  <path d="m-719.81 812.58c-1.1046 0-2-0.89543-2-2h1c0 0.55228 0.44772 1 1 1z" opacity=".001"/>
  <path transform="matrix(-.5 0 0 .5 -639.81 890.08)" d="m162-159a2 2 0 0 1-2 2v-2z" opacity=".001"/>
 </g>
 <g id="hover-left" transform="matrix(1 0 0 1.6667 721.81 -1258)">
  <rect x="-721.81" y="789.58" width="1" height="21" opacity=".001"/>
  <rect x="-720.81" y="789.58" width="1" height="21" opacity=".001"/>
 </g>
 <g id="hover-top" transform="matrix(1.9091 0 0 1 1376.2 -721.58)">
  <rect x="-719.81" y="777.58" width="55" height="1" opacity=".001"/>
  <rect x="-719.81" y="778.58" width="55" height="1" opacity=".001"/>
 </g>
 <g id="hover-bottom" transform="matrix(1.9091 0 0 1 1376.2 -717.58)">
  <rect x="-719.81" y="811.58" width="55" height="1" opacity=".001"/>
  <rect x="-719.81" y="810.58" width="55" height="1" opacity=".001"/>
 </g>
 <g id="hover-topright" transform="translate(771.81 -721.58)">
  <path d="m-664.81 777.58c1.1046 0 2 0.89543 2 2h-1c0-0.55228-0.44772-1-1-1z" opacity=".001"/>
  <path transform="matrix(.5 0 0 -.5 -744.81 700.08)" d="m162-159a2 2 0 0 1-2 2v-2z" opacity=".001"/>
 </g>
 <g id="hover-bottomright" transform="translate(771.81 -717.58)">
  <path d="m-664.81 812.58c1.1046 0 2-0.89543 2-2h-1c0 0.55228-0.44772 1-1 1z" opacity=".001"/>
  <path transform="matrix(.5 0 0 .5 -744.81 890.08)" d="m162-159a2 2 0 0 1-2 2v-2z" opacity=".001"/>
 </g>
 <g id="hover-right" transform="matrix(1 0 0 1.6667 771.81 -1258)">
  <rect transform="scale(-1,1)" x="662.81" y="789.58" width="1" height="21" opacity=".001"/>
  <rect x="-664.81" y="789.58" width="1" height="21" opacity=".001"/>
 </g>
 <rect id="hover-center" x="2" y="58" width="105" height="35" opacity=".001"/>
 <g id="focus-topleft" transform="translate(721.81 -673.58)">
  <path class="ColorScheme-Highlight" d="m-719.81 777.58c-1.1046 0-2 0.89543-2 2h1c0-0.55228 0.44772-1 1-1z" fill="currentColor"/>
  <path transform="matrix(-.5 0 0 -.5 -639.81 700.08)" d="m162-159a2 2 0 0 1-2 2v-2z" opacity=".001"/>
 </g>
 <g id="focus-bottomleft" transform="translate(721.81 -669.58)">
  <path class="ColorScheme-Highlight" d="m-719.81 812.58c-1.1046 0-2-0.89543-2-2h1c0 0.55228 0.44772 1 1 1z" fill="currentColor"/>
  <path transform="matrix(-.5 0 0 .5 -639.81 890.08)" d="m162-159a2 2 0 0 1-2 2v-2z" opacity=".001"/>
 </g>
 <g id="focus-left" transform="matrix(1 0 0 1.6667 721.81 -1210)">
  <rect class="ColorScheme-Highlight" x="-721.81" y="789.58" width="1" height="21" fill="currentColor"/>
  <rect x="-720.81" y="789.58" width="1" height="21" opacity=".001"/>
 </g>
 <g id="focus-top" transform="matrix(1.9091 0 0 1 1376.2 -673.58)">
  <rect class="ColorScheme-Highlight" x="-719.81" y="777.58" width="55" height="1" fill="currentColor"/>
  <rect x="-719.81" y="778.58" width="55" height="1" opacity=".001"/>
 </g>
 <g id="focus-bottom" transform="matrix(1.9091 0 0 1 1376.2 -669.58)">
  <rect class="ColorScheme-Highlight" x="-719.81" y="811.58" width="55" height="1" fill="currentColor"/>
  <rect x="-719.81" y="810.58" width="55" height="1" opacity=".001"/>
 </g>
 <g id="focus-topright" transform="translate(771.81 -673.58)">
  <path class="ColorScheme-Highlight" d="m-664.81 777.58c1.1046 0 2 0.89543 2 2h-1c0-0.55228-0.44772-1-1-1z" fill="currentColor"/>
  <path transform="matrix(.5 0 0 -.5 -744.81 700.08)" d="m162-159a2 2 0 0 1-2 2v-2z" opacity=".001"/>
 </g>
 <g id="focus-bottomright" transform="translate(771.81 -669.58)">
  <path class="ColorScheme-Highlight" d="m-664.81 812.58c1.1046 0 2-0.89543 2-2h-1c0 0.55228-0.44772 1-1 1z" fill="currentColor"/>
  <path transform="matrix(.5 0 0 .5 -744.81 890.08)" d="m162-159a2 2 0 0 1-2 2v-2z" opacity=".001"/>
 </g>
 <g id="focus-right" transform="matrix(1 0 0 1.6667 771.81 -1210)">
  <rect class="ColorScheme-Highlight" transform="scale(-1,1)" x="662.81" y="789.58" width="1" height="21" fill="currentColor"/>
  <rect x="-664.81" y="789.58" width="1" height="21" opacity=".001"/>
 </g>
 <rect id="focus-center" x="2" y="106" width="105" height="35" opacity=".001"/>
 <rect id="hover-hint-bottom-margin" x="53.5" y="94" width="2" height=".2" fill="#4e9a06"/>
 <rect id="hover-hint-top-margin" x="53.5" y="56.8" width="2" height=".2" fill="#4e9a06"/>
 <rect id="hover-hint-left-margin" transform="rotate(-90)" x="-76" y=".8" width="2" height=".2" fill="#4e9a06"/>
 <rect id="hover-hint-right-margin" transform="rotate(-90)" x="-76" y="108" width="2" height=".2" fill="#4e9a06"/>
 <rect id="focus-hint-bottom-margin" x="53.5" y="142.9" width="2" height=".1" fill="#4e9a06"/>
 <rect id="focus-hint-top-margin" x="53.5" y="103.9" width="2" height=".1" fill="#4e9a06"/>
 <rect id="focus-hint-left-margin" transform="rotate(-90)" x="-124" width="2" height=".1" fill="#4e9a06"/>
 <rect id="focus-hint-right-margin" transform="rotate(-90)" x="-124" y="108.9" width="2" height=".1" fill="#4e9a06"/>
 <rect id="base-hint-top-margin" x="53.5" width="2" height="6" fill="#4e9a06"/>
 <rect id="base-hint-right-margin" transform="rotate(-90)" x="-20" y="103" width="2" height="6" fill="#4e9a06"/>
 <rect id="base-hint-left-margin" transform="rotate(-90)" x="-20" width="2" height="6" fill="#4e9a06"/>
 <rect id="base-hint-bottom-margin" x="53.5" y="33" width="2" height="6" fill="#4e9a06"/>
</svg>
