<?xml version="1.0" encoding="UTF-8"?>
<svg width="128" height="115" version="1" xmlns="http://www.w3.org/2000/svg">
 <defs>
  <style id="current-color-scheme" type="text/css">.ColorScheme-Background {color:#2f343f; } .ColorScheme-ButtonBackground { color:#444a58; } .ColorScheme-Highlight { color:#5c87cc; } .ColorScheme-Text { color:#d3dae3; } .ColorScheme-NegativeText { color:#f44336; } .ColorScheme-PositiveText { color:#4caf50; } .ColorScheme-NeutralText { color:#ff9800; }</style>
 </defs>
 <rect id="hint-tile-center" y="2" width="2.033" height="2.077" rx="0" ry="2.077" fill="#f00"/>
 <rect id="pressed-hint-top-margin" x="34" y="18" width="2" height="4" fill="#f00"/>
 <rect id="pressed-hint-bottom-margin" x="35" y="33" width="2" height="4" fill="#f00"/>
 <rect id="pressed-hint-left-margin" x="26" y="28" width="4" height="2" fill="#f00"/>
 <rect id="pressed-hint-right-margin" x="41" y="27" width="4" height="2" fill="#f00"/>
 <rect id="normal-hint-left-margin" x="30" y="70" width="4" height="2" fill="#f00"/>
 <rect id="normal-hint-top-margin" x="39" y="61" width="2" height="4" fill="#f00"/>
 <rect id="normal-hint-bottom-margin" x="39" y="76" width="2" height="4" fill="#f00"/>
 <rect id="normal-hint-right-margin" x="45" y="70" width="4" height="2" fill="#f00"/>
 <path id="normal-center" d="m34 65v11h11v-11h-11z" opacity=".001"/>
 <path id="normal-right" d="m45 65v11h2c6.68e-4 -0.0184 0-0.0344 0-0.0529v-10.894c0-0.0185 6.68e-4 -0.0345 0-0.0529h-2z" opacity=".001"/>
 <path id="normal-top" d="m34 63v2h11v-2c-0.0041-6.7e-4 0.0042 0 1e-6 0h-10.988c-4e-3 0-8e-3 -6.7e-4 -0.0119 0z" opacity=".001"/>
 <path id="normal-left" d="m32 65c-6.7e-4 0.0183 0 0.0344 0 0.0529v10.894c0 0.0185-6.7e-4 0.0345 0 0.0529h2v-11h-2z" opacity=".001"/>
 <path id="normal-bottom" d="m34 76v2h11v-1.9997z" opacity=".001"/>
 <path id="normal-topleft" d="m32 63v2h1.9998v-2c-7.46e-4 -6.7e-4 7.63e-4 0 0 0h-1.9976c-7.28e-4 0-0.0015-6.7e-4 -0.0022 0z" opacity=".001"/>
 <path id="normal-topright" d="m45 63.001v1.9997h1.9998v-1.9997c-7.46e-4 -6.7e-4 7.63e-4 0 0 0h-1.9976c-7.28e-4 0-0.0015-6.7e-4 -0.0022 0z" opacity=".001"/>
 <path id="normal-bottomright" d="m45 76v1.9997h1.9998v-1.9997c-7.46e-4 -6.7e-4 7.63e-4 0 0 0h-1.9976c-7.28e-4 0-0.0015-6.7e-4 -0.0022 0z" opacity=".001"/>
 <path id="normal-bottomleft" d="m32 76v1.9997h1.9998v-1.9997c-7.46e-4 -6.7e-4 7.63e-4 0 0 0h-1.9976c-7.28e-4 0-0.0015-6.7e-4 -0.0022 0z" opacity=".001"/>
 <path id="pressed-center" d="m30 22v11h11v-11h-11z" opacity=".001"/>
 <path id="pressed-right" d="m41 22v11h2c6.68e-4 -0.0183 0-0.0344 0-0.0529v-10.894c0-0.0185 6.68e-4 -0.0345 0-0.0529h-2z" opacity=".001"/>
 <path id="pressed-top" d="m30 20v2h11v-2c-0.0041-6.7e-4 0.0045 0 3.01e-4 0h-10.988c-4e-3 0-8e-3 -6.7e-4 -0.0119 0z" opacity=".001"/>
 <path id="pressed-left" d="m28 22c-6.7e-4 0.0183 0 0.0344 0 0.0529v10.894c0 0.0185-6.7e-4 0.0345 0 0.0529h2v-11h-2z" opacity=".001"/>
 <path id="pressed-bottom" d="m30 33v2h11v-2h-11z" opacity=".001"/>
 <path id="pressed-topleft" d="m28 20v2h1.9997v-2c-7.45e-4 -6.7e-4 8.18e-4 0 5.5e-5 0h-1.9976c-7.27e-4 0-0.0015-6.7e-4 -0.0022 0z" opacity=".001"/>
 <path id="pressed-topright" d="m41 20v2h1.9997v-2c-7.45e-4 -6.7e-4 8.18e-4 0 5.5e-5 0h-1.9976c-7.27e-4 0-0.0015-6.7e-4 -0.0022 0z" opacity=".001"/>
 <path id="pressed-bottomright" d="m41 33v2h1.9997v-2c-7.45e-4 -6.7e-4 8.18e-4 0 5.5e-5 0h-1.9976c-7.27e-4 0-0.0015-6.7e-4 -0.0022 0z" opacity=".001"/>
 <path id="pressed-bottomleft" d="m28 33v2h1.9997v-2c-7.45e-4 -6.7e-4 8.18e-4 0 5.5e-5 0h-1.9976c-7.27e-4 0-0.0015-6.7e-4 -0.0022 0z" opacity=".001"/>
 <path id="hover-center" d="m70 19.384v11h11v-11h-11z" opacity=".001"/>
 <path id="hover-right" d="m81 19.384v11h2c6.68e-4 -0.0183 0-0.0344 0-0.0529v-10.894c0-0.0185 6.68e-4 -0.0345 0-0.0529h-2z" opacity=".001"/>
 <path id="hover-top" d="m70 17.384v2h11v-2c-0.0041-6.7e-4 0.0045 0 3.01e-4 0h-10.988c-4e-3 0-8e-3 -6.7e-4 -0.0119 0z" opacity=".001"/>
 <path id="hover-left" d="m68 19.384c-6.7e-4 0.0183 0 0.0344 0 0.0529v10.894c0 0.0185-6.7e-4 0.0345 0 0.0529h2v-11h-2z" opacity=".001"/>
 <path id="hover-bottom" d="m70 30.384v2h11v-2h-11z" opacity=".001"/>
 <path id="hover-topleft" d="m68 17.384v2h1.9997v-2c-7.45e-4 -6.7e-4 8.18e-4 0 5.5e-5 0h-1.9976c-7.27e-4 0-0.0015-6.7e-4 -0.0022 0z" opacity=".001"/>
 <path id="hover-topright" d="m81 17.384v2h1.9997v-2c-7.45e-4 -6.7e-4 8.18e-4 0 5.5e-5 0h-1.9976c-7.27e-4 0-0.0015-6.7e-4 -0.0022 0z" opacity=".001"/>
 <path id="hover-bottomright" d="m81 30.384v2h1.9997v-2c-7.45e-4 -6.7e-4 8.18e-4 0 5.5e-5 0h-1.9976c-7.27e-4 0-0.0015-6.7e-4 -0.0022 0z" opacity=".001"/>
 <path id="hover-bottomleft" d="m68 30.384v2h1.9997v-2c-7.45e-4 -6.7e-4 8.18e-4 0 5.5e-5 0h-1.9976c-7.27e-4 0-0.0015-6.7e-4 -0.0022 0z" opacity=".001"/>
 <rect id="section-center" class="ColorScheme-ButtonBackground" x="67" y="52" width="50" height="50" fill="currentColor" opacity=".5"/>
 <g id="section-topleft" transform="translate(-123 -207)">
  <path class="ColorScheme-ButtonBackground" transform="translate(123 207)" d="m66 46c-3 0-5 2-5 5v1h6v-6z" fill="currentColor" opacity=".5"/>
  <path d="m188 252c-2.77 0-5 2.23-5 5v2h1v-1c0-3 2-5 5-5h1v-1z" opacity=".2"/>
 </g>
 <g id="section-left" transform="translate(-123 -207)">
  <path class="ColorScheme-ButtonBackground" transform="translate(123 207)" d="m61 52v50h6v-50h-6z" fill="currentColor" opacity=".5"/>
  <path d="m183 259v50h1v-50h-1z" opacity=".2"/>
 </g>
 <g id="section-right" transform="translate(-123 -207)">
  <path class="ColorScheme-ButtonBackground" transform="translate(123 207)" d="m117 52v50h6v-50h-6z" fill="currentColor" opacity=".5"/>
  <path d="m246 309h1v-50h-1v50z" opacity=".2"/>
 </g>
 <g id="section-bottomleft" transform="translate(-123 -207)">
  <path class="ColorScheme-ButtonBackground" transform="translate(123 207)" d="m61 102v1c0 3 2 5 5 5h1v-6z" fill="currentColor" opacity=".5"/>
  <path d="m183 311c0 2.77 2.23 5 5 5h2v-1h-1c-3 0-5-2-5-5v-1h-1z" opacity=".2"/>
 </g>
 <g id="section-bottom" transform="translate(-123 -207)">
  <path class="ColorScheme-ButtonBackground" transform="translate(123 207)" d="m67 102v6h50v-6h-50z" fill="currentColor" opacity=".5"/>
  <path d="m190 316h50v-1h-50v1z" opacity=".2"/>
 </g>
 <g id="section-bottomright" transform="translate(-123 -207)">
  <path class="ColorScheme-ButtonBackground" transform="translate(123 207)" d="m117 102v6h1c3 0 5-2 5-5v-1z" fill="currentColor" opacity=".5"/>
  <path d="m247 311c0 2.77-2.23 5-5 5h-2v-1h1c3 0 5-2 5-5v-1h1z" opacity=".2"/>
 </g>
 <g id="section-topright" transform="translate(-123 -207)">
  <path class="ColorScheme-ButtonBackground" transform="translate(123 207)" d="m117 46v6h6v-1c0-3-2-5-5-5z" fill="currentColor" opacity=".5"/>
  <path d="m242 252c2.77 0 5 2.23 5 5v2h-1v-1c0-3-2-5-5-5h-1v-1z" opacity=".2"/>
 </g>
 <g id="section-top" transform="translate(-123 -207)">
  <path class="ColorScheme-ButtonBackground" transform="translate(123 207)" d="m67 46v6h50v-6h-50z" fill="currentColor" opacity=".5"/>
  <path d="m190 252v1h50v-1h-50z" opacity=".2"/>
 </g>
 <rect id="section-hint-bottom-margin" x="91" y="102" width="2" height="7" fill="#f00"/>
 <rect id="section-hint-left-margin" x="60" y="78" width="7" height="2" fill="#f00"/>
 <rect id="section-hint-top-margin" x="91" y="45" width="2" height="7" fill="#f00"/>
 <rect id="section-hint-right-margin" x="117" y="79" width="7" height="2" fill="#f00"/>
</svg>
