<?xml version="1.0" encoding="UTF-8"?>
<svg width="560" height="560" version="1" xmlns="http://www.w3.org/2000/svg">
 <g id="black-notes">
  <rect width="560" height="560" opacity=".001"/>
  <g opacity=".8">
   <path d="m39.076 19c-11.123 0-20.076 8.9536-20.076 20.076v481.85c0 11.123 8.9536 20.076 20.076 20.076h481.85c11.123 0 20.076-8.9536 20.076-20.076v-481.85c0-11.123-8.9536-20.076-20.076-20.076h-481.85zm0.92383 1h480c11.08 0 20 8.92 20 20v480c0 11.08-8.92 20-20 20h-480c-11.08 0-20-8.92-20-20v-480c0-11.08 8.92-20 20-20z" opacity=".1"/>
   <path d="m38.154 18c-11.165 0-20.154 8.9891-20.154 20.154v483.69c0 11.165 8.9891 20.154 20.154 20.154h483.69c11.165 0 20.154-8.9891 20.154-20.154v-483.69c0-11.165-8.9891-20.154-20.154-20.154h-483.69zm1.8457 2h480c11.08 0 20 8.92 20 20v480c0 11.08-8.92 20-20 20h-480c-11.08 0-20-8.92-20-20v-480c0-11.08 8.92-20 20-20z" opacity=".1"/>
   <path d="m37.23 17c-11.208 0-20.23 9.0226-20.23 20.23v485.54c0 11.208 9.0226 20.23 20.23 20.23h485.54c11.208 0 20.23-9.0226 20.23-20.23v-485.54c0-11.208-9.0226-20.23-20.23-20.23h-485.54zm2.7695 3h480c11.08 0 20 8.92 20 20v480c0 11.08-8.92 20-20 20h-480c-11.08 0-20-8.92-20-20v-480c0-11.08 8.92-20 20-20z" opacity=".1"/>
   <path d="m36.309 16c-11.25 0-20.309 9.0581-20.309 20.309v487.38c0 11.25 9.0581 20.309 20.309 20.309h487.38c11.25 0 20.309-9.0581 20.309-20.309v-487.38c0-11.25-9.0581-20.309-20.309-20.309h-487.38zm3.6914 4h480c11.08 0 20 8.92 20 20v480c0 11.08-8.92 20-20 20h-480c-11.08 0-20-8.92-20-20v-480c0-11.08 8.92-20 20-20z" opacity=".1"/>
  </g>
  <path d="m40 20h480c11.08 0 20 8.92 20 20v480c0 11.08-8.92 20-20 20h-480c-11.08 0-20-8.92-20-20v-480c0-11.08 8.92-20 20-20z" fill="#353945" opacity=".9"/>
  <path d="m40 20c-11.08 0-20 8.92-20 20v480c0 11.08 8.92 20 20 20h480c11.08 0 20-8.92 20-20v-480c0-11.08-8.92-20-20-20h-480zm0 1h480c10.543 0 19 8.4567 19 19v480c0 10.543-8.4567 19-19 19h-480c-10.543 0-19-8.4567-19-19v-480c0-10.543 8.4567-19 19-19z" opacity=".5"/>
 </g>
 <g id="blue-notes" transform="translate(560)">
  <rect width="560" height="560" opacity=".001"/>
  <g opacity=".8">
   <path d="m39.076 19c-11.123 0-20.076 8.9536-20.076 20.076v481.85c0 11.123 8.9536 20.076 20.076 20.076h481.85c11.123 0 20.076-8.9536 20.076-20.076v-481.85c0-11.123-8.9536-20.076-20.076-20.076h-481.85zm0.92383 1h480c11.08 0 20 8.92 20 20v480c0 11.08-8.92 20-20 20h-480c-11.08 0-20-8.92-20-20v-480c0-11.08 8.92-20 20-20z" opacity=".1"/>
   <path d="m38.154 18c-11.165 0-20.154 8.9891-20.154 20.154v483.69c0 11.165 8.9891 20.154 20.154 20.154h483.69c11.165 0 20.154-8.9891 20.154-20.154v-483.69c0-11.165-8.9891-20.154-20.154-20.154h-483.69zm1.8457 2h480c11.08 0 20 8.92 20 20v480c0 11.08-8.92 20-20 20h-480c-11.08 0-20-8.92-20-20v-480c0-11.08 8.92-20 20-20z" opacity=".1"/>
   <path d="m37.23 17c-11.208 0-20.23 9.0226-20.23 20.23v485.54c0 11.208 9.0226 20.23 20.23 20.23h485.54c11.208 0 20.23-9.0226 20.23-20.23v-485.54c0-11.208-9.0226-20.23-20.23-20.23h-485.54zm2.7695 3h480c11.08 0 20 8.92 20 20v480c0 11.08-8.92 20-20 20h-480c-11.08 0-20-8.92-20-20v-480c0-11.08 8.92-20 20-20z" opacity=".1"/>
   <path d="m36.309 16c-11.25 0-20.309 9.0581-20.309 20.309v487.38c0 11.25 9.0581 20.309 20.309 20.309h487.38c11.25 0 20.309-9.0581 20.309-20.309v-487.38c0-11.25-9.0581-20.309-20.309-20.309h-487.38zm3.6914 4h480c11.08 0 20 8.92 20 20v480c0 11.08-8.92 20-20 20h-480c-11.08 0-20-8.92-20-20v-480c0-11.08 8.92-20 20-20z" opacity=".1"/>
  </g>
  <path d="m40 20h480c11.08 0 20 8.92 20 20v480c0 11.08-8.92 20-20 20h-480c-11.08 0-20-8.92-20-20v-480c0-11.08 8.92-20 20-20z" fill="#5c87cc" opacity=".9"/>
  <path d="m40 20c-11.08 0-20 8.92-20 20v480c0 11.08 8.92 20 20 20h480c11.08 0 20-8.92 20-20v-480c0-11.08-8.92-20-20-20h-480zm0 1h480c10.543 0 19 8.4567 19 19v480c0 10.543-8.4567 19-19 19h-480c-10.543 0-19-8.4567-19-19v-480c0-10.543 8.4567-19 19-19z" opacity=".5"/>
 </g>
 <g id="green-notes" transform="translate(1120)">
  <rect width="560" height="560" opacity=".001"/>
  <g opacity=".8">
   <path d="m39.076 19c-11.123 0-20.076 8.9536-20.076 20.076v481.85c0 11.123 8.9536 20.076 20.076 20.076h481.85c11.123 0 20.076-8.9536 20.076-20.076v-481.85c0-11.123-8.9536-20.076-20.076-20.076h-481.85zm0.92383 1h480c11.08 0 20 8.92 20 20v480c0 11.08-8.92 20-20 20h-480c-11.08 0-20-8.92-20-20v-480c0-11.08 8.92-20 20-20z" opacity=".1"/>
   <path d="m38.154 18c-11.165 0-20.154 8.9891-20.154 20.154v483.69c0 11.165 8.9891 20.154 20.154 20.154h483.69c11.165 0 20.154-8.9891 20.154-20.154v-483.69c0-11.165-8.9891-20.154-20.154-20.154h-483.69zm1.8457 2h480c11.08 0 20 8.92 20 20v480c0 11.08-8.92 20-20 20h-480c-11.08 0-20-8.92-20-20v-480c0-11.08 8.92-20 20-20z" opacity=".1"/>
   <path d="m37.23 17c-11.208 0-20.23 9.0226-20.23 20.23v485.54c0 11.208 9.0226 20.23 20.23 20.23h485.54c11.208 0 20.23-9.0226 20.23-20.23v-485.54c0-11.208-9.0226-20.23-20.23-20.23h-485.54zm2.7695 3h480c11.08 0 20 8.92 20 20v480c0 11.08-8.92 20-20 20h-480c-11.08 0-20-8.92-20-20v-480c0-11.08 8.92-20 20-20z" opacity=".1"/>
   <path d="m36.309 16c-11.25 0-20.309 9.0581-20.309 20.309v487.38c0 11.25 9.0581 20.309 20.309 20.309h487.38c11.25 0 20.309-9.0581 20.309-20.309v-487.38c0-11.25-9.0581-20.309-20.309-20.309h-487.38zm3.6914 4h480c11.08 0 20 8.92 20 20v480c0 11.08-8.92 20-20 20h-480c-11.08 0-20-8.92-20-20v-480c0-11.08 8.92-20 20-20z" opacity=".1"/>
  </g>
  <path d="m40 20h480c11.08 0 20 8.92 20 20v480c0 11.08-8.92 20-20 20h-480c-11.08 0-20-8.92-20-20v-480c0-11.08 8.92-20 20-20z" fill="#87b158" opacity=".9"/>
  <path d="m40 20c-11.08 0-20 8.92-20 20v480c0 11.08 8.92 20 20 20h480c11.08 0 20-8.92 20-20v-480c0-11.08-8.92-20-20-20h-480zm0 1h480c10.543 0 19 8.4567 19 19v480c0 10.543-8.4567 19-19 19h-480c-10.543 0-19-8.4567-19-19v-480c0-10.543 8.4567-19 19-19z" opacity=".5"/>
 </g>
 <g id="yellow-notes" transform="translate(1680)">
  <rect width="560" height="560" opacity=".001"/>
  <g opacity=".8">
   <path d="m39.076 19c-11.123 0-20.076 8.9536-20.076 20.076v481.85c0 11.123 8.9536 20.076 20.076 20.076h481.85c11.123 0 20.076-8.9536 20.076-20.076v-481.85c0-11.123-8.9536-20.076-20.076-20.076h-481.85zm0.92383 1h480c11.08 0 20 8.92 20 20v480c0 11.08-8.92 20-20 20h-480c-11.08 0-20-8.92-20-20v-480c0-11.08 8.92-20 20-20z" opacity=".1"/>
   <path d="m38.154 18c-11.165 0-20.154 8.9891-20.154 20.154v483.69c0 11.165 8.9891 20.154 20.154 20.154h483.69c11.165 0 20.154-8.9891 20.154-20.154v-483.69c0-11.165-8.9891-20.154-20.154-20.154h-483.69zm1.8457 2h480c11.08 0 20 8.92 20 20v480c0 11.08-8.92 20-20 20h-480c-11.08 0-20-8.92-20-20v-480c0-11.08 8.92-20 20-20z" opacity=".1"/>
   <path d="m37.23 17c-11.208 0-20.23 9.0226-20.23 20.23v485.54c0 11.208 9.0226 20.23 20.23 20.23h485.54c11.208 0 20.23-9.0226 20.23-20.23v-485.54c0-11.208-9.0226-20.23-20.23-20.23h-485.54zm2.7695 3h480c11.08 0 20 8.92 20 20v480c0 11.08-8.92 20-20 20h-480c-11.08 0-20-8.92-20-20v-480c0-11.08 8.92-20 20-20z" opacity=".1"/>
   <path d="m36.309 16c-11.25 0-20.309 9.0581-20.309 20.309v487.38c0 11.25 9.0581 20.309 20.309 20.309h487.38c11.25 0 20.309-9.0581 20.309-20.309v-487.38c0-11.25-9.0581-20.309-20.309-20.309h-487.38zm3.6914 4h480c11.08 0 20 8.92 20 20v480c0 11.08-8.92 20-20 20h-480c-11.08 0-20-8.92-20-20v-480c0-11.08 8.92-20 20-20z" opacity=".1"/>
  </g>
  <path d="m40 20h480c11.08 0 20 8.92 20 20v480c0 11.08-8.92 20-20 20h-480c-11.08 0-20-8.92-20-20v-480c0-11.08 8.92-20 20-20z" fill="#e2b322" opacity=".9"/>
  <path d="m40 20c-11.08 0-20 8.92-20 20v480c0 11.08 8.92 20 20 20h480c11.08 0 20-8.92 20-20v-480c0-11.08-8.92-20-20-20h-480zm0 1h480c10.543 0 19 8.4567 19 19v480c0 10.543-8.4567 19-19 19h-480c-10.543 0-19-8.4567-19-19v-480c0-10.543 8.4567-19 19-19z" opacity=".5"/>
 </g>
 <g id="orange-notes" transform="translate(2240)">
  <rect width="560" height="560" opacity=".001"/>
  <g opacity=".8">
   <path d="m39.076 19c-11.123 0-20.076 8.9536-20.076 20.076v481.85c0 11.123 8.9536 20.076 20.076 20.076h481.85c11.123 0 20.076-8.9536 20.076-20.076v-481.85c0-11.123-8.9536-20.076-20.076-20.076h-481.85zm0.92383 1h480c11.08 0 20 8.92 20 20v480c0 11.08-8.92 20-20 20h-480c-11.08 0-20-8.92-20-20v-480c0-11.08 8.92-20 20-20z" opacity=".1"/>
   <path d="m38.154 18c-11.165 0-20.154 8.9891-20.154 20.154v483.69c0 11.165 8.9891 20.154 20.154 20.154h483.69c11.165 0 20.154-8.9891 20.154-20.154v-483.69c0-11.165-8.9891-20.154-20.154-20.154h-483.69zm1.8457 2h480c11.08 0 20 8.92 20 20v480c0 11.08-8.92 20-20 20h-480c-11.08 0-20-8.92-20-20v-480c0-11.08 8.92-20 20-20z" opacity=".1"/>
   <path d="m37.23 17c-11.208 0-20.23 9.0226-20.23 20.23v485.54c0 11.208 9.0226 20.23 20.23 20.23h485.54c11.208 0 20.23-9.0226 20.23-20.23v-485.54c0-11.208-9.0226-20.23-20.23-20.23h-485.54zm2.7695 3h480c11.08 0 20 8.92 20 20v480c0 11.08-8.92 20-20 20h-480c-11.08 0-20-8.92-20-20v-480c0-11.08 8.92-20 20-20z" opacity=".1"/>
   <path d="m36.309 16c-11.25 0-20.309 9.0581-20.309 20.309v487.38c0 11.25 9.0581 20.309 20.309 20.309h487.38c11.25 0 20.309-9.0581 20.309-20.309v-487.38c0-11.25-9.0581-20.309-20.309-20.309h-487.38zm3.6914 4h480c11.08 0 20 8.92 20 20v480c0 11.08-8.92 20-20 20h-480c-11.08 0-20-8.92-20-20v-480c0-11.08 8.92-20 20-20z" opacity=".1"/>
  </g>
  <path d="m40 20h480c11.08 0 20 8.92 20 20v480c0 11.08-8.92 20-20 20h-480c-11.08 0-20-8.92-20-20v-480c0-11.08 8.92-20 20-20z" fill="#ee923a" opacity=".9"/>
  <path d="m40 20c-11.08 0-20 8.92-20 20v480c0 11.08 8.92 20 20 20h480c11.08 0 20-8.92 20-20v-480c0-11.08-8.92-20-20-20h-480zm0 1h480c10.543 0 19 8.4567 19 19v480c0 10.543-8.4567 19-19 19h-480c-10.543 0-19-8.4567-19-19v-480c0-10.543 8.4567-19 19-19z" opacity=".5"/>
 </g>
 <g id="red-notes" transform="translate(2800)">
  <rect width="560" height="560" opacity=".001"/>
  <g opacity=".8">
   <path d="m39.076 19c-11.123 0-20.076 8.9536-20.076 20.076v481.85c0 11.123 8.9536 20.076 20.076 20.076h481.85c11.123 0 20.076-8.9536 20.076-20.076v-481.85c0-11.123-8.9536-20.076-20.076-20.076h-481.85zm0.92383 1h480c11.08 0 20 8.92 20 20v480c0 11.08-8.92 20-20 20h-480c-11.08 0-20-8.92-20-20v-480c0-11.08 8.92-20 20-20z" opacity=".1"/>
   <path d="m38.154 18c-11.165 0-20.154 8.9891-20.154 20.154v483.69c0 11.165 8.9891 20.154 20.154 20.154h483.69c11.165 0 20.154-8.9891 20.154-20.154v-483.69c0-11.165-8.9891-20.154-20.154-20.154h-483.69zm1.8457 2h480c11.08 0 20 8.92 20 20v480c0 11.08-8.92 20-20 20h-480c-11.08 0-20-8.92-20-20v-480c0-11.08 8.92-20 20-20z" opacity=".1"/>
   <path d="m37.23 17c-11.208 0-20.23 9.0226-20.23 20.23v485.54c0 11.208 9.0226 20.23 20.23 20.23h485.54c11.208 0 20.23-9.0226 20.23-20.23v-485.54c0-11.208-9.0226-20.23-20.23-20.23h-485.54zm2.7695 3h480c11.08 0 20 8.92 20 20v480c0 11.08-8.92 20-20 20h-480c-11.08 0-20-8.92-20-20v-480c0-11.08 8.92-20 20-20z" opacity=".1"/>
   <path d="m36.309 16c-11.25 0-20.309 9.0581-20.309 20.309v487.38c0 11.25 9.0581 20.309 20.309 20.309h487.38c11.25 0 20.309-9.0581 20.309-20.309v-487.38c0-11.25-9.0581-20.309-20.309-20.309h-487.38zm3.6914 4h480c11.08 0 20 8.92 20 20v480c0 11.08-8.92 20-20 20h-480c-11.08 0-20-8.92-20-20v-480c0-11.08 8.92-20 20-20z" opacity=".1"/>
  </g>
  <path d="m40 20h480c11.08 0 20 8.92 20 20v480c0 11.08-8.92 20-20 20h-480c-11.08 0-20-8.92-20-20v-480c0-11.08 8.92-20 20-20z" fill="#e25252" opacity=".9"/>
  <path d="m40 20c-11.08 0-20 8.92-20 20v480c0 11.08 8.92 20 20 20h480c11.08 0 20-8.92 20-20v-480c0-11.08-8.92-20-20-20h-480zm0 1h480c10.543 0 19 8.4567 19 19v480c0 10.543-8.4567 19-19 19h-480c-10.543 0-19-8.4567-19-19v-480c0-10.543 8.4567-19 19-19z" opacity=".5"/>
 </g>
 <g id="white-notes" transform="translate(3360)">
  <rect width="560" height="560" opacity=".001"/>
  <g opacity=".8">
   <path d="m39.076 19c-11.123 0-20.076 8.9536-20.076 20.076v481.85c0 11.123 8.9536 20.076 20.076 20.076h481.85c11.123 0 20.076-8.9536 20.076-20.076v-481.85c0-11.123-8.9536-20.076-20.076-20.076h-481.85zm0.92383 1h480c11.08 0 20 8.92 20 20v480c0 11.08-8.92 20-20 20h-480c-11.08 0-20-8.92-20-20v-480c0-11.08 8.92-20 20-20z" opacity=".1"/>
   <path d="m38.154 18c-11.165 0-20.154 8.9891-20.154 20.154v483.69c0 11.165 8.9891 20.154 20.154 20.154h483.69c11.165 0 20.154-8.9891 20.154-20.154v-483.69c0-11.165-8.9891-20.154-20.154-20.154h-483.69zm1.8457 2h480c11.08 0 20 8.92 20 20v480c0 11.08-8.92 20-20 20h-480c-11.08 0-20-8.92-20-20v-480c0-11.08 8.92-20 20-20z" opacity=".1"/>
   <path d="m37.23 17c-11.208 0-20.23 9.0226-20.23 20.23v485.54c0 11.208 9.0226 20.23 20.23 20.23h485.54c11.208 0 20.23-9.0226 20.23-20.23v-485.54c0-11.208-9.0226-20.23-20.23-20.23h-485.54zm2.7695 3h480c11.08 0 20 8.92 20 20v480c0 11.08-8.92 20-20 20h-480c-11.08 0-20-8.92-20-20v-480c0-11.08 8.92-20 20-20z" opacity=".1"/>
   <path d="m36.309 16c-11.25 0-20.309 9.0581-20.309 20.309v487.38c0 11.25 9.0581 20.309 20.309 20.309h487.38c11.25 0 20.309-9.0581 20.309-20.309v-487.38c0-11.25-9.0581-20.309-20.309-20.309h-487.38zm3.6914 4h480c11.08 0 20 8.92 20 20v480c0 11.08-8.92 20-20 20h-480c-11.08 0-20-8.92-20-20v-480c0-11.08 8.92-20 20-20z" opacity=".1"/>
  </g>
  <path d="m40 20h480c11.08 0 20 8.92 20 20v480c0 11.08-8.92 20-20 20h-480c-11.08 0-20-8.92-20-20v-480c0-11.08 8.92-20 20-20z" fill="#f5f6f7" opacity=".9"/>
  <path d="m40 20c-11.08 0-20 8.92-20 20v480c0 11.08 8.92 20 20 20h480c11.08 0 20-8.92 20-20v-480c0-11.08-8.92-20-20-20h-480zm0 1h480c10.543 0 19 8.4567 19 19v480c0 10.543-8.4567 19-19 19h-480c-10.543 0-19-8.4567-19-19v-480c0-10.543 8.4567-19 19-19z" opacity=".5"/>
 </g>
 <g id="pink-notes" transform="translate(3920)">
  <rect width="560" height="560" opacity=".001"/>
  <g opacity=".8">
   <path d="m39.076 19c-11.123 0-20.076 8.9536-20.076 20.076v481.85c0 11.123 8.9536 20.076 20.076 20.076h481.85c11.123 0 20.076-8.9536 20.076-20.076v-481.85c0-11.123-8.9536-20.076-20.076-20.076h-481.85zm0.92383 1h480c11.08 0 20 8.92 20 20v480c0 11.08-8.92 20-20 20h-480c-11.08 0-20-8.92-20-20v-480c0-11.08 8.92-20 20-20z" opacity=".1"/>
   <path d="m38.154 18c-11.165 0-20.154 8.9891-20.154 20.154v483.69c0 11.165 8.9891 20.154 20.154 20.154h483.69c11.165 0 20.154-8.9891 20.154-20.154v-483.69c0-11.165-8.9891-20.154-20.154-20.154h-483.69zm1.8457 2h480c11.08 0 20 8.92 20 20v480c0 11.08-8.92 20-20 20h-480c-11.08 0-20-8.92-20-20v-480c0-11.08 8.92-20 20-20z" opacity=".1"/>
   <path d="m37.23 17c-11.208 0-20.23 9.0226-20.23 20.23v485.54c0 11.208 9.0226 20.23 20.23 20.23h485.54c11.208 0 20.23-9.0226 20.23-20.23v-485.54c0-11.208-9.0226-20.23-20.23-20.23h-485.54zm2.7695 3h480c11.08 0 20 8.92 20 20v480c0 11.08-8.92 20-20 20h-480c-11.08 0-20-8.92-20-20v-480c0-11.08 8.92-20 20-20z" opacity=".1"/>
   <path d="m36.309 16c-11.25 0-20.309 9.0581-20.309 20.309v487.38c0 11.25 9.0581 20.309 20.309 20.309h487.38c11.25 0 20.309-9.0581 20.309-20.309v-487.38c0-11.25-9.0581-20.309-20.309-20.309h-487.38zm3.6914 4h480c11.08 0 20 8.92 20 20v480c0 11.08-8.92 20-20 20h-480c-11.08 0-20-8.92-20-20v-480c0-11.08 8.92-20 20-20z" opacity=".1"/>
  </g>
  <path d="m40 20h480c11.08 0 20 8.92 20 20v480c0 11.08-8.92 20-20 20h-480c-11.08 0-20-8.92-20-20v-480c0-11.08 8.92-20 20-20z" fill="#ca71df" opacity=".9"/>
  <path d="m40 20c-11.08 0-20 8.92-20 20v480c0 11.08 8.92 20 20 20h480c11.08 0 20-8.92 20-20v-480c0-11.08-8.92-20-20-20h-480zm0 1h480c10.543 0 19 8.4567 19 19v480c0 10.543-8.4567 19-19 19h-480c-10.543 0-19-8.4567-19-19v-480c0-10.543 8.4567-19 19-19z" opacity=".5"/>
 </g>
</svg>
