<?xml version="1.0" encoding="UTF-8"?>
<svg width="15.344" height="23" version="1" xmlns="http://www.w3.org/2000/svg">
 <defs>
  <style id="current-color-scheme" type="text/css">.ColorScheme-Background {color:#2f343f; } .ColorScheme-ButtonBackground { color:#444a58; } .ColorScheme-Highlight { color:#5c87cc; } .ColorScheme-Text { color:#d3dae3; } .ColorScheme-NegativeText { color:#f44336; } .ColorScheme-PositiveText { color:#4caf50; } .ColorScheme-NeutralText { color:#ff9800; }</style>
 </defs>
 <path id="normal-left" class="ColorScheme-Text" d="m9.5e-6 1v5h1v-5h-1z" fill="currentColor" opacity=".2"/>
 <path id="normal-right" class="ColorScheme-Text" d="m13 1v5h-1v-5h1z" fill="currentColor" opacity=".2"/>
 <rect id="normal-bottom" class="ColorScheme-Text" x="1" y="6" width="11" height="1" fill="currentColor" opacity=".2"/>
 <path id="normal-top" class="ColorScheme-Text" d="m1 0v1h11v-1h-11z" fill="currentColor" opacity=".2"/>
 <path id="hover-left" class="ColorScheme-Highlight" d="m9.5e-6 9v5h1v-5h-1z" fill="currentColor"/>
 <path id="hover-right" class="ColorScheme-Highlight" d="m13 9v5h-1v-5h1z" fill="currentColor"/>
 <path id="hover-top" class="ColorScheme-Highlight" d="m1 8v0.99875h11v-0.99875h-11z" fill="currentColor"/>
 <path id="active-left" class="ColorScheme-Highlight" d="m0 17v5h1v-5h-1z" fill="currentColor"/>
 <path id="active-right" class="ColorScheme-Highlight" d="m13 17v5h-1v-5h1z" fill="currentColor"/>
 <rect id="active-bottom" class="ColorScheme-Highlight" x="1" y="22" width="11" height="1.001" fill="currentColor"/>
 <path id="active-top" class="ColorScheme-Highlight" d="m1 16v1h11v-1h-11z" fill="currentColor"/>
 <rect id="normal-center" class="ColorScheme-Text" transform="scale(1,-1)" x="1" y="-6" width="11" height="5" fill="currentColor" opacity=".2"/>
 <rect id="active-center" class="ColorScheme-Highlight" transform="scale(1,-1)" x="1" y="-22" width="11" height="5" fill="currentColor"/>
 <rect id="hover-center" class="ColorScheme-Highlight" transform="scale(1,-1)" x="1" y="-14" width="11" height="5" fill="currentColor"/>
 <g id="hover-bottom" transform="matrix(2.2 0 0 .99875 -1.2 -2.4469)">
  <rect class="ColorScheme-Highlight" x="1" y="16.47" width="5" height="1.001" fill="currentColor"/>
 </g>
 <path id="hover-bottomleft" class="ColorScheme-Highlight" d="m9.5e-6 14c0 0.55228 0.44772 1 1 1v-1h-1z" fill="currentColor"/>
 <path id="hover-topleft" class="ColorScheme-Highlight" d="m9.5e-6 9c0-0.55228 0.44772-1 1-1v1h-1z" fill="currentColor"/>
 <path id="hover-topright" class="ColorScheme-Highlight" d="m13 9c0-0.55228-0.44772-1-1-1v1h1z" fill="currentColor"/>
 <path id="hover-bottomright" class="ColorScheme-Highlight" d="m13 14c0 0.55228-0.44772 1-1 1v-1h1z" fill="currentColor"/>
 <path id="normal-bottomleft" class="ColorScheme-Text" d="m9.5e-6 6c0 0.55228 0.44772 1 1 1v-1h-1z" fill="currentColor" opacity=".2"/>
 <path id="normal-topleft" class="ColorScheme-Text" d="m9.5e-6 1c0-0.55228 0.44772-1 1-1v1h-1z" fill="currentColor" opacity=".2"/>
 <path id="normal-topright" class="ColorScheme-Text" d="m13 1c0-0.55228-0.44772-1-1-1v1h1z" fill="currentColor" opacity=".2"/>
 <path id="normal-bottomright" class="ColorScheme-Text" d="m13 6c0 0.55228-0.44772 1-1 1v-1h1z" fill="currentColor" opacity=".2"/>
 <path id="active-bottomleft" class="ColorScheme-Highlight" d="m9.5e-6 22c0 0.55228 0.44772 1 1 1v-1h-1z" fill="currentColor"/>
 <path id="active-topleft" class="ColorScheme-Highlight" d="m9.5e-6 17c0-0.55228 0.44772-1 1-1v1h-1z" fill="currentColor"/>
 <path id="active-topright" class="ColorScheme-Highlight" d="m13 17c0-0.55228-0.44772-1-1-1v1h1z" fill="currentColor"/>
 <path id="active-bottomright" class="ColorScheme-Highlight" d="m13 22c0 0.55228-0.44772 1-1 1v-1h1z" fill="currentColor"/>
</svg>
