<?xml version="1.0" encoding="UTF-8"?>
<svg width="129" height="109" version="1" xmlns="http://www.w3.org/2000/svg">
 <defs>
  <style id="current-color-scheme" type="text/css">.ColorScheme-Background {color:#2f343f; } .ColorScheme-ButtonBackground { color:#444a58; } .ColorScheme-Highlight { color:#5c87cc; } .ColorScheme-Text { color:#d3dae3; } .ColorScheme-NegativeText { color:#f44336; } .ColorScheme-PositiveText { color:#4caf50; } .ColorScheme-NeutralText { color:#ff9800; }</style>
 </defs>
 <rect id="footer-center" class="ColorScheme-Background" transform="scale(1,-1)" x="72" y="-102" width="50" height="50" fill="currentColor"/>
 <g id="footer-left" transform="matrix(1 0 0 -1 55 119)">
  <path class="ColorScheme-Background" d="m10 17v50l7 1e-5v-50z" fill="currentColor"/>
  <path d="m10 17v50h1v-50z" opacity=".2"/>
 </g>
 <g id="footer-right" transform="matrix(1 0 0 -1 55 119)">
  <path class="ColorScheme-Background" d="m74 17v50l-7 1e-5v-50z" fill="currentColor"/>
  <path d="m73 17v50h1v-50z" opacity=".2"/>
 </g>
 <g id="footer-top" transform="matrix(1 0 0 -1 65 153.94)">
  <path class="ColorScheme-Background" d="m7 107.94h50v-6h-50z" fill="currentColor"/>
  <path d="m7 107.94v1h50v-1z" opacity=".2"/>
 </g>
 <g id="footer-bottom" transform="matrix(1 0 0 -1 55 119)">
  <path class="ColorScheme-Background" d="m17 9.9999h50v7h-50z" fill="currentColor"/>
  <path d="m17 10v1h50v-1z" opacity=".2"/>
 </g>
 <g id="footer-bottomright" transform="matrix(1 0 0 -1 55 119)">
  <path class="ColorScheme-Background" d="m67 9.9999v7h7v-2c0-2.77-2.23-5-5-5z" fill="currentColor"/>
  <path d="m67 10v1h2c2.2333 0 4 1.7667 4 4v2h1v-2c0-2.77-2.23-5-5-5z" opacity=".2"/>
 </g>
 <g id="footer-bottomleft" transform="matrix(1 0 0 -1 55 119)">
  <path class="ColorScheme-Background" d="m17 9.9999v7h-7v-2c0-2.77 2.23-5 5-5z" fill="currentColor"/>
  <path d="m15 10c-2.77 0-5 2.23-5 5v2h1v-2c0-2.2333 1.7667-4 4-4h2v-1z" opacity=".2"/>
 </g>
 <g id="footer-topleft" transform="matrix(1 0 0 -1 65 153.94)">
  <rect class="ColorScheme-Background" y="101.94" width="7" height="6" fill="currentColor"/>
  <rect y="107.94" width="7" height="1" opacity=".2"/>
  <rect y="101.94" width="1" height="6" opacity=".2"/>
 </g>
 <g id="footer-topright" transform="rotate(180 64.5 76.969)">
  <rect class="ColorScheme-Background" y="101.94" width="7" height="6" fill="currentColor"/>
  <rect y="107.94" width="7" height="1" opacity=".2"/>
  <rect y="101.94" width="1" height="6" opacity=".2"/>
 </g>
 <rect id="header-center" class="ColorScheme-Background" x="7" y="52" width="50" height="50" fill="currentColor"/>
 <g id="header-left" transform="translate(-10 34.999)">
  <path class="ColorScheme-Background" d="m10 17v50l7 1e-5v-50z" fill="currentColor"/>
  <path d="m10 17v50h1v-50z" opacity=".2"/>
 </g>
 <g id="header-right" transform="translate(-10 34.999)">
  <path class="ColorScheme-Background" d="m74 17v50l-7 1e-5v-50z" fill="currentColor"/>
  <path d="m73 17v50h1v-50z" opacity=".2"/>
 </g>
 <g id="header-bottom" transform="translate(0 .059995)">
  <path class="ColorScheme-Background" d="m7 107.94h50v-6h-50z" fill="currentColor"/>
  <path d="m7 107.94v1h50v-1z" opacity=".2"/>
 </g>
 <g id="header-top" transform="translate(-10 34.999)">
  <path class="ColorScheme-Background" d="m17 9.9999h50v7h-50z" fill="currentColor"/>
  <path d="m17 10v1h50v-1z" opacity=".2"/>
 </g>
 <g id="header-topright" transform="translate(-10 34.999)">
  <path class="ColorScheme-Background" d="m67 9.9999v7h7v-2c0-2.77-2.23-5-5-5z" fill="currentColor"/>
  <path d="m67 10v1h2c2.2333 0 4 1.7667 4 4v2h1v-2c0-2.77-2.23-5-5-5z" opacity=".2"/>
 </g>
 <g id="header-topleft" transform="translate(-10 34.999)">
  <path class="ColorScheme-Background" d="m17 9.9999v7h-7v-2c0-2.77 2.23-5 5-5z" fill="currentColor"/>
  <path d="m15 10c-2.77 0-5 2.23-5 5v2h1v-2c0-2.2333 1.7667-4 4-4h2v-1z" opacity=".2"/>
 </g>
 <rect id="hint-top-margin" x="29" y="52" width="4" height="7" fill="#f00"/>
 <rect id="hint-bottom-margin" x="29" y="95" width="4" height="7" fill="#f00"/>
 <rect id="hint-left-margin" x="7" y="74" width="7" height="4" fill="#f00"/>
 <rect id="hint-right-margin" x="50" y="74" width="7" height="4" fill="#f00"/>
 <rect id="hint-tile-center" width="5" height="5" fill="#f00"/>
 <g id="header-bottomleft" transform="translate(0 .059995)">
  <rect class="ColorScheme-Background" y="101.94" width="7" height="6" fill="currentColor"/>
  <rect y="107.94" width="7" height="1" opacity=".2"/>
  <rect y="101.94" width="1" height="6" opacity=".2"/>
 </g>
 <g id="header-bottomright" transform="matrix(-1 0 0 1 64 .060995)">
  <rect class="ColorScheme-Background" y="101.94" width="7" height="6" fill="currentColor"/>
  <rect y="107.94" width="7" height="1" opacity=".2"/>
  <rect y="101.94" width="1" height="6" opacity=".2"/>
 </g>
</svg>
