<?xml version="1.0" encoding="UTF-8"?>
<svg width="280" height="240" version="1.1" xmlns="http://www.w3.org/2000/svg">
 <defs>
  <style id="current-color-scheme" type="text/css">.ColorScheme-Background {color:#2f343f; } .ColorScheme-ButtonBackground { color:#444a58; } .ColorScheme-Highlight { color:#5c87cc; } .ColorScheme-Text { color:#d3dae3; } .ColorScheme-NegativeText { color:#f44336; } .ColorScheme-PositiveText { color:#4caf50; } .ColorScheme-NeutralText { color:#ff9800; }</style>
 </defs>
 <g id="south-active-tab-top" transform="rotate(-90 148 141)">
  <rect x="65" y="69" width="4" height="80" opacity=".001"/>
  <path class="ColorScheme-Highlight" d="m68 69v80h-3v-80z" fill="currentColor"/>
 </g>
 <g id="east-active-tab-left" transform="matrix(-1 0 0 1 273 -2.9978)">
  <rect x="65" y="69" width="4" height="80" opacity=".001"/>
  <path class="ColorScheme-Highlight" d="m68 69v80h-3v-80z" fill="currentColor"/>
 </g>
 <g id="north-active-tab-bottom" transform="rotate(90 140 92.001)">
  <rect x="65" y="69" width="4" height="80" opacity=".001"/>
  <path class="ColorScheme-Highlight" d="m68 69v80h-3v-80z" fill="currentColor"/>
 </g>
 <g id="west-active-tab-right" transform="translate(-47.998 -2.9978)">
  <rect x="65" y="69" width="4" height="80" opacity=".001"/>
  <path class="ColorScheme-Highlight" d="m68 69v80h-3v-80z" fill="currentColor"/>
 </g>
 <rect id="hint-tile-center" x="240" y="200" width="40" height="40" fill="#008000"/>
 <g id="south-active-tab-topleft" transform="translate(36 -138.36)">
  <path d="m30 358.36h10v4h-10z" opacity=".001"/>
  <path class="ColorScheme-Highlight" d="m40 359.36v3c-6 1e-5 -7 1e-5 -7-1.5 1e-6 -1.5 1-1.5 7-1.5z" fill="currentColor"/>
 </g>
 <g id="south-active-tab-topright" transform="translate(36 -138.36)">
  <path d="m120 358.36h10v4h-10z" opacity=".001"/>
  <path class="ColorScheme-Highlight" d="m120 359.36c6-1e-5 7-1e-5 7 1.5s-1 1.5-7 1.5z" fill="currentColor"/>
 </g>
 <rect id="south-active-tab-left" x="66" y="224" width="10" height="12" opacity=".001"/>
 <rect id="south-active-tab-center" x="76" y="224" width="80" height="12" opacity=".001"/>
 <rect id="south-active-tab-right" x="156" y="224" width="10" height="12" opacity=".001"/>
 <rect id="south-active-tab-bottomright" x="156" y="236" width="10" height="4" opacity=".001"/>
 <rect id="south-active-tab-bottom" x="76" y="236" width="80" height="4" opacity=".001"/>
 <rect id="south-active-tab-bottomleft" x="66" y="236" width="10" height="4" opacity=".001"/>
 <rect id="south-active-tab-hint-left-margin" x="66" y="227" width="6" height="5" fill="#4e9a06"/>
 <rect id="south-active-tab-hint-right-margin" x="160" y="227" width="6" height="5" fill="#4e9a06"/>
 <rect id="south-active-tab-hint-top-margin" x="114" y="221" width="5" height="8" fill="#4e9a06"/>
 <rect id="south-active-tab-hint-bottom-margin" x="114" y="236" width="5" height="4" fill="#4e9a06"/>
 <rect id="east-active-tab-bottom" transform="rotate(-90)" x="-155.7" y="209" width="10" height="12" opacity=".001"/>
 <rect id="east-active-tab-center" transform="rotate(-90)" x="-145.7" y="209" width="80" height="12" opacity=".001"/>
 <rect id="east-active-tab-top" transform="rotate(-90)" x="-65.7" y="209" width="10" height="12" opacity=".001"/>
 <rect id="east-active-tab-topright" transform="rotate(-90)" x="-65.7" y="221" width="10" height="4" opacity=".001"/>
 <rect id="east-active-tab-right" transform="rotate(-90)" x="-145.7" y="221" width="80" height="4" opacity=".001"/>
 <rect id="east-active-tab-bottomright" transform="rotate(-90)" x="-155.7" y="221" width="10" height="4" opacity=".001"/>
 <rect id="east-active-tab-hint-bottom-margin" transform="rotate(-90)" x="-156" y="212" width="6" height="5" fill="#4e9a06"/>
 <rect id="east-active-tab-hint-top-margin" transform="rotate(-90)" x="-62" y="212" width="6" height="5" fill="#4e9a06"/>
 <rect id="east-active-tab-hint-left-margin" transform="rotate(-90)" x="-102" y="205" width="5" height="8" fill="#4e9a06"/>
 <rect id="east-active-tab-hint-right-margin" transform="rotate(-90)" x="-102" y="221" width="5" height="4" fill="#4e9a06"/>
 <rect id="west-active-tab-top" transform="rotate(90)" x="56" y="-16" width="10" height="12" opacity=".001"/>
 <rect id="west-active-tab-center" transform="rotate(90)" x="66" y="-16" width="80" height="12" opacity=".001"/>
 <rect id="west-active-tab-bottom" transform="rotate(90)" x="146" y="-16" width="10" height="12" opacity=".001"/>
 <rect id="west-active-tab-bottomleft" transform="rotate(90)" x="146" y="-4" width="10" height="4" opacity=".001"/>
 <rect id="west-active-tab-left" transform="rotate(90)" x="66" y="-4" width="80" height="4" opacity=".001"/>
 <rect id="west-active-tab-topleft" transform="rotate(90)" x="56" y="-4" width="10" height="4" opacity=".001"/>
 <rect id="west-active-tab-hint-top-margin" transform="rotate(90)" x="56" y="-13" width="6" height="5" fill="#4e9a06"/>
 <rect id="west-active-tab-hint-bottom-margin" transform="rotate(90)" x="150" y="-13" width="6" height="5" fill="#4e9a06"/>
 <g id="west-active-tab-topright" transform="rotate(90 176.68 202.68)">
  <path d="m30 358.36h10v3.9978h-10z" opacity=".001"/>
  <path class="ColorScheme-Highlight" d="m40 359.36v3c-6 0-7 0-7-1.5 1.4e-5 -1.5 1-1.5 7-1.5z" fill="currentColor"/>
 </g>
 <g id="west-active-tab-bottomright" transform="rotate(90 176.68 202.68)">
  <path d="m120 358.36h10v3.9978h-10z" opacity=".001"/>
  <path class="ColorScheme-Highlight" d="m120 359.36c6-2e-5 7-2e-5 7 1.5 1e-5 1.5-0.99999 1.5-7 1.5z" fill="currentColor"/>
 </g>
 <rect id="west-active-tab-hint-right-margin" transform="rotate(90)" x="97" y="-20" width="5" height="8" fill="#4e9a06"/>
 <rect id="west-active-tab-hint-left-margin" transform="rotate(90)" x="97" y="-4" width="5" height="4" fill="#4e9a06"/>
 <rect id="north-active-tab-right" transform="scale(-1)" x="-173" y="-16" width="10" height="12" opacity=".001"/>
 <rect id="north-active-tab-center" transform="scale(-1)" x="-163" y="-16" width="80" height="12" opacity=".001"/>
 <rect id="north-active-tab-left" transform="scale(-1)" x="-83" y="-16" width="10" height="12" opacity=".001"/>
 <rect id="north-active-tab-topleft" transform="scale(-1)" x="-83" y="-4" width="10" height="4" opacity=".001"/>
 <rect id="north-active-tab-top" transform="scale(-1)" x="-163" y="-4" width="80" height="4" opacity=".001"/>
 <rect id="north-active-tab-topright" transform="scale(-1)" x="-173" y="-4" width="10" height="4" opacity=".001"/>
 <rect id="north-focus-hint-right-margin" transform="scale(-1)" x="-173" y="-13" width="6" height="5" fill="#4e9a06"/>
 <rect id="north-focus-hint-left-margin" transform="scale(-1)" x="-79" y="-13" width="6" height="5" fill="#4e9a06"/>
 <rect id="north-focus-hint-bottom-margin" transform="scale(-1)" x="-119" y="-20" width="5" height="8" fill="#4e9a06"/>
 <rect id="north-focus-hint-top-margin" transform="scale(-1)" x="-119" y="-4" width="5" height="4" fill="#4e9a06"/>
 <g id="north-active-tab-bottomleft" transform="translate(43 -342.36)">
  <path d="m30 359.36h10v4h-10z" opacity=".001"/>
  <path class="ColorScheme-Highlight" d="m40 359.36v3c-6 0-7 0-7-1.5 1.1e-5 -1.5 1-1.5 7-1.5z" fill="currentColor"/>
 </g>
 <g id="north-active-tab-bottomright" transform="translate(-200 -210.36)">
  <rect x="363" y="227.36" width="10" height="3" opacity=".001"/>
  <path d="m363 227.36h10v4h-10z" opacity=".001"/>
  <path class="ColorScheme-Highlight" d="m363 227.36c6-3e-5 7-3e-5 7 1.5s-1 1.5-7 1.5z" fill="currentColor"/>
 </g>
 <g id="east-active-tab-topleft" transform="rotate(90 270.68 296.68)">
  <path d="m30 359.36h10v4.0024h-10z" opacity=".001"/>
  <path class="ColorScheme-Highlight" d="m40 359.36v3c-6.0013 4e-3 -6.9849-0.0268-7-1.585 0.01508-1.3766 1.0301-1.4276 7-1.415z" fill="currentColor"/>
 </g>
 <g id="east-active-tab-bottomleft" transform="rotate(90 270.68 296.68)">
  <path d="m120 359.36h10v4.0024h-10z" opacity=".001"/>
  <path class="ColorScheme-Highlight" d="m120 359.36c6.0205 3e-3 7 0.0106 7 1.415-4e-3 1.5683-1.0096 1.5699-7 1.585z" fill="currentColor"/>
 </g>
</svg>
