<?xml version="1.0" encoding="UTF-8"?>
<svg width="173" height="115" enable-background="new" version="1" xmlns="http://www.w3.org/2000/svg">
 <defs>
  <style id="current-color-scheme" type="text/css">.ColorScheme-Background {color:#2f343f; } .ColorScheme-ButtonBackground { color:#444a58; } .ColorScheme-Highlight { color:#5c87cc; } .ColorScheme-Text { color:#d3dae3; } .ColorScheme-NegativeText { color:#f44336; } .ColorScheme-PositiveText { color:#4caf50; } .ColorScheme-NeutralText { color:#ff9800; }</style>
 </defs>
 <path id="north-focus-topright" d="m24 30h4v4h-4z" opacity=".001"/>
 <path id="north-focus-center" d="m6.0001 35v16h16v-16z" opacity=".001"/>
 <g id="north-focus-bottom" transform="translate(-76,27)">
  <path d="m82 26v4h16v-4z" opacity=".001"/>
  <path class="ColorScheme-Highlight" d="m82 26h16v3h-16z" fill="currentColor"/>
 </g>
 <g id="north-focus-bottomleft" transform="translate(-76,27)">
  <path d="m76 26h4v4h-4z" opacity=".001"/>
  <path class="ColorScheme-Highlight" d="m79.5 26c-0.82843 0-1.5 0.67157-1.5 1.5s0.67157 1.5 1.5 1.5h0.5v-3z" fill="currentColor"/>
 </g>
 <g id="north-focus-bottomright" transform="translate(-76,27)">
  <path d="m100 26h4v4h-4z" opacity=".001"/>
  <path class="ColorScheme-Highlight" d="m100.5 26c0.82843 0 1.5 0.67157 1.5 1.5s-0.67157 1.5-1.5 1.5h-0.5v-3z" fill="currentColor"/>
 </g>
 <path id="north-focus-topleft" d="m0 30h4v4h-4z" opacity=".001"/>
 <path id="north-focus-left" d="m0 35h4v16h-4z" opacity=".001"/>
 <path id="north-focus-right" d="m24 35h4v16h-4z" opacity=".001"/>
 <path id="north-focus-top" d="m6 30h16v4h-16z" opacity=".001"/>
 <path id="north-minimized-topright" d="m53 30h4v4h-4z" opacity=".001"/>
 <path id="north-minimized-center" d="m35 35v16h16v-16z" opacity=".001"/>
 <path id="north-minimized-topleft" d="m29 30h4v4h-4z" opacity=".001"/>
 <path id="north-minimized-left" d="m29 35h4v16h-4z" opacity=".001"/>
 <path id="north-minimized-right" d="m53 35h4v16h-4z" opacity=".001"/>
 <path id="north-minimized-top" d="m35 30h16v4h-16z" opacity=".001"/>
 <path id="north-hover-topright" d="m82 30h4v4h-4z" opacity=".001"/>
 <path id="north-hover-center" d="m64 35v16h16v-16z" opacity=".001"/>
 <path id="north-hover-topleft" d="m58 30h4v4h-4z" opacity=".001"/>
 <path id="north-hover-left" d="m58 35h4v16h-4z" opacity=".001"/>
 <path id="north-hover-right" d="m82 35h4v16h-4z" opacity=".001"/>
 <path id="north-hover-top" d="m64 30h16v4h-16z" opacity=".001"/>
 <path id="north-normal-topright" d="m111 30h4v4h-4z" opacity=".001"/>
 <path id="north-normal-center" d="m93 35v16h16v-16z" opacity=".001"/>
 <path id="north-normal-topleft" d="m87 30h4v4h-4z" opacity=".001"/>
 <path id="north-normal-left" d="m87 35h4v16h-4z" opacity=".001"/>
 <path id="north-normal-right" d="m111 35h4v16h-4z" opacity=".001"/>
 <path id="north-normal-top" d="m93 30h16v4h-16z" opacity=".001"/>
 <path id="north-progress-topright" d="m140 30h4v4h-4z" opacity=".001"/>
 <path id="north-progress-center" d="m122 35v16h16v-16z" opacity=".001"/>
 <path id="north-progress-topleft" d="m116 30h4v4h-4z" opacity=".001"/>
 <path id="north-progress-left" d="m116 35h4v16h-4z" opacity=".001"/>
 <path id="north-progress-right" d="m140 35h4v16h-4z" opacity=".001"/>
 <path id="north-progress-top" d="m122 30h16v4h-16z" opacity=".001"/>
 <path id="north-attention-topright" d="m169 30h4v4h-4z" opacity=".001"/>
 <path id="north-attention-center" d="m151 35v16h16v-16z" opacity=".001"/>
 <path id="north-attention-topleft" d="m145 30h4v4h-4z" opacity=".001"/>
 <path id="north-attention-left" d="m145 35h4v16h-4z" opacity=".001"/>
 <path id="north-attention-right" d="m169 35h4v16h-4z" opacity=".001"/>
 <path id="north-attention-top" d="m151 30h16v4h-16z" opacity=".001"/>
 <g id="north-minimized-bottom" transform="translate(-47,27)">
  <path d="m82 26v4h16v-4z" opacity=".001"/>
  <path class="ColorScheme-Text" d="m82 26h16v3h-16z" fill="currentColor" opacity=".2"/>
 </g>
 <g id="north-minimized-bottomleft" transform="translate(-47,27)">
  <path d="m76 26h4v4h-4z" opacity=".001"/>
  <path class="ColorScheme-Text" d="m79.5 26c-0.82843 0-1.5 0.67157-1.5 1.5s0.67157 1.5 1.5 1.5h0.5v-3z" fill="currentColor" opacity=".2"/>
 </g>
 <g id="north-minimized-bottomright" transform="translate(-47,27)">
  <path d="m100 26h4v4h-4z" opacity=".001"/>
  <path class="ColorScheme-Text" d="m100.5 26c0.82843 0 1.5 0.67157 1.5 1.5s-0.67157 1.5-1.5 1.5h-0.5v-3z" fill="currentColor" opacity=".2"/>
 </g>
 <g id="north-hover-bottom" transform="translate(-18,27)">
  <path d="m82 26v4h16v-4z" opacity=".001"/>
  <path class="ColorScheme-Highlight" d="m82 26h16v3h-16z" fill="currentColor"/>
 </g>
 <g id="north-hover-bottomleft" transform="translate(-18,27)">
  <path d="m76 26h4v4h-4z" opacity=".001"/>
  <path class="ColorScheme-Highlight" d="m79.5 26c-0.82843 0-1.5 0.67157-1.5 1.5s0.67157 1.5 1.5 1.5h0.5v-3z" fill="currentColor"/>
 </g>
 <g id="north-hover-bottomright" transform="translate(-18,27)">
  <path d="m100 26h4v4h-4z" opacity=".001"/>
  <path class="ColorScheme-Highlight" d="m100.5 26c0.82843 0 1.5 0.67157 1.5 1.5s-0.67157 1.5-1.5 1.5h-0.5v-3z" fill="currentColor"/>
 </g>
 <g id="north-progress-bottom" transform="translate(40,27)">
  <path d="m82 26v4h16v-4z" opacity=".001"/>
  <path class="ColorScheme-PositiveText" d="m82 26h16v3h-16z" fill="currentColor"/>
 </g>
 <g id="north-progress-bottomleft" transform="translate(40,27)">
  <path d="m76 26h4v4h-4z" opacity=".001"/>
  <path class="ColorScheme-PositiveText" d="m79.5 26c-0.82843 0-1.5 0.67157-1.5 1.5s0.67157 1.5 1.5 1.5h0.5v-3z" fill="currentColor"/>
 </g>
 <g id="north-progress-bottomright" transform="translate(40,27)">
  <path d="m100 26h4v4h-4z" opacity=".001"/>
  <path class="ColorScheme-PositiveText" d="m100.5 26c0.82843 0 1.5 0.67157 1.5 1.5s-0.67157 1.5-1.5 1.5h-0.5v-3z" fill="currentColor"/>
 </g>
 <g id="north-attention-bottom" transform="translate(69,27)">
  <path d="m82 26v4h16v-4z" opacity=".001"/>
  <path class="ColorScheme-NeutralText" d="m82 26h16v3h-16z" fill="currentColor"/>
 </g>
 <g id="north-attention-bottomleft" transform="translate(69,27)">
  <path d="m76 26h4v4h-4z" opacity=".001"/>
  <path class="ColorScheme-NeutralText" d="m79.5 26c-0.82843 0-1.5 0.67157-1.5 1.5s0.67157 1.5 1.5 1.5h0.5v-3z" fill="currentColor"/>
 </g>
 <g id="north-attention-bottomright" transform="translate(69,27)">
  <path d="m100 26h4v4h-4z" opacity=".001"/>
  <path class="ColorScheme-NeutralText" d="m100.5 26c0.82843 0 1.5 0.67157 1.5 1.5s-0.67157 1.5-1.5 1.5h-0.5v-3z" fill="currentColor"/>
 </g>
 <g id="north-normal-bottom" transform="translate(11,27)">
  <path d="m82 26v4h16v-4z" opacity=".001"/>
  <path class="ColorScheme-Text" d="m82 26h16v3h-16z" fill="currentColor" opacity=".2"/>
 </g>
 <g id="north-normal-bottomleft" transform="translate(11,27)">
  <path d="m76 26h4v4h-4z" opacity=".001"/>
  <path class="ColorScheme-Text" d="m79.5 26c-0.82843 0-1.5 0.67157-1.5 1.5s0.67157 1.5 1.5 1.5h0.5v-3z" fill="currentColor" opacity=".2"/>
 </g>
 <g id="north-normal-bottomright" transform="translate(11,27)">
  <path d="m100 26h4v4h-4z" opacity=".001"/>
  <path class="ColorScheme-Text" d="m100.5 26c0.82843 0 1.5 0.67157 1.5 1.5s-0.67157 1.5-1.5 1.5h-0.5v-3z" fill="currentColor" opacity=".2"/>
 </g>
 <path id="focus-bottomright" d="m24 24h4v4h-4z" opacity=".001"/>
 <path id="focus-center" d="m6.0001 6v16h16v-16z" opacity=".001"/>
 <g id="focus-top" transform="translate(-76,-24)">
  <path d="m82 24v4h16v-4z" opacity=".001"/>
  <path class="ColorScheme-Highlight" d="m82 25h16v3h-16z" fill="currentColor"/>
 </g>
 <g id="focus-topleft" transform="translate(-76,-24)">
  <path d="m76 24h4v4h-4z" opacity=".001"/>
  <path class="ColorScheme-Highlight" d="m79.5 25c-0.82843 0-1.5 0.67157-1.5 1.5s0.67157 1.5 1.5 1.5h0.5v-3z" fill="currentColor"/>
 </g>
 <g id="focus-topright" transform="translate(-76,-24)">
  <path d="m100 24h4v4h-4z" opacity=".001"/>
  <path class="ColorScheme-Highlight" d="m100.5 25c0.82843 0 1.5 0.67157 1.5 1.5s-0.67157 1.5-1.5 1.5h-0.5v-3z" fill="currentColor"/>
 </g>
 <path id="focus-bottomleft" d="m0 24h4v4h-4z" opacity=".001"/>
 <path id="focus-left" d="m0 6h4v16h-4z" opacity=".001"/>
 <path id="focus-right" d="m24 6h4v16h-4z" opacity=".001"/>
 <path id="focus-bottom" d="m6 24h16v4h-16z" opacity=".001"/>
 <path id="minimized-bottomright" d="m53 24h4v4h-4z" opacity=".001"/>
 <path id="minimized-center" d="m35 6v16h16v-16z" opacity=".001"/>
 <path id="minimized-bottomleft" d="m29 24h4v4h-4z" opacity=".001"/>
 <path id="minimized-left" d="m29 6h4v16h-4z" opacity=".001"/>
 <path id="minimized-right" d="m53 6h4v16h-4z" opacity=".001"/>
 <path id="minimized-bottom" d="m35 24h16v4h-16z" opacity=".001"/>
 <path id="hover-bottomright" d="m82 24h4v4h-4z" opacity=".001"/>
 <path id="hover-center" d="m64 6v16h16v-16z" opacity=".001"/>
 <path id="hover-bottomleft" d="m58 24h4v4h-4z" opacity=".001"/>
 <path id="hover-left" d="m58 6h4v16h-4z" opacity=".001"/>
 <path id="hover-right" d="m82 6h4v16h-4z" opacity=".001"/>
 <path id="hover-bottom" d="m64 24h16v4h-16z" opacity=".001"/>
 <path id="normal-bottomright" d="m111 24h4v4h-4z" opacity=".001"/>
 <path id="normal-center" d="m93 6v16h16v-16z" opacity=".001"/>
 <path id="normal-bottomleft" d="m87 24h4v4h-4z" opacity=".001"/>
 <path id="normal-left" d="m87 6h4v16h-4z" opacity=".001"/>
 <path id="normal-right" d="m111 6h4v16h-4z" opacity=".001"/>
 <path id="normal-bottom" d="m93 24h16v4h-16z" opacity=".001"/>
 <path id="progress-bottomright" d="m140 24h4v4h-4z" opacity=".001"/>
 <path id="progress-center" d="m122 6v16h16v-16z" opacity=".001"/>
 <path id="progress-bottomleft" d="m116 24h4v4h-4z" opacity=".001"/>
 <path id="progress-left" d="m116 6h4v16h-4z" opacity=".001"/>
 <path id="progress-right" d="m140 6h4v16h-4z" opacity=".001"/>
 <path id="progress-bottom" d="m122 24h16v4h-16z" opacity=".001"/>
 <path id="attention-bottomright" d="m169 24h4v4h-4z" opacity=".001"/>
 <path id="attention-center" d="m151 6v16h16v-16z" opacity=".001"/>
 <path id="attention-bottomleft" d="m145 24h4v4h-4z" opacity=".001"/>
 <path id="attention-left" d="m145 6h4v16h-4z" opacity=".001"/>
 <path id="attention-right" d="m169 6h4v16h-4z" opacity=".001"/>
 <path id="attention-bottom" d="m151 24h16v4h-16z" opacity=".001"/>
 <g id="minimized-top" transform="translate(-47,-24)">
  <path d="m82 24v4h16v-4z" opacity=".001"/>
  <path class="ColorScheme-Text" d="m82 25h16v3h-16z" fill="currentColor" opacity=".2"/>
 </g>
 <g id="minimized-topleft" transform="translate(-47,-24)">
  <path d="m76 24h4v4h-4z" opacity=".001"/>
  <path class="ColorScheme-Text" d="m79.5 25c-0.82843 0-1.5 0.67157-1.5 1.5s0.67157 1.5 1.5 1.5h0.5v-3z" fill="currentColor" opacity=".2"/>
 </g>
 <g id="minimized-topright" transform="translate(-47,-24)">
  <path d="m100 24h4v4h-4z" opacity=".001"/>
  <path class="ColorScheme-Text" d="m100.5 25c0.82843 0 1.5 0.67157 1.5 1.5s-0.67157 1.5-1.5 1.5h-0.5v-3z" fill="currentColor" opacity=".2"/>
 </g>
 <g id="hover-top" transform="translate(-18,-24)">
  <path d="m82 24v4h16v-4z" opacity=".001"/>
  <path class="ColorScheme-Highlight" d="m82 25h16v3h-16z" fill="currentColor"/>
 </g>
 <g id="hover-topleft" transform="translate(-18,-24)">
  <path d="m76 24h4v4h-4z" opacity=".001"/>
  <path class="ColorScheme-Highlight" d="m79.5 25c-0.82843 0-1.5 0.67157-1.5 1.5s0.67157 1.5 1.5 1.5h0.5v-3z" fill="currentColor"/>
 </g>
 <g id="hover-topright" transform="translate(-18,-24)">
  <path d="m100 24h4v4h-4z" opacity=".001"/>
  <path class="ColorScheme-Highlight" d="m100.5 25c0.82843 0 1.5 0.67157 1.5 1.5s-0.67157 1.5-1.5 1.5h-0.5v-3z" fill="currentColor"/>
 </g>
 <g id="progress-top" transform="translate(40,-24)">
  <path d="m82 24v4h16v-4z" opacity=".001"/>
  <path class="ColorScheme-PositiveText" d="m82 25h16v3h-16z" fill="currentColor"/>
 </g>
 <g id="progress-topleft" transform="translate(40,-24)">
  <path d="m76 24h4v4h-4z" opacity=".001"/>
  <path class="ColorScheme-PositiveText" d="m79.5 25c-0.82843 0-1.5 0.67157-1.5 1.5s0.67157 1.5 1.5 1.5h0.5v-3z" fill="currentColor"/>
 </g>
 <g id="progress-topright" transform="translate(40,-24)">
  <path d="m100 24h4v4h-4z" opacity=".001"/>
  <path class="ColorScheme-PositiveText" d="m100.5 25c0.82843 0 1.5 0.67157 1.5 1.5s-0.67157 1.5-1.5 1.5h-0.5v-3z" fill="currentColor"/>
 </g>
 <g id="attention-top" transform="translate(69 -24)">
  <path d="m82 24v4h16v-4z" opacity=".001"/>
  <path class="ColorScheme-NeutralText" d="m82 25h16v3h-16z" fill="currentColor"/>
 </g>
 <g id="attention-topleft" transform="translate(69 -24)">
  <path d="m76 24h4v4h-4z" opacity=".001"/>
  <path class="ColorScheme-NeutralText" d="m79.5 25c-0.82843 0-1.5 0.67157-1.5 1.5s0.67157 1.5 1.5 1.5h0.5v-3z" fill="currentColor"/>
 </g>
 <g id="attention-topright" transform="translate(69 -24)">
  <path d="m100 24h4v4h-4z" opacity=".001"/>
  <path class="ColorScheme-NeutralText" d="m100.5 25c0.82843 0 1.5 0.67157 1.5 1.5s-0.67157 1.5-1.5 1.5h-0.5v-3z" fill="currentColor"/>
 </g>
 <g id="normal-top" transform="translate(11,-24)">
  <path d="m82 24v4h16v-4z" opacity=".001"/>
  <path class="ColorScheme-Text" d="m82 25h16v3h-16z" fill="currentColor" opacity=".2"/>
 </g>
 <g id="normal-topleft" transform="translate(11,-24)">
  <path d="m76 24h4v4h-4z" opacity=".001"/>
  <path class="ColorScheme-Text" d="m79.5 25c-0.82843 0-1.5 0.67157-1.5 1.5s0.67157 1.5 1.5 1.5h0.5v-3z" fill="currentColor" opacity=".2"/>
 </g>
 <g id="normal-topright" transform="translate(11,-24)">
  <path d="m100 24h4v4h-4z" opacity=".001"/>
  <path class="ColorScheme-Text" d="m100.5 25c0.82843 0 1.5 0.67157 1.5 1.5s-0.67157 1.5-1.5 1.5h-0.5v-3z" fill="currentColor" opacity=".2"/>
 </g>
 <path id="east-focus-bottomright" d="m23 82h4v4h-4z" opacity=".001"/>
 <path id="east-focus-center" d="m6.0001 64v16h16v-16z" opacity=".001"/>
 <path id="east-focus-top" d="m6 58v4h16v-4z" opacity=".001"/>
 <path id="east-focus-topright" d="m23 58h4v4h-4z" opacity=".001"/>
 <path id="east-focus-right" d="m23 64h4v16h-4z" opacity=".001"/>
 <path id="east-focus-bottom" d="m6 82h16v4h-16z" opacity=".001"/>
 <path id="east-minimized-bottomright" d="m52 82h4v4h-4z" opacity=".001"/>
 <path id="east-minimized-center" d="m35 64v16h16v-16z" opacity=".001"/>
 <path id="east-minimized-right" d="m52 64h4v16h-4z" opacity=".001"/>
 <path id="east-minimized-bottom" d="m35 82h16v4h-16z" opacity=".001"/>
 <path id="east-hover-bottomright" d="m81 82h4v4h-4z" opacity=".001"/>
 <path id="east-hover-center" d="m64 64v16h16v-16z" opacity=".001"/>
 <path id="east-hover-right" d="m81 64h4v16h-4z" opacity=".001"/>
 <path id="east-hover-bottom" d="m64 82h16v4h-16z" opacity=".001"/>
 <path id="east-normal-bottomright" d="m110 82h4v4h-4z" opacity=".001"/>
 <path id="east-normal-center" d="m93 64v16h16v-16z" opacity=".001"/>
 <path id="east-normal-right" d="m110 64h4v16h-4z" opacity=".001"/>
 <path id="east-normal-bottom" d="m93 82h16v4h-16z" opacity=".001"/>
 <path id="east-progress-bottomright" d="m139 82h4v4h-4z" opacity=".001"/>
 <path id="east-progress-center" d="m122 64v16h16v-16z" opacity=".001"/>
 <path id="east-progress-right" d="m139 64h4v16h-4z" opacity=".001"/>
 <path id="east-progress-bottom" d="m122 82h16v4h-16z" opacity=".001"/>
 <path id="east-attention-bottomright" d="m168 82h4v4h-4z" opacity=".001"/>
 <path id="east-attention-center" d="m151 64v16h16v-16z" opacity=".001"/>
 <path id="east-attention-right" d="m168 64h4v16h-4z" opacity=".001"/>
 <path id="east-attention-bottom" d="m151 82h16v4h-16z" opacity=".001"/>
 <path id="east-minimized-top" d="m35 58v4h16v-4z" opacity=".001"/>
 <path id="east-minimized-topright" d="m52 58h4v4h-4z" opacity=".001"/>
 <path id="east-hover-top" d="m64 58v4h16v-4z" opacity=".001"/>
 <path id="east-hover-topright" d="m81 58h4v4h-4z" opacity=".001"/>
 <path id="east-progress-top" d="m122 58v4h16v-4z" opacity=".001"/>
 <path id="east-progress-topright" d="m139 58h4v4h-4z" opacity=".001"/>
 <path id="east-attention-top" d="m151 58v4h16v-4z" opacity=".001"/>
 <path id="east-attention-topright" d="m168 58h4v4h-4z" opacity=".001"/>
 <path id="east-normal-top" d="m93 58v4h16v-4z" opacity=".001"/>
 <path id="east-normal-topright" d="m110 58h4v4h-4z" opacity=".001"/>
 <g id="east-focus-left" transform="translate(0,-2)">
  <path d="m0 66h4v16h-4z" opacity=".001"/>
  <path class="ColorScheme-Highlight" d="m4 66v16h-3v-16z" fill="currentColor"/>
 </g>
 <g id="east-minimized-left" transform="translate(1,-2)">
  <path d="m28 66h4v16h-4z" opacity=".001"/>
  <path class="ColorScheme-Text" d="m32 66v16h-3v-16z" fill="currentColor" opacity=".2"/>
 </g>
 <g id="east-hover-left" transform="translate(2,-2)">
  <path d="m56 66h4v16h-4z" opacity=".001"/>
  <path class="ColorScheme-Highlight" d="m60 66v16h-3v-16z" fill="currentColor"/>
 </g>
 <g id="east-progress-left" transform="translate(4,-2)">
  <path d="m112 66h4v16h-4z" opacity=".001"/>
  <path class="ColorScheme-PositiveText" d="m116 66v16h-3v-16z" fill="currentColor"/>
 </g>
 <g id="east-attention-left" transform="translate(5,-2)">
  <path d="m140 66h4v16h-4z" opacity=".001"/>
  <path class="ColorScheme-NeutralText" d="m144 66v16h-3v-16z" fill="currentColor"/>
 </g>
 <g id="east-normal-left" transform="translate(3,-2)">
  <path d="m84 66h4v16h-4z" opacity=".001"/>
  <path class="ColorScheme-Text" d="m88 66v16h-3v-16z" fill="currentColor" opacity=".2"/>
 </g>
 <g id="east-focus-bottomleft" transform="translate(0,-2)">
  <path d="m0 84h4v4h-4z" opacity=".001"/>
  <path class="ColorScheme-Highlight" d="m4 84.5c0 0.82843-0.67157 1.5-1.5 1.5s-1.5-0.67157-1.5-1.5v-0.5h3z" fill="currentColor"/>
 </g>
 <g id="east-minimized-bottomleft" transform="translate(1,-2)">
  <path d="m28 84h4v4h-4z" opacity=".001"/>
  <path class="ColorScheme-Text" d="m32 84.5c0 0.82843-0.67157 1.5-1.5 1.5s-1.5-0.67157-1.5-1.5v-0.5h3z" fill="currentColor" opacity=".2"/>
 </g>
 <g id="east-hover-bottomleft" transform="translate(2,-2)">
  <path d="m56 84h4v4h-4z" opacity=".001"/>
  <path class="ColorScheme-Highlight" d="m60 84.5c0 0.82843-0.67157 1.5-1.5 1.5s-1.5-0.67157-1.5-1.5v-0.5h3z" fill="currentColor"/>
 </g>
 <g id="east-progress-bottomleft" transform="translate(4,-2)">
  <path d="m112 84h4v4h-4z" opacity=".001"/>
  <path class="ColorScheme-PositiveText" d="m116 84.5c0 0.82843-0.67157 1.5-1.5 1.5s-1.5-0.67157-1.5-1.5v-0.5h3z" fill="currentColor"/>
 </g>
 <g id="east-attention-bottomleft" transform="translate(5,-2)">
  <path d="m140 84h4v4h-4z" opacity=".001"/>
  <path class="ColorScheme-NeutralText" d="m144 84.5c0 0.82844-0.67157 1.5-1.5 1.5s-1.5-0.67156-1.5-1.5v-0.5h3z" fill="currentColor"/>
 </g>
 <g id="east-normal-bottomleft" transform="translate(3,-2)">
  <path d="m84 84h4v4h-4z" opacity=".001"/>
  <path class="ColorScheme-Text" d="m88 84.5c0 0.82843-0.67157 1.5-1.5 1.5s-1.5-0.67157-1.5-1.5v-0.5h3z" fill="currentColor" opacity=".2"/>
 </g>
 <g id="east-focus-topleft" transform="translate(0,-2)">
  <path d="m0 60h4v4h-4z" opacity=".001"/>
  <path class="ColorScheme-Highlight" d="m4 63.5c0-0.82843-0.67157-1.5-1.5-1.5s-1.5 0.67157-1.5 1.5v0.5h3z" fill="currentColor"/>
 </g>
 <g id="east-minimized-topleft" transform="translate(1,-2)">
  <path d="m28 60h4v4h-4z" opacity=".001"/>
  <path class="ColorScheme-Text" d="m32 63.5c0-0.82843-0.67157-1.5-1.5-1.5s-1.5 0.67157-1.5 1.5v0.5h3z" fill="currentColor" opacity=".2"/>
 </g>
 <g id="east-hover-topleft" transform="translate(2,-2)">
  <path d="m56 60h4v4h-4z" opacity=".001"/>
  <path class="ColorScheme-Highlight" d="m60 63.5c0-0.82843-0.67157-1.5-1.5-1.5s-1.5 0.67157-1.5 1.5v0.5h3z" fill="currentColor"/>
 </g>
 <g id="east-progress-topleft" transform="translate(4,-2)">
  <path d="m112 60h4v4h-4z" opacity=".001"/>
  <path class="ColorScheme-PositiveText" d="m116 63.5c0-0.82843-0.67157-1.5-1.5-1.5s-1.5 0.67157-1.5 1.5v0.5h3z" fill="currentColor"/>
 </g>
 <g id="east-attention-topleft" transform="translate(5,-2)">
  <path d="m140 60h4v4h-4z" opacity=".001"/>
  <path class="ColorScheme-NeutralText" d="m144 63.5c0-0.82842-0.67157-1.5-1.5-1.5s-1.5 0.67158-1.5 1.5v0.5h3z" fill="currentColor"/>
 </g>
 <g id="east-normal-topleft" transform="translate(3,-2)">
  <path d="m84 60h4v4h-4z" opacity=".001"/>
  <path class="ColorScheme-Text" d="m88 63.5c0-0.82843-0.67157-1.5-1.5-1.5s-1.5 0.67157-1.5 1.5v0.5h3z" fill="currentColor" opacity=".2"/>
 </g>
 <path id="west-focus-bottomleft" d="m0 111h4v4h-4z" opacity=".001"/>
 <path id="west-focus-center" d="m6 93v16h16v-16z" opacity=".001"/>
 <path id="west-focus-top" d="m5.9999 87v4h16v-4z" opacity=".001"/>
 <path id="west-focus-topleft" d="m0 87h4v4h-4z" opacity=".001"/>
 <path id="west-focus-left" d="m0 93h4v16h-4z" opacity=".001"/>
 <path id="west-focus-bottom" d="m5.9999 111h16v4h-16z" opacity=".001"/>
 <path id="west-minimized-center" d="m35 93v16h16v-16z" opacity=".001"/>
 <path id="west-minimized-bottom" d="m35 111h16v4h-16z" opacity=".001"/>
 <path id="west-hover-center" d="m64 93v16h16v-16z" opacity=".001"/>
 <path id="west-hover-bottom" d="m64 111h16v4h-16z" opacity=".001"/>
 <path id="west-normal-center" d="m93 93v16h16v-16z" opacity=".001"/>
 <path id="west-normal-bottom" d="m93 111h16v4h-16z" opacity=".001"/>
 <path id="west-progress-center" d="m122 93v16h16v-16z" opacity=".001"/>
 <path id="west-progress-bottom" d="m122 111h16v4h-16z" opacity=".001"/>
 <path id="west-attention-center" d="m151 93v16h16v-16z" opacity=".001"/>
 <path id="west-attention-bottom" d="m151 111h16v4h-16z" opacity=".001"/>
 <path id="west-minimized-top" d="m35 87v4h16v-4z" opacity=".001"/>
 <path id="west-hover-top" d="m64 87v4h16v-4z" opacity=".001"/>
 <path id="west-progress-top" d="m122 87v4h16v-4z" opacity=".001"/>
 <path id="west-attention-top" d="m151 87v4h16v-4z" opacity=".001"/>
 <path id="west-normal-top" d="m93 87v4h16v-4z" opacity=".001"/>
 <g id="west-attention-right" transform="matrix(-1 0 0 1 173 27)">
  <path d="m0 66h3.9999v16h-3.9999z" opacity=".001"/>
  <path class="ColorScheme-NeutralText" d="m4 66v16h-3v-16z" fill="currentColor"/>
 </g>
 <g id="west-progress-right" transform="matrix(-1 0 0 1 172 27)">
  <path d="m28 66h3.9999v16h-3.9999z" opacity=".001"/>
  <path class="ColorScheme-PositiveText" d="m32 66v16h-3v-16z" fill="currentColor"/>
 </g>
 <g id="west-normal-right" transform="matrix(-1 0 0 1 171 27)">
  <path d="m56 66h3.9999v16h-3.9999z" opacity=".001"/>
  <path class="ColorScheme-Text" d="m60 66v16h-3v-16z" fill="currentColor" opacity=".2"/>
 </g>
 <g id="west-minimized-right" transform="matrix(-1 0 0 1 169 27)">
  <path d="m112 66h3.9999v16h-3.9999z" opacity=".001"/>
  <path class="ColorScheme-Text" d="m116 66v16h-3v-16z" fill="currentColor" opacity=".2"/>
 </g>
 <g id="west-focus-right" transform="matrix(-1 0 0 1 168 27)">
  <path d="m140 66h3.9999v16h-3.9999z" opacity=".001"/>
  <path class="ColorScheme-Highlight" d="m144 66v16h-3v-16z" fill="currentColor"/>
 </g>
 <g id="west-hover-right" transform="matrix(-1 0 0 1 170 27)">
  <path d="m84 66h3.9999v16h-3.9999z" opacity=".001"/>
  <path class="ColorScheme-Highlight" d="m88 66v16h-3v-16z" fill="currentColor"/>
 </g>
 <g id="west-attention-bottomright" transform="matrix(-1 0 0 1 173 27)">
  <path d="m0 84h3.9999v4h-3.9999z" opacity=".001"/>
  <path class="ColorScheme-NeutralText" d="m4 84.5c0 0.82843-0.67157 1.5-1.5 1.5s-1.5-0.67157-1.5-1.5v-0.49998h3z" fill="currentColor"/>
 </g>
 <g id="west-progress-bottomright" transform="matrix(-1 0 0 1 172 27)">
  <path d="m28 84h3.9999v4h-3.9999z" opacity=".001"/>
  <path class="ColorScheme-PositiveText" d="m32 84.5c0 0.82843-0.67157 1.5-1.5 1.5s-1.5-0.67157-1.5-1.5v-0.49998h3z" fill="currentColor"/>
 </g>
 <g id="west-normal-bottomright" transform="matrix(-1 0 0 1 171 27)">
  <path d="m56 84h3.9999v4h-3.9999z" opacity=".001"/>
  <path class="ColorScheme-Text" d="m60 84.5c0 0.82843-0.67157 1.5-1.5 1.5s-1.5-0.67157-1.5-1.5v-0.49998h3z" fill="currentColor" opacity=".2"/>
 </g>
 <g id="west-minimized-bottomright" transform="matrix(-1 0 0 1 169 27)">
  <path d="m112 84h3.9999v4h-3.9999z" opacity=".001"/>
  <path class="ColorScheme-Text" d="m116 84.5c0 0.82843-0.67157 1.5-1.5 1.5s-1.5-0.67157-1.5-1.5v-0.49998h3z" fill="currentColor" opacity=".2"/>
 </g>
 <g id="west-focus-bottomright" transform="matrix(-1 0 0 1 168 27)">
  <path d="m140 84h3.9999v4h-3.9999z" opacity=".001"/>
  <path class="ColorScheme-Highlight" d="m144 84.5c0 0.82844-0.67157 1.5-1.5 1.5s-1.5-0.67156-1.5-1.5v-0.49998h3z" fill="currentColor"/>
 </g>
 <g id="west-hover-bottomright" transform="matrix(-1 0 0 1 170 27)">
  <path d="m84 84h3.9999v4h-3.9999z" opacity=".001"/>
  <path class="ColorScheme-Highlight" d="m88 84.5c0 0.82843-0.67157 1.5-1.5 1.5s-1.5-0.67157-1.5-1.5v-0.49998h3z" fill="currentColor"/>
 </g>
 <g id="west-attention-topright" transform="matrix(-1 0 0 1 173 27)">
  <path d="m0 60h3.9999v4h-3.9999z" opacity=".001"/>
  <path class="ColorScheme-NeutralText" d="m4 63.5c0-0.82843-0.67157-1.5-1.5-1.5s-1.5 0.67157-1.5 1.5v0.50002h3z" fill="currentColor"/>
 </g>
 <g id="west-progress-topright" transform="matrix(-1 0 0 1 172 27)">
  <path d="m28 60h3.9999v4h-3.9999z" opacity=".001"/>
  <path class="ColorScheme-PositiveText" d="m32 63.5c0-0.82843-0.67157-1.5-1.5-1.5s-1.5 0.67157-1.5 1.5v0.50002h3z" fill="currentColor"/>
 </g>
 <g id="west-normal-topright" transform="matrix(-1 0 0 1 171 27)">
  <path d="m56 60h3.9999v4h-3.9999z" opacity=".001"/>
  <path class="ColorScheme-Text" d="m60 63.5c0-0.82843-0.67157-1.5-1.5-1.5s-1.5 0.67157-1.5 1.5v0.50002h3z" fill="currentColor" opacity=".2"/>
 </g>
 <g id="west-minimized-topright" transform="matrix(-1 0 0 1 169 27)">
  <path d="m112 60h3.9999v4h-3.9999z" opacity=".001"/>
  <path class="ColorScheme-Text" d="m116 63.5c0-0.82843-0.67157-1.5-1.5-1.5s-1.5 0.67157-1.5 1.5v0.50002h3z" fill="currentColor" opacity=".2"/>
 </g>
 <g id="west-focus-topright" transform="matrix(-1 0 0 1 168 27)">
  <path d="m140 60h3.9999v4h-3.9999z" opacity=".001"/>
  <path class="ColorScheme-Highlight" d="m144 63.5c0-0.82842-0.67157-1.5-1.5-1.5s-1.5 0.67158-1.5 1.5v0.50002h3z" fill="currentColor"/>
 </g>
 <g id="west-hover-topright" transform="matrix(-1 0 0 1 170 27)">
  <path d="m84 60h3.9999v4h-3.9999z" opacity=".001"/>
  <path class="ColorScheme-Highlight" d="m88 63.5c0-0.82843-0.67157-1.5-1.5-1.5s-1.5 0.67157-1.5 1.5v0.50002h3z" fill="currentColor"/>
 </g>
 <path id="west-minimized-bottomleft" d="m29 111h4v4h-4z" opacity=".001"/>
 <path id="west-minimized-topleft" d="m29 87h4v4h-4z" opacity=".001"/>
 <path id="west-minimized-left" d="m29 93h4v16h-4z" opacity=".001"/>
 <path id="west-hover-bottomleft" d="m58 111h4v4h-4z" opacity=".001"/>
 <path id="west-hover-topleft" d="m58 87h4v4h-4z" opacity=".001"/>
 <path id="west-hover-left" d="m58 93h4v16h-4z" opacity=".001"/>
 <path id="west-normal-bottomleft" d="m87 111h4v4h-4z" opacity=".001"/>
 <path id="west-normal-topleft" d="m87 87h4v4h-4z" opacity=".001"/>
 <path id="west-normal-left" d="m87 93h4v16h-4z" opacity=".001"/>
 <path id="west-progress-bottomleft" d="m116 111h4v4h-4z" opacity=".001"/>
 <path id="west-progress-topleft" d="m116 87h4v4h-4z" opacity=".001"/>
 <path id="west-progress-left" d="m116 93h4v16h-4z" opacity=".001"/>
 <path id="west-attention-bottomleft" d="m145 111h4v4h-4z" opacity=".001"/>
 <path id="west-attention-topleft" d="m145 87h4v4h-4z" opacity=".001"/>
 <path id="west-attention-left" d="m145 93h4v16h-4z" opacity=".001"/>
 <g id="group-expander-bottom" transform="matrix(1.2222 0 0 1.2222 -80 -22.778)">
  <path d="m211.5 89a4.5 4.5 0 0 0-4.5 4.5 4.5 4.5 0 0 0 4.5 4.5 4.5 4.5 0 0 0 4.5-4.5 4.5 4.5 0 0 0-4.5-4.5z" opacity=".2"/>
  <path class="ColorScheme-Highlight" d="m211.5 89.818a3.6818 3.6818 0 0 0-3.6818 3.6818 3.6818 3.6818 0 0 0 3.6818 3.6818 3.6818 3.6818 0 0 0 3.6818-3.6818 3.6818 3.6818 0 0 0-3.6818-3.6818z" fill="currentColor"/>
  <path d="m211.08 91.455 9.7e-4 1.6306-1.6347 0.01145 7e-3 0.8079 1.6392 0.0091-6e-3 1.6343 0.8077-5e-3 7e-3 -1.6316 1.6395-2.7e-5v-0.81469h-1.6461l0.0204-1.6421z" fill="#fff"/>
 </g>
 <g id="group-expander-left" transform="matrix(1.2222 0 0 1.2222 -58 -22.778)">
  <path d="m211.5 89a4.5 4.5 0 0 0-4.5 4.5 4.5 4.5 0 0 0 4.5 4.5 4.5 4.5 0 0 0 4.5-4.5 4.5 4.5 0 0 0-4.5-4.5z" opacity=".2"/>
  <path class="ColorScheme-Highlight" d="m211.5 89.818a3.6818 3.6818 0 0 0-3.6818 3.6818 3.6818 3.6818 0 0 0 3.6818 3.6818 3.6818 3.6818 0 0 0 3.6818-3.6818 3.6818 3.6818 0 0 0-3.6818-3.6818z" fill="currentColor"/>
  <path d="m211.08 91.455 9.7e-4 1.6306-1.6347 0.01145 7e-3 0.8079 1.6392 0.0091-6e-3 1.6343 0.8077-5e-3 7e-3 -1.6316 1.6395-2.7e-5v-0.81469h-1.6461l0.0204-1.6421z" fill="#fff"/>
 </g>
 <g id="group-expander-top" transform="matrix(1.2222 0 0 1.2222 -80 -4.7778)">
  <path d="m211.5 89a4.5 4.5 0 0 0-4.5 4.5 4.5 4.5 0 0 0 4.5 4.5 4.5 4.5 0 0 0 4.5-4.5 4.5 4.5 0 0 0-4.5-4.5z" opacity=".2"/>
  <path class="ColorScheme-Highlight" d="m211.5 89.818a3.6818 3.6818 0 0 0-3.6818 3.6818 3.6818 3.6818 0 0 0 3.6818 3.6818 3.6818 3.6818 0 0 0 3.6818-3.6818 3.6818 3.6818 0 0 0-3.6818-3.6818z" fill="currentColor"/>
  <path d="m211.08 91.455 9.7e-4 1.6306-1.6347 0.01145 7e-3 0.8079 1.6392 0.0091-6e-3 1.6343 0.8077-5e-3 7e-3 -1.6316 1.6395-2.7e-5v-0.81469h-1.6461l0.0204-1.6421z" fill="#fff"/>
 </g>
 <g id="group-expander-right" transform="matrix(1.2222 0 0 1.2222 -58 -4.7778)">
  <path d="m211.5 89a4.5 4.5 0 0 0-4.5 4.5 4.5 4.5 0 0 0 4.5 4.5 4.5 4.5 0 0 0 4.5-4.5 4.5 4.5 0 0 0-4.5-4.5z" opacity=".2"/>
  <path class="ColorScheme-Highlight" d="m211.5 89.818a3.6818 3.6818 0 0 0-3.6818 3.6818 3.6818 3.6818 0 0 0 3.6818 3.6818 3.6818 3.6818 0 0 0 3.6818-3.6818 3.6818 3.6818 0 0 0-3.6818-3.6818z" fill="currentColor"/>
  <path d="m211.08 91.455 9.7e-4 1.6306-1.6347 0.01145 7e-3 0.8079 1.6392 0.0091-6e-3 1.6343 0.8077-5e-3 7e-3 -1.6316 1.6395-2.7e-5v-0.81469h-1.6461l0.0204-1.6421z" fill="#fff"/>
 </g>
</svg>
