<?xml version="1.0" encoding="UTF-8"?>
<svg width="257" height="161" version="1" xmlns="http://www.w3.org/2000/svg">
 <defs>
  <style id="current-color-scheme" type="text/css">.ColorScheme-Background {color:#2f343f; } .ColorScheme-ButtonBackground { color:#444a58; } .ColorScheme-Highlight { color:#5c87cc; } .ColorScheme-Text { color:#d3dae3; } .ColorScheme-NegativeText { color:#f44336; } .ColorScheme-PositiveText { color:#4caf50; } .ColorScheme-NeutralText { color:#ff9800; }</style>
 </defs>
 <g id="layer1" transform="translate(297,-432)">
  <rect id="hint-tile-center" x="-247.07" y="341.68" width="40" height="40" fill="#008000"/>
  <path id="selected-center" class="ColorScheme-Highlight" d="m-267 447.02v48h48v-48h-48z" fill="currentColor" opacity=".8"/>
  <g id="selected-left" transform="matrix(1 0 0 3.001 -457.14 -2043.4)">
   <path class="ColorScheme-Highlight" d="m186.14 829.86v16h4v-16h-4z" fill="currentColor" opacity=".8"/>
  </g>
  <g id="selected-topleft" transform="translate(-457.14 -382.86)">
   <path class="ColorScheme-Highlight" d="m186.14 829.86h4v-4h-1.4688c-1.405 0-2.5312 1.1159-2.5312 2.5312v1.4688z" fill="currentColor" opacity=".8"/>
  </g>
  <g id="selected-top" transform="matrix(.36658 0 0 1 -336.71 -382.84)">
   <path class="ColorScheme-Highlight" d="m190.14 825.86v4h131v-4h-131z" fill="currentColor" opacity=".8"/>
  </g>
  <g id="selected-topright" transform="translate(-540.14 -382.84)">
   <path class="ColorScheme-Highlight" d="m321.14 825.86v4h4v-1.4688c0-1.405-1.1159-2.5312-2.5312-2.5312h-1.4688z" fill="currentColor" opacity=".8"/>
  </g>
  <g id="selected-right" transform="matrix(1 0 0 3 -540.14 -2042.6)">
   <path class="ColorScheme-Highlight" d="m325.14 829.86v16h-4v-16h4z" fill="currentColor" opacity=".8"/>
  </g>
  <path id="normal-center" d="m-167 449.02v48h48v-48h-48z" opacity=".001"/>
  <g id="normal-bottom" transform="matrix(.36658 0 0 .5 -236.71 78.074)" opacity=".001">
   <path d="m190.13 845.86v4l130.98-0.0625v-3.9375h-130.98z" opacity=".001"/>
   <path d="m190.14 849.86v1h131v-1h-131z" opacity=".001"/>
   <path d="m190.14 848.86v1h131v-1z" opacity=".001"/>
   <rect transform="translate(-342.86 -17.143)" x="547" y="869" width="1" height="2" opacity=".001"/>
  </g>
  <g id="normal-bottomleft" transform="matrix(.57143 0 0 .5 -278.65 78.074)" opacity=".001">
   <path d="m188.67 850.86c-1.9482 0-3.5312-1.5884-3.5312-3.5312v-1.4688h1v1.4688c0 1.405 1.1159 2.5312 2.5312 2.5312h1.4688v1h-1.4688z" opacity=".001"/>
   <path d="m190.14 849.86v-4h-4v1.4688c0 1.405 1.1159 2.5312 2.5312 2.5312h1.4688z" opacity=".001"/>
   <path d="m188.74 849.86c-1.6608 0-2.6-1.1986-2.6-2.7v-1.3h1l-0.021 1.2937c-0.0208 1.2806 0.23073 1.7063 1.621 1.7063h1.4v1z" opacity=".001"/>
   <rect x="183.14" y="851.86" width="2" height="2" opacity=".001"/>
  </g>
  <g id="normal-left" transform="matrix(.57143 0 0 3.001 -278.65 -2041.4)" opacity=".001">
   <path d="m186.14 829.86v16h4v-16h-4z" opacity=".001"/>
   <path d="m185.14 829.86v16h1v-16h-1z" opacity=".001"/>
   <path d="m186.14 829.86v16h1v-16h-1z" opacity=".001"/>
   <rect x="183.14" y="834.86" width="2" height="3" opacity=".001"/>
  </g>
  <g id="normal-topleft" transform="matrix(.57143 0 0 .57143 -278.65 -25.206)" opacity=".001">
   <path d="m186.14 829.86h4v-4h-1.4688c-1.405 0-2.5312 1.1159-2.5312 2.5312v1.4688z" opacity=".001"/>
   <path d="m185.14 828.39c0-1.9482 1.5884-3.5312 3.5312-3.5312h1.4688v1h-1.4688c-1.405 0-2.5312 1.1159-2.5312 2.5312v1.4688h-1v-1.4688z" opacity=".001"/>
   <path d="m186.14 829.86h1v-1c0-1.4154 0.59498-2 2-2h1v-1h-1.4688c-1.405 0-2.5312 1.1159-2.5312 2.5312v1.4688z" opacity=".001"/>
   <rect x="183.14" y="822.86" width="2" height="2" opacity=".001"/>
  </g>
  <g id="normal-top" transform="matrix(.36658 0 0 .57143 -236.71 -25.191)" opacity=".001">
   <path d="m190.14 825.86v4h131v-4h-131z" opacity=".001"/>
   <path d="m190.14 824.86v1h131v-1h-131z" opacity=".001"/>
   <path d="m190.14 825.86v1h131v-1h-131z" opacity=".001"/>
   <rect x="200.14" y="822.86" width="3" height="2" opacity=".001"/>
  </g>
  <g id="normal-topright" transform="matrix(.57143 0 0 .57143 -302.51 -25.191)" opacity=".001">
   <path d="m321.14 825.86v4h4v-1.4688c0-1.405-1.1159-2.5312-2.5312-2.5312h-1.4688z" opacity=".001"/>
   <path d="m322.61 824.86c1.9482 0 3.5312 1.5884 3.5312 3.5312v1.4688h-1v-1.4688c0-1.405-1.1159-2.5312-2.5312-2.5312h-1.4688v-1h1.4688z" opacity=".001"/>
   <path d="m325.14 829.86h-1v-1c0-1.4154-0.59498-2-2-2h-1v-1h1.4688c1.405 0 2.5312 1.1159 2.5312 2.5312z" opacity=".001"/>
   <rect x="326.14" y="822.86" width="2" height="2" opacity=".001"/>
  </g>
  <g id="normal-right" transform="matrix(.57143 0 0 3 -302.51 -2040.6)" opacity=".001">
   <path d="m325.14 829.86v16h-4v-16h4z" opacity=".001"/>
   <path d="m326.14 829.86v16h-1v-16h1z" opacity=".001"/>
   <path d="m325.14 829.86v16h-1v-16h1z" opacity=".001"/>
   <rect x="326.14" y="832.86" width="2" height="3" opacity=".001"/>
  </g>
  <g id="normal-bottomright" transform="matrix(.57143 0 0 .5 -302.51 78.074)" opacity=".001">
   <path d="m325.14 845.86h-4v4h1.4688c1.405 0 2.5312-1.1159 2.5312-2.5312v-1.4688z" opacity=".001"/>
   <path d="m322.14 849.86c1.5971 0 3-0.57542 3-3v-1h-1v1c0 0.89359-0.31679 2-2 2h-1v1z" opacity=".001"/>
   <path d="m326.14 847.33c0 1.9482-1.5884 3.5312-3.5312 3.5312h-1.4688v-1h1.4688c1.405 0 2.5312-1.1159 2.5312-2.5312v-1.4688h1v1.4688z" opacity=".001"/>
   <rect x="326.14" y="851.86" width="2" height="2" opacity=".001"/>
  </g>
  <path id="hover-center" class="ColorScheme-Highlight" d="m-252 525.47v48h48v-48h-48z" fill="currentColor" opacity=".9"/>
  <g id="hover-left" transform="matrix(1 0 0 3.001 -442.14 -1964.9)">
   <path class="ColorScheme-Highlight" d="m186.14 829.86v16h4v-16h-4z" fill="currentColor" opacity=".9"/>
  </g>
  <g id="hover-topleft" transform="translate(-442.14 -304.39)">
   <path class="ColorScheme-Highlight" d="m186.14 829.86h4v-4h-1.4688c-1.405 0-2.5312 1.1159-2.5312 2.5312v1.4688z" fill="currentColor" opacity=".9"/>
  </g>
  <g id="hover-top" transform="matrix(.36658 0 0 1 -321.71 -304.39)">
   <path class="ColorScheme-Highlight" d="m190.14 825.86v4h131v-4h-131z" fill="currentColor" opacity=".9"/>
  </g>
  <g id="hover-topright" transform="translate(-525.14 -304.39)">
   <path class="ColorScheme-Highlight" d="m321.14 825.86v4h4v-1.4688c0-1.405-1.1159-2.5312-2.5312-2.5312h-1.4688z" fill="currentColor" opacity=".9"/>
  </g>
  <g id="hover-right" transform="matrix(1 0 0 3 -525.14 -1964.1)">
   <path class="ColorScheme-Highlight" d="m325.14 829.86v16h-4v-16h4z" fill="currentColor" opacity=".9"/>
  </g>
  <path id="selected+hover-center" class="ColorScheme-Highlight" d="m-147 525.26v48h48v-48h-48z" fill="currentColor"/>
  <g id="selected+hover-left" transform="matrix(1 0 0 3.001 -337.14 -1965.1)">
   <path class="ColorScheme-Highlight" d="m186.14 829.86v16h4v-16h-4z" fill="currentColor"/>
  </g>
  <g id="selected+hover-topleft" transform="translate(-337.14 -304.61)">
   <path class="ColorScheme-Highlight" d="m186.14 829.86h4v-4h-1.4688c-1.405 0-2.5312 1.1159-2.5312 2.5312v1.4688z" fill="currentColor"/>
  </g>
  <g id="selected+hover-top" transform="matrix(.36658 0 0 1 -216.71 -304.59)">
   <path class="ColorScheme-Highlight" d="m190.14 825.86v4h131v-4h-131z" fill="currentColor"/>
  </g>
  <g id="selected+hover-topright" transform="translate(-420.14 -304.59)">
   <path class="ColorScheme-Highlight" d="m321.14 825.86v4h4v-1.4688c0-1.405-1.1159-2.5312-2.5312-2.5312h-1.4688z" fill="currentColor"/>
  </g>
  <g id="selected+hover-right" transform="matrix(1 0 0 3 -420.14 -1964.3)">
   <path class="ColorScheme-Highlight" d="m325.14 829.86v16h-4v-16h4z" fill="currentColor"/>
  </g>
  <g id="selected-bottomright" transform="matrix(-1 0 0 -1 -28.857 1324.9)">
   <path class="ColorScheme-Highlight" d="m186.14 829.86h4v-4h-1.4688c-1.405 0-2.5312 1.1159-2.5312 2.5312v1.4688z" fill="currentColor" opacity=".8"/>
  </g>
  <g id="selected-bottom" transform="matrix(-.36658 0 0 -1 -149.28 1324.9)">
   <path class="ColorScheme-Highlight" d="m190.14 825.86v4h131v-4h-131z" fill="currentColor" opacity=".8"/>
  </g>
  <g id="selected-bottomleft" transform="matrix(-1 0 0 -1 54.143 1324.9)">
   <path class="ColorScheme-Highlight" d="m321.14 825.86v4h4v-1.4688c0-1.405-1.1159-2.5312-2.5312-2.5312h-1.4688z" fill="currentColor" opacity=".8"/>
  </g>
  <g id="hover-bottomright" transform="matrix(-1 0 0 -1 -13.857 1403.3)">
   <path class="ColorScheme-Highlight" d="m186.14 829.86h4v-4h-1.4688c-1.405 0-2.5312 1.1159-2.5312 2.5312v1.4688z" fill="currentColor" opacity=".9"/>
  </g>
  <g id="hover-bottom" transform="matrix(-.36658 0 0 -1 -134.28 1403.3)">
   <path class="ColorScheme-Highlight" d="m190.14 825.86v4h131v-4h-131z" fill="currentColor" opacity=".9"/>
  </g>
  <g id="hover-bottomleft" transform="matrix(-1 0 0 -1 69.143 1403.3)">
   <path class="ColorScheme-Highlight" d="m321.14 825.86v4h4v-1.4688c0-1.405-1.1159-2.5312-2.5312-2.5312h-1.4688z" fill="currentColor" opacity=".9"/>
  </g>
  <g id="selected_hover-bottomright" transform="matrix(-1 0 0 -1 91.143 1403.1)">
   <path class="ColorScheme-Highlight" d="m186.14 829.86h4v-4h-1.4688c-1.405 0-2.5312 1.1159-2.5312 2.5312v1.4688z" fill="currentColor"/>
  </g>
  <g id="selected_hover-bottom" transform="matrix(-.36658 0 0 -1 -29.276 1403.1)">
   <path class="ColorScheme-Highlight" d="m190.14 825.86v4h131v-4h-131z" fill="currentColor"/>
  </g>
  <g id="selected_hover-bottomleft" transform="matrix(-1 0 0 -1 174.14 1403.1)">
   <path class="ColorScheme-Highlight" d="m321.14 825.86v4h4v-1.4688c0-1.405-1.1159-2.5312-2.5312-2.5312h-1.4688z" fill="currentColor"/>
  </g>
 </g>
</svg>
