<?xml version="1.0" encoding="UTF-8"?>
<svg width="214" height="110" version="1" xmlns="http://www.w3.org/2000/svg" xmlns:xlink="http://www.w3.org/1999/xlink">
 <defs>
  <radialGradient id="radialGradient4263" cx="984" cy="905.36" r="8.5" gradientTransform="matrix(-1.4118 -9.8997e-6 9.8997e-6 -1.4118 1536.2 1371.2)" gradientUnits="userSpaceOnUse" xlink:href="#linearGradient4465"/>
  <linearGradient id="linearGradient4465">
   <stop stop-opacity=".5098" offset="0"/>
   <stop stop-opacity="0" offset="1"/>
  </linearGradient>
  <radialGradient id="radialGradient4255" cx="982.91" cy="906.45" r="8.5" gradientTransform="matrix(1.4118 5.5406e-6 -5.5406e-6 1.4118 -1190.6 -1236.7)" gradientUnits="userSpaceOnUse" xlink:href="#linearGradient4465"/>
  <linearGradient id="linearGradient4259" x1="83.6" x2="83.6" y1="-969.36" y2="-957.36" gradientTransform="matrix(.71429 0 0 1 127.29 919.42)" gradientUnits="userSpaceOnUse" xlink:href="#linearGradient4465"/>
  <linearGradient id="linearGradient4452" x1="-260" x2="-260" y1="281" y2="293" gradientTransform="translate(207.06 -93)" gradientUnits="userSpaceOnUse" xlink:href="#linearGradient4465"/>
  <radialGradient id="radialGradient3382" cx="984" cy="905.36" r="8.5" gradientTransform="matrix(7.8257e-6 1.4118 -1.4118 7.8257e-6 1475.2 -1296.2)" gradientUnits="userSpaceOnUse" xlink:href="#linearGradient4465"/>
  <radialGradient id="radialGradient4275" cx="984" cy="905.36" r="8.5" gradientTransform="matrix(-1.6187e-5 -1.4118 1.4118 -1.6187e-5 -1131.2 1432.2)" gradientUnits="userSpaceOnUse" xlink:href="#linearGradient4465"/>
  <linearGradient id="linearGradient4315" x1="83.6" x2="83.6" y1="-969.36" y2="-957.36" gradientTransform="matrix(.71429 0 0 1 -110.65 831.36)" gradientUnits="userSpaceOnUse" xlink:href="#linearGradient4465"/>
  <linearGradient id="linearGradient4317" x1="83.6" x2="83.6" y1="-969.36" y2="-957.36" gradientTransform="matrix(.71429 0 0 1 127.29 1069.3)" gradientUnits="userSpaceOnUse" xlink:href="#linearGradient4465"/>
  <style id="current-color-scheme" type="text/css">.ColorScheme-Background {color:#2f343f; } .ColorScheme-ButtonBackground { color:#444a58; } .ColorScheme-Highlight { color:#5c87cc; } .ColorScheme-Text { color:#d3dae3; } .ColorScheme-NegativeText { color:#f44336; } .ColorScheme-PositiveText { color:#4caf50; } .ColorScheme-NeutralText { color:#ff9800; }</style>
 </defs>
 <g id="shadow-right" transform="translate(9 -6.94)">
  <rect transform="rotate(-90)" x="-99.94" y="195" width="50" height="10" fill="url(#linearGradient4452)"/>
  <rect x="188" y="49.94" width="7" height="50" opacity=".001"/>
 </g>
 <g id="shadow-bottom" transform="translate(9 -6.94)">
  <rect x="138" y="106.94" width="50" height="10" fill="url(#linearGradient4317)"/>
  <rect transform="rotate(90)" x="99.94" y="-188" width="7" height="50" opacity=".001"/>
 </g>
 <g id="shadow-left" transform="translate(9 -6.94)">
  <rect transform="matrix(0,-1,-1,0,0,0)" x="-99.94" y="-131" width="50" height="10" fill="url(#linearGradient4315)"/>
  <rect x="131" y="49.94" width="7" height="50" opacity=".001"/>
 </g>
 <g id="shadow-top" transform="translate(9 -6.94)">
  <rect transform="scale(1,-1)" x="138" y="-42.94" width="50" height="10" fill="url(#linearGradient4259)"/>
  <rect transform="rotate(90)" x="42.94" y="-188" width="7" height="50" opacity=".001"/>
 </g>
 <rect id="center" class="ColorScheme-Background" x="7" y="52" width="50" height="50" fill="currentColor" opacity=".9"/>
 <g id="bottomleft" transform="translate(-10 35)">
  <path class="ColorScheme-Background" d="m17 74v-7h-7v2c0 2.77 2.23 5 5 5z" fill="currentColor" opacity=".9"/>
  <path d="m10 67v2c0 2.77 2.23 5 5 5h2v-1h-2c-2.2333 0-4-1.7667-4-4v-2z" opacity=".2"/>
 </g>
 <g id="left" transform="translate(-10 35)">
  <path class="ColorScheme-Background" d="m10 17v50l7 1e-5v-50z" fill="currentColor" opacity=".9"/>
  <path d="m10 17v50h1v-50z" opacity=".2"/>
 </g>
 <g id="right" transform="translate(-10 35)">
  <path class="ColorScheme-Background" d="m74 17v50l-7 1e-5v-50z" fill="currentColor" opacity=".9"/>
  <path d="m73 17v50h1v-50z" opacity=".2"/>
 </g>
 <g id="bottom" transform="translate(-10 35)">
  <path class="ColorScheme-Background" d="m17 74h50v-7h-50z" fill="currentColor" opacity=".9"/>
  <path d="m17 73v1h50v-1z" opacity=".2"/>
 </g>
 <g id="bottomright" transform="translate(-10 35)">
  <path class="ColorScheme-Background" d="m67 74v-7h7v2c0 2.77-2.23 5-5 5z" fill="currentColor" opacity=".9"/>
  <path d="m73 67v2c0 2.2333-1.7667 4-4 4h-2v1h2c2.77 0 5-2.23 5-5v-2z" opacity=".2"/>
 </g>
 <g id="top" transform="translate(-10 35)">
  <path class="ColorScheme-Background" d="m17 9.9999h50v7h-50z" fill="currentColor" opacity=".9"/>
  <path d="m17 10v1h50v-1z" opacity=".2"/>
 </g>
 <g id="topright" transform="translate(-10 35)">
  <path class="ColorScheme-Background" d="m67 9.9999v7h7v-2c0-2.77-2.23-5-5-5z" fill="currentColor" opacity=".9"/>
  <path d="m67 10v1h2c2.2333 0 4 1.7667 4 4v2h1v-2c0-2.77-2.23-5-5-5z" opacity=".2"/>
 </g>
 <g id="topleft" transform="translate(-10 35)">
  <path class="ColorScheme-Background" d="m17 9.9999v7h-7v-2c0-2.77 2.23-5 5-5z" fill="currentColor" opacity=".9"/>
  <path d="m15 10c-2.77 0-5 2.23-5 5v2h1v-2c0-2.2333 1.7667-4 4-4h2v-1z" opacity=".2"/>
 </g>
 <g id="shadow-center" transform="matrix(.80645 0 0 .80645 151.84 49.45)" opacity=".001">
  <path d="m-6-7.999v62h62v-62z"/>
 </g>
 <rect id="hint-top-margin" x="29" y="52" width="4" height="7" fill="#f00"/>
 <rect id="hint-bottom-margin" x="29" y="95" width="4" height="7" fill="#f00"/>
 <rect id="hint-left-margin" x="7" y="74" width="7" height="4" fill="#f00"/>
 <rect id="hint-right-margin" x="50" y="74" width="7" height="4" fill="#f00"/>
 <rect id="hint-tile-center" width="5" height="5" fill="#f00"/>
 <path id="shadow-topleft" d="m130 42.999h10v-2c0-2.77 2.23-5 5-5h2v-10h-17z" fill="url(#radialGradient4275)"/>
 <path id="shadow-bottomright" d="m214 92.999h-10v2c0 2.77-2.23 5-5 5h-2v10h17z" fill="url(#radialGradient3382)"/>
 <path id="shadow-topright" d="m197 25.999v10h2c2.77 0 5 2.23 5 5v2h10v-17z" fill="url(#radialGradient4255)"/>
 <path id="shadow-bottomleft" d="m147 110v-10h-2c-2.77 0-5-2.23-5-5v-2h-10v17z" fill="url(#radialGradient4263)"/>
 <rect id="shadow-hint-right-margin" x="204" y="66" width="10" height="4" fill="#f00"/>
 <rect id="shadow-hint-bottom-margin" x="170" y="100" width="4" height="10" fill="#f00"/>
 <rect id="shadow-hint-left-margin" x="130" y="66" width="10" height="4" fill="#f00"/>
 <rect id="shadow-hint-top-margin" x="171" y="26" width="4" height="10" fill="#f00"/>
 <rect id="mask-center" x="72" y="52" width="50" height="50"/>
 <path id="mask-topleft" d="m72 45v7h-7v-2c0-2.77 2.23-5 5-5z"/>
 <path id="mask-left" d="m65 52v50l7 1e-5v-50z"/>
 <path id="mask-right" d="m129 52v50l-7 1e-5v-50z"/>
 <path id="mask-bottomleft" d="m72 109v-7h-7v2c0 2.77 2.23 5 5 5z"/>
 <path id="mask-bottom" d="m72 109h50v-7h-50z"/>
 <path id="mask-bottomright" d="m122 109v-7h7v2c0 2.77-2.23 5-5 5z"/>
 <path id="mask-topright" d="m122 45v7h7v-2c0-2.77-2.23-5-5-5z"/>
 <path id="mask-top" d="m72 45h50v7h-50z"/>
</svg>
