<?xml version="1.0" encoding="UTF-8"?>
<svg width="66" height="66" version="1.1" xmlns="http://www.w3.org/2000/svg">
 <g id="add-normal" transform="translate(-13,-13)">
  <rect x="13" y="13" width="22" height="22" opacity=".001"/>
  <path transform="translate(13,79)" d="m10-60v4h-4v2h4v4h2v-4h4v-2h-4v-4z" fill="#fff"/>
 </g>
 <g id="remove-normal" transform="translate(-13,9)">
  <rect x="13" y="13" width="22" height="22" opacity=".001"/>
  <rect transform="rotate(90)" x="23" y="-29" width="2" height="10" fill="#fff"/>
 </g>
 <g id="add-hover" transform="translate(9,-13)">
  <rect x="13" y="13" width="22" height="22" opacity=".001"/>
  <path d="m34 24a10 10 0 0 1-10 10 10 10 0 0 1-10-10 10 10 0 0 1 10-10 10 10 0 0 1 10 10z" fill="#272a33"/>
  <path d="m33 24a9 9 0 0 1-9 9 9 9 0 0 1-9-9 9 9 0 0 1 9-9 9 9 0 0 1 9 9z" fill="#505666"/>
  <path transform="translate(-9,79)" d="m32-60v4h-4v2h4v4h2v-4h4v-2h-4v-4z" fill="#fff"/>
 </g>
 <g id="remove-hover" transform="translate(9,9)">
  <rect x="13" y="13" width="22" height="22" opacity=".001"/>
  <path d="m34 24a10 10 0 0 1-10 10 10 10 0 0 1-10-10 10 10 0 0 1 10-10 10 10 0 0 1 10 10z" fill="#272a33"/>
  <path d="m33 24a9 9 0 0 1-9 9 9 9 0 0 1-9-9 9 9 0 0 1 9-9 9 9 0 0 1 9 9z" fill="#505666"/>
  <rect transform="rotate(90)" x="23" y="-29" width="2" height="10" fill="#fff"/>
 </g>
 <g id="add-pressed" transform="translate(31,-13)">
  <rect x="13" y="13" width="22" height="22" opacity=".001"/>
  <path d="m34 24a10 10 0 0 1-10 10 10 10 0 0 1-10-10 10 10 0 0 1 10-10 10 10 0 0 1 10 10z" fill="#272a33"/>
  <path d="m33 24a9 9 0 0 1-9 9 9 9 0 0 1-9-9 9 9 0 0 1 9-9 9 9 0 0 1 9 9z" fill="#505666"/>
  <path transform="translate(-31,79)" d="m54-60v4h-4v2h4v4h2v-4h4v-2h-4v-4z" fill="#fff"/>
 </g>
 <g id="remove-pressed" transform="translate(31,9)">
  <rect x="13" y="13" width="22" height="22" opacity=".001"/>
  <path d="m34 24a10 10 0 0 1-10 10 10 10 0 0 1-10-10 10 10 0 0 1 10-10 10 10 0 0 1 10 10z" fill="#272a33"/>
  <path d="m33 24a9 9 0 0 1-9 9 9 9 0 0 1-9-9 9 9 0 0 1 9-9 9 9 0 0 1 9 9z" fill="#505666"/>
  <rect transform="rotate(90)" x="23" y="-29" width="2" height="10" fill="#fff"/>
 </g>
 <g id="open-hover">
  <rect x="22" y="44" width="22" height="22" opacity=".001"/>
  <path d="m43 55a10 10 0 0 1-10 10 10 10 0 0 1-10-10 10 10 0 0 1 10-10 10 10 0 0 1 10 10z" fill="#272a33"/>
  <path d="m42 55a9 9 0 0 1-9 9 9 9 0 0 1-9-9 9 9 0 0 1 9-9 9 9 0 0 1 9 9z" fill="#505666"/>
  <path d="m33 50-5 5h3v3.3333c0 0.92333 1.0767 1.6667 2 1.6667s2.0919-0.74792 2-1.6667v-3.3333h3z" fill="#fff"/>
 </g>
 <g id="open-pressed">
  <rect x="44" y="44" width="22" height="22" opacity=".001"/>
  <path d="m65 55a10 10 0 0 1-10 10 10 10 0 0 1-10-10 10 10 0 0 1 10-10 10 10 0 0 1 10 10z" fill="#272a33"/>
  <path d="m64 55a9 9 0 0 1-9 9 9 9 0 0 1-9-9 9 9 0 0 1 9-9 9 9 0 0 1 9 9z" fill="#505666"/>
  <path d="m55 50-5 5h3v3.3333c0 0.92333 1.0767 1.6667 2 1.6667s2.0919-0.74792 2-1.6667v-3.3333h3z" fill="#fff"/>
 </g>
 <g id="open-normal">
  <rect y="44" width="22" height="22" opacity=".001"/>
  <path d="m11 50-5 5h3v3.3333c0 0.92333 1.0767 1.6667 2 1.6667s2.0919-0.74792 2-1.6667v-3.3333h3z" fill="#fff"/>
 </g>
</svg>
