<?xml version="1.0" encoding="UTF-8"?>
<svg width="30" height="30" version="1.1" xmlns="http://www.w3.org/2000/svg">
 <rect id="hint-tile-center" width="4" height="4" fill="#ff2a2a"/>
 <rect id="hint-bar-size" x="6" width="6" height="6" fill="#ff2a2a"/>
 <path id="bar-inactive-bottomright" d="m17 15v3c1.662 0 3-1.338 3-3z" opacity=".2"/>
 <path id="bar-inactive-right" d="m17 12v2h3v-2z" opacity=".2"/>
 <path id="bar-inactive-topright" d="m17 8v3h3c0-1.662-1.338-3-3-3z" opacity=".2"/>
 <path id="bar-inactive-bottomleft" d="m10 15c0 1.662 1.338 3 3 3v-3z" opacity=".2"/>
 <path id="bar-inactive-left" d="m10 12v2h3v-2z" opacity=".2"/>
 <path id="bar-inactive-topleft" d="m13 8c-1.662 0-3 1.338-3 3h3z" opacity=".2"/>
 <path id="bar-inactive-bottom" d="m14 15v3h2v-3z" opacity=".2"/>
 <path id="bar-inactive-center" d="m16 12h-2v2h2z" opacity=".2"/>
 <path id="bar-inactive-top" d="m14 8v3h2v-3z" opacity=".2"/>
 <path id="bar-active-bottomright" d="m17 27v3c1.662 0 3-1.338 3-3z" fill="#5c87cc"/>
 <path id="bar-active-right" d="m17 24v2h3v-2z" fill="#5c87cc"/>
 <path id="bar-active-topright" d="m17 20v3h3c0-1.662-1.338-3-3-3z" fill="#5c87cc"/>
 <path id="bar-active-bottomleft" d="m10 27c0 1.662 1.338 3 3 3v-3z" fill="#5c87cc"/>
 <path id="bar-active-left" d="m10 24v2h3v-2z" fill="#5c87cc"/>
 <path id="bar-active-topleft" d="m13 20c-1.662 0-3 1.338-3 3h3z" fill="#5c87cc"/>
 <path id="bar-active-bottom" d="m14 27v3h2v-3z" fill="#5c87cc"/>
 <path id="bar-active-center" d="m16 24h-2v2h2z" fill="#5c87cc"/>
 <path id="bar-active-top" d="m14 20v3h2v-3z" fill="#5c87cc"/>
 <rect id="hint-stretch-borders" y="6" width="3" height="3" fill="#ff2a2a"/>
 <rect id="hint-bar-stretch" y="11" width="3" height="3" fill="#ff2a2a"/>
</svg>
