<?xml version="1.0" encoding="UTF-8"?>
<svg width="32" height="32" version="1.1" xmlns="http://www.w3.org/2000/svg">
 <rect id="hint-rotation-angle" y="32" width="32" height="32" fill="#00f"/>
 <g id="stopped">
  <rect x="32.01" y=".01" width="32" height="32" opacity=".001"/>
  <path d="m48 0c-8.8247 0-16 7.1753-16 16 0 8.8247 7.1753 16 16 16s16-7.1753 16-16c0-8.8247-7.1753-16-16-16zm0 2c7.7438 0 14 6.2562 14 14 0 7.7438-6.2562 14-14 14s-14-6.2562-14-14c0-7.7438 6.2562-14 14-14zm0 2c-6.6156-6e-7 -12 5.3844-12 12-1e-6 6.6156 5.3844 12 12 12 6.6156 1e-6 12-5.3844 12-12 1e-6 -6.6156-5.3844-12-12-12zm0 2c5.5347-5e-7 10 4.4653 10 10 1e-6 5.5347-4.4653 10-10 10-5.5347 1e-6 -10-4.4653-10-10-1e-6 -5.5347 4.4653-10 10-10z" fill="#282f39"/>
  <path d="m48 1a15 15 0 0 0-15 15 15 15 0 0 0 15 15 15 15 0 0 0 15-15 15 15 0 0 0-15-15zm0 4a11 11 0 0 1 11 11 11 11 0 0 1-11 11 11 11 0 0 1-11-11 11 11 0 0 1 11-11z" fill="#5c87cc"/>
 </g>
 <g id="busywidget">
  <rect x="-.03" y="-.03" width="32" height="32" opacity=".001"/>
  <path d="m16 0c-1.645 0-3 1.355-3 3v5c0 1.645 1.355 3 3 3s3-1.355 3-3v-5c0-1.645-1.355-3-3-3zm-9.1289 3.8066c-0.17692-0.0037985-0.35555 0.0089308-0.5332 0.037109h-0.0019531c-0.62494 0.09904-1.2027 0.39461-1.6504 0.8418-1.1648 1.1635-1.1648 3.0807 0 4.2441l3.5371 3.5352c1.1631 1.1629 3.079 1.1629 4.2422 0 1.1629-1.1631 1.1629-3.079 0-4.2422l-3.5352-3.5371c-0.55132-0.55106-1.2919-0.86245-2.0586-0.87891zm18.385 0c-0.17692-0.0037985-0.35555 0.0089307-0.5332 0.037109h-0.001953c-0.62494 0.099041-1.2027 0.39461-1.6504 0.8418l-3.5352 3.5371c-1.1629 1.1631-1.1629 3.079 0 4.2422 1.1631 1.1629 3.079 1.1629 4.2422 0l3.5371-3.5352c1.1648-1.1635 1.1648-3.0807 0-4.2441-0.55132-0.55106-1.2919-0.86245-2.0586-0.87891zm-22.256 9.1934c-1.645 0-3 1.355-3 3s1.355 3 3 3h5c1.645 0 3-1.355 3-3s-1.355-3-3-3h-5zm21 0c-1.645 0-3 1.355-3 3s1.355 3 3 3h5c1.645 0 3-1.355 3-3s-1.355-3-3-3h-5zm-13.77 5.6582c-0.11834 0.004449-0.23708 0.0164-0.35547 0.035156-0.62562 0.09877-1.2042 0.39419-1.6523 0.8418l-3.5371 3.5352c-1.1648 1.1635-1.1648 3.0807 0 4.2441 1.1635 1.1648 3.0807 1.1648 4.2441 0l3.5352-3.5371c1.1629-1.1631 1.1629-3.079 0-4.2422-0.59358-0.59307-1.406-0.9081-2.2344-0.87695zm11.312 0c-0.11834 0.004449-0.23708 0.0164-0.35547 0.035156-0.62562 0.09877-1.2042 0.39419-1.6523 0.8418-1.1629 1.1631-1.1629 3.079 0 4.2422l3.5352 3.5371c1.1635 1.1648 3.0807 1.1648 4.2441 0 1.1648-1.1635 1.1648-3.0807 0-4.2441l-3.5371-3.5352c-0.59358-0.59307-1.406-0.9081-2.2344-0.87695zm-5.543 2.3418c-1.645 0-3 1.355-3 3v5c0 1.645 1.355 3 3 3s3-1.355 3-3v-5c0-1.645-1.355-3-3-3z" fill="#282f39"/>
  <path d="m16 1a2 2 0 0 0-2 2v5a2 2 0 0 0 2 2 2 2 0 0 0 2-2v-5a2 2 0 0 0-2-2zm-9.5059 3.832a2 2 0 0 0-1.1016 0.56055 2 2 0 0 0 0 2.8301l3.5371 3.5352a2 2 0 0 0 2.8281 0 2 2 0 0 0 0-2.8281l-3.5352-3.5371a2 2 0 0 0-1.7285-0.56055zm18.385 0a2 2 0 0 0-1.1016 0.56055l-3.5352 3.5371a2 2 0 0 0 0 2.8281 2 2 0 0 0 2.8281 0l3.5371-3.5352a2 2 0 0 0 0-2.8301 2 2 0 0 0-1.7285-0.56055zm-21.879 9.168a2 2 0 0 0-2 2 2 2 0 0 0 2 2h5a2 2 0 0 0 2-2 2 2 0 0 0-2-2h-5zm21 0a2 2 0 0 0-2 2 2 2 0 0 0 2 2h5a2 2 0 0 0 2-2 2 2 0 0 0-2-2h-5zm-13.969 5.6816a2 2 0 0 0-1.1016 0.56055l-3.5371 3.5352a2 2 0 0 0 0 2.8301 2 2 0 0 0 2.8301 0l3.5352-3.5371a2 2 0 0 0 0-2.8281 2 2 0 0 0-1.7266-0.56055zm11.312 0a2 2 0 0 0-1.1016 0.56055 2 2 0 0 0 0 2.8281l3.5352 3.5371a2 2 0 0 0 2.8301 0 2 2 0 0 0 0-2.8301l-3.5371-3.5352a2 2 0 0 0-1.7266-0.56055zm-5.3438 2.3184a2 2 0 0 0-2 2v5a2 2 0 0 0 2 2 2 2 0 0 0 2-2v-5a2 2 0 0 0-2-2z" fill="#5c87cc"/>
 </g>
</svg>
