<?xml version="1.0" encoding="UTF-8"?>
<svg width="109" height="197" version="1" xmlns="http://www.w3.org/2000/svg">
 <g id="pressed-left" transform="matrix(-1 0 0 1 217 50)">
  <rect transform="scale(1,-1)" x="215" y="-145" width="1" height="35" fill="#5c87cc"/>
  <rect transform="scale(-1,1)" x="-217" y="110" width="1" height="35" opacity=".2"/>
 </g>
 <g id="pressed-topleft" transform="matrix(-1 0 0 1 217 50)">
  <path d="m215 107v3h1v-2c0-0.55228-0.44772-1-1-1z" fill="#5c87cc"/>
  <path d="m215 106c1.1046 0 2 0.89543 2 2v2h-1v-2c0-0.55228-0.44772-1-1-1z" opacity=".2"/>
 </g>
 <g id="pressed-bottomleft" transform="matrix(-1 0 0 1 217 50)">
  <path d="m215 145v1c0.55228 0 1-0.44772 1-1z" fill="#5c87cc"/>
  <path d="m215 147c1.1046 0 2-0.89543 2-2h-1c0 0.55228-0.44772 1-1 1z" opacity=".2"/>
 </g>
 <g id="pressed-bottom" transform="translate(-108 50)">
  <rect transform="scale(1,-1)" x="110" y="-146" width="105" height="1" fill="#5c87cc"/>
  <rect transform="scale(1,-1)" x="110" y="-147" width="105" height="1" opacity=".2"/>
 </g>
 <g id="pressed-right" transform="translate(-108 50)">
  <rect transform="scale(1,-1)" x="215" y="-145" width="1" height="35" fill="#5c87cc"/>
  <rect transform="scale(-1,1)" x="-217" y="110" width="1" height="35" opacity=".2"/>
 </g>
 <g id="pressed-top" transform="translate(-108 50)">
  <rect x="110" y="106" width="105" height="1" fill="#0c6395" opacity=".01"/>
  <g transform="matrix(1.9091 0 0 -1.5 1484.2 1324.4)">
   <rect x="-719.81" y="809.58" width="55" height="2" fill="#5c87cc"/>
  </g>
  <rect x="110" y="106" width="105" height="1" opacity=".2"/>
 </g>
 <g id="normal-topleft" transform="translate(721.81 -777.58)">
  <path d="m-719.81 777.58c-1.1046 0-2 0.89543-2 2h1c0-0.55228 0.44772-1 1-1z" opacity=".2"/>
  <path transform="matrix(-.5 0 0 -.5 -639.81 700.08)" d="m162-159a2 2 0 0 1-2 2v-2z" fill="#8f9eb7" opacity=".17"/>
 </g>
 <g id="normal-bottomleft" transform="translate(721.81 -773.58)">
  <path d="m-719.81 812.58c-1.1046 0-2-0.89543-2-2h1c0 0.55228 0.44772 1 1 1z" opacity=".2"/>
  <path transform="matrix(-.5 0 0 .5 -639.81 890.08)" d="m162-159a2 2 0 0 1-2 2v-2z" fill="#8f9eb7" opacity=".17"/>
 </g>
 <g id="normal-left" transform="matrix(1 0 0 1.6667 721.81 -1314)">
  <rect x="-721.81" y="789.58" width="1" height="21" opacity=".2"/>
  <rect x="-720.81" y="789.58" width="1" height="21" fill="#8f9eb7" opacity=".17"/>
 </g>
 <g id="normal-top" transform="matrix(1.9091 0 0 1 1376.2 -777.58)">
  <rect x="-719.81" y="777.58" width="55" height="1" opacity=".2"/>
  <rect x="-719.81" y="778.58" width="55" height="1" fill="#8f9eb7" opacity=".17"/>
 </g>
 <g id="normal-bottom" transform="matrix(1.9091 0 0 1 1376.2 -773.58)">
  <rect x="-719.81" y="811.58" width="55" height="1" opacity=".2"/>
  <rect x="-719.81" y="810.58" width="55" height="1" fill="#8f9eb7" opacity=".17"/>
 </g>
 <g id="normal-topright" transform="translate(771.81 -777.58)">
  <path transform="matrix(.5 0 0 -.5 -744.81 700.08)" d="m162-159a2 2 0 0 1-2 2v-2z" fill="#8f9eb7" opacity=".17"/>
  <path d="m-664.81 777.58c1.1046 0 2 0.89543 2 2h-1c0-0.55228-0.44772-1-1-1z" opacity=".2"/>
 </g>
 <g id="normal-bottomright" transform="translate(771.81 -773.58)">
  <path d="m-664.81 812.58c1.1046 0 2-0.89543 2-2h-1c0 0.55228-0.44772 1-1 1z" opacity=".2"/>
  <path transform="matrix(.5 0 0 .5 -744.81 890.08)" d="m162-159a2 2 0 0 1-2 2v-2z" fill="#8f9eb7" opacity=".17"/>
 </g>
 <g id="normal-right" transform="matrix(1 0 0 1.6667 771.81 -1314)">
  <rect transform="scale(-1,1)" x="662.81" y="789.58" width="1" height="21" opacity=".2"/>
  <rect x="-664.81" y="789.58" width="1" height="21" fill="#8f9eb7" opacity=".17"/>
 </g>
 <g id="normal-center" transform="translate(-108 50)">
  <rect x="110" y="-48" width="105" height="35" fill="#8f9eb7" opacity=".17"/>
 </g>
 <rect id="pressed-center" transform="scale(1,-1)" x="2" y="-195" width="105" height="35" fill="#5c87cc"/>
 <g id="hover-topleft" transform="translate(721.81 -721.58)">
  <path d="m-719.81 777.58c-1.1046 0-2 0.89543-2 2h1c0-0.55228 0.44772-1 1-1z" opacity=".1"/>
  <path transform="matrix(-.5 0 0 -.5 -639.81 700.08)" d="m162-159a2 2 0 0 1-2 2v-2z" fill="#fafcff" opacity=".07"/>
 </g>
 <g id="hover-bottomleft" transform="translate(721.81 -717.58)">
  <path d="m-719.81 812.58c-1.1046 0-2-0.89543-2-2h1c0 0.55228 0.44772 1 1 1z" opacity=".1"/>
  <path transform="matrix(-.5 0 0 .5 -639.81 890.08)" d="m162-159a2 2 0 0 1-2 2v-2z" fill="#fafcff" opacity=".07"/>
 </g>
 <g id="hover-left" transform="matrix(1 0 0 1.6667 721.81 -1258)">
  <rect x="-721.81" y="789.58" width="1" height="21" opacity=".1"/>
  <rect x="-720.81" y="789.58" width="1" height="21" fill="#fafcff" opacity=".07"/>
 </g>
 <g id="hover-top" transform="matrix(1.9091 0 0 1 1376.2 -721.58)">
  <rect x="-719.81" y="777.58" width="55" height="1" opacity=".1"/>
  <rect x="-719.81" y="778.58" width="55" height="1" fill="#fafcff" opacity=".07"/>
 </g>
 <g id="hover-bottom" transform="matrix(1.9091 0 0 1 1376.2 -717.58)">
  <rect x="-719.81" y="811.58" width="55" height="1" opacity=".1"/>
  <rect x="-719.81" y="810.58" width="55" height="1" fill="#fafcff" opacity=".07"/>
 </g>
 <g id="hover-topright" transform="translate(771.81 -721.58)">
  <path d="m-664.81 777.58c1.1046 0 2 0.89543 2 2h-1c0-0.55228-0.44772-1-1-1z" opacity=".1"/>
  <path transform="matrix(.5 0 0 -.5 -744.81 700.08)" d="m162-159a2 2 0 0 1-2 2v-2z" fill="#fafcff" opacity=".07"/>
 </g>
 <g id="hover-bottomright" transform="translate(771.81 -717.58)">
  <path d="m-664.81 812.58c1.1046 0 2-0.89543 2-2h-1c0 0.55228-0.44772 1-1 1z" opacity=".1"/>
  <path transform="matrix(.5 0 0 .5 -744.81 890.08)" d="m162-159a2 2 0 0 1-2 2v-2z" fill="#fafcff" opacity=".07"/>
 </g>
 <g id="hover-right" transform="matrix(1 0 0 1.6667 771.81 -1258)">
  <rect transform="scale(-1,1)" x="662.81" y="789.58" width="1" height="21" opacity=".1"/>
  <rect x="-664.81" y="789.58" width="1" height="21" fill="#fafcff" opacity=".07"/>
 </g>
 <rect id="hover-center" x="2" y="58" width="105" height="35" fill="#fafcff" opacity=".07"/>
 <g id="focus-topleft" transform="translate(721.81 -673.58)">
  <path d="m-719.81 777.58c-1.1046 0-2 0.89543-2 2h1c0-0.55228 0.44772-1 1-1z" opacity=".2"/>
  <path transform="matrix(-.5 0 0 -.5 -639.81 700.08)" d="m162-159a2 2 0 0 1-2 2v-2z" fill="#5c87cc"/>
 </g>
 <g id="focus-bottomleft" transform="translate(721.81 -669.58)">
  <path d="m-719.81 812.58c-1.1046 0-2-0.89543-2-2h1c0 0.55228 0.44772 1 1 1z" opacity=".2"/>
  <path transform="matrix(-.5 0 0 .5 -639.81 890.08)" d="m162-159a2 2 0 0 1-2 2v-2z" fill="#5c87cc"/>
 </g>
 <g id="focus-left" transform="matrix(1 0 0 1.6667 721.81 -1210)">
  <rect x="-721.81" y="789.58" width="1" height="21" opacity=".2"/>
  <rect x="-720.81" y="789.58" width="1" height="21" fill="#5c87cc"/>
 </g>
 <g id="focus-top" transform="matrix(1.9091 0 0 1 1376.2 -673.58)">
  <rect x="-719.81" y="777.58" width="55" height="1" opacity=".2"/>
  <rect x="-719.81" y="778.58" width="55" height="1" fill="#5c87cc"/>
 </g>
 <g id="focus-bottom" transform="matrix(1.9091 0 0 1 1376.2 -669.58)">
  <rect x="-719.81" y="811.58" width="55" height="1" opacity=".2"/>
  <rect x="-719.81" y="810.58" width="55" height="1" fill="#5c87cc"/>
 </g>
 <g id="focus-topright" transform="translate(771.81 -673.58)">
  <path d="m-664.81 777.58c1.1046 0 2 0.89543 2 2h-1c0-0.55228-0.44772-1-1-1z" opacity=".2"/>
  <path transform="matrix(.5 0 0 -.5 -744.81 700.08)" d="m162-159a2 2 0 0 1-2 2v-2z" fill="#5c87cc"/>
 </g>
 <g id="focus-bottomright" transform="translate(771.81 -669.58)">
  <path d="m-664.81 812.58c1.1046 0 2-0.89543 2-2h-1c0 0.55228-0.44772 1-1 1z" opacity=".2"/>
  <path transform="matrix(.5 0 0 .5 -744.81 890.08)" d="m162-159a2 2 0 0 1-2 2v-2z" fill="#5c87cc"/>
 </g>
 <g id="focus-right" transform="matrix(1 0 0 1.6667 771.81 -1210)">
  <rect transform="scale(-1,1)" x="662.81" y="789.58" width="1" height="21" opacity=".2"/>
  <rect x="-664.81" y="789.58" width="1" height="21" fill="#5c87cc"/>
 </g>
 <rect id="focus-center" x="2" y="106" width="105" height="35" fill="#5c87cc"/>
 <g id="pressed-topright" transform="translate(-108 50)">
  <path d="m215 107v3h1v-2c0-0.55228-0.44772-1-1-1z" fill="#5c87cc"/>
  <path d="m215 106c1.1046 0 2 0.89543 2 2v2h-1v-2c0-0.55228-0.44772-1-1-1z" opacity=".2"/>
 </g>
 <g id="pressed-bottomright" transform="translate(-108 50)">
  <path d="m215 145v1c0.55228 0 1-0.44772 1-1z" fill="#5c87cc"/>
  <path d="m215 147c1.1046 0 2-0.89543 2-2h-1c0 0.55228-0.44772 1-1 1z" opacity=".2"/>
 </g>
 <rect id="hover-hint-bottom-margin" x="53.5" y="94" width="2" height=".1" fill="#4e9a06"/>
 <rect id="hover-hint-top-margin" x="53.5" y="56.9" width="2" height=".1" fill="#4e9a06"/>
 <rect id="hover-hint-left-margin" transform="rotate(-90)" x="-76" y=".9" width="2" height=".1" fill="#4e9a06"/>
 <rect id="hover-hint-right-margin" transform="rotate(-90)" x="-76" y="108" width="2" height=".1" fill="#4e9a06"/>
 <rect id="focus-hint-bottom-margin" x="53.5" y="141.9" width="2" height=".1" fill="#4e9a06"/>
 <rect id="focus-hint-top-margin" x="53.5" y="104.8" width="2" height=".1" fill="#4e9a06"/>
 <rect id="focus-hint-left-margin" transform="rotate(-90)" x="-123.9" y=".9" width="2" height=".1" fill="#4e9a06"/>
 <rect id="focus-hint-right-margin" transform="rotate(-90)" x="-123.9" y="108" width="2" height=".1" fill="#4e9a06"/>
 <rect id="pressed-hint-top-margin" x="53.5" y="156" width="2" height="6" fill="#4e9a06"/>
 <rect id="pressed-hint-right-margin" transform="rotate(-90)" x="-178" y="103" width="2" height="6" fill="#4e9a06"/>
 <rect id="pressed-hint-left-margin" transform="rotate(-90)" x="-178" width="2" height="6" fill="#4e9a06"/>
 <rect id="pressed-hint-bottom-margin" x="53.5" y="191" width="2" height="6" fill="#4e9a06"/>
 <rect id="normal-hint-top-margin" x="53.5" width="2" height="6" fill="#4e9a06"/>
 <rect id="normal-hint-right-margin" transform="rotate(-90)" x="-20" y="103" width="2" height="6" fill="#4e9a06"/>
 <rect id="normal-hint-left-margin" transform="rotate(-90)" x="-20" width="2" height="6" fill="#4e9a06"/>
 <rect id="normal-hint-bottom-margin" x="53.5" y="33" width="2" height="6" fill="#4e9a06"/>
</svg>
