<?xml version="1.0" encoding="UTF-8"?>
<svg width="102" height="34" version="1.1" xmlns="http://www.w3.org/2000/svg">
 <path id="hover-center" d="m62 6v22h-22v-22z" fill="#fff" opacity=".05"/>
 <g id="hover-left" transform="translate(34)">
  <path d="m0 6h6v22h-6z" opacity=".001"/>
  <path d="m2 6h4v22h-4z" fill="#fff" opacity=".05"/>
 </g>
 <g id="hover-topleft" transform="translate(34)">
  <path d="m0 0h6v6h-6z" opacity=".001"/>
  <path d="m6 2v4h-4v-4z" fill="#fff" opacity=".05"/>
 </g>
 <g id="hover-right" transform="translate(34)">
  <path d="m28 6h6v22h-6z" opacity=".001"/>
  <path d="m28 6h4v22h-4z" fill="#fff" opacity=".05"/>
 </g>
 <g id="hover-top" transform="translate(34)">
  <path d="m28 0v6h-22v-6z" opacity=".001"/>
  <path d="m28 2v4h-22v-4z" fill="#fff" opacity=".05"/>
 </g>
 <g id="hover-bottom" transform="translate(34)">
  <path d="m28 28v6h-22v-6z" opacity=".001"/>
  <path d="m28 28v4h-22v-4z" fill="#fff" opacity=".05"/>
 </g>
 <g id="hover-bottomright" transform="translate(34)">
  <path d="m28 28h6v6h-6z" opacity=".001"/>
  <path d="m28 32v-4h4v4z" fill="#fff" opacity=".05"/>
 </g>
 <g id="hover-topright" transform="translate(34)">
  <path d="m28 0h6v6h-6z" opacity=".001"/>
  <path d="m28 2v4h4v-4z" fill="#fff" opacity=".05"/>
 </g>
 <g id="hover-bottomleft" transform="translate(34)">
  <path d="m0 28h6v6h-6z" opacity=".001"/>
  <path d="m6 32v-4h-4v4z" fill="#fff" opacity=".05"/>
 </g>
 <path id="normal-center" d="m28 6v22h-22v-22z" fill="transparent"/>
 <g id="normal-left">
  <path d="m0 6h6v22h-6z" opacity=".001"/>
  <path d="m2 6h4v22h-4z" fill="transparent"/>
 </g>
 <g id="normal-topleft">
  <path d="m0 0h6v6h-6z" opacity=".001"/>
  <path d="m2 2v4s0.015625 9.766e-4 0.044922 0h3.9551v-4h-0.044922-3.9551z" fill="transparent"/>
 </g>
 <g id="normal-right">
  <path d="m28 6h6v22h-6z" opacity=".001"/>
  <path d="m28 6h4v22h-4z" fill="transparent"/>
 </g>
 <g id="normal-top">
  <path d="m28 0v6h-22v-6z" opacity=".001"/>
  <path d="m28 2v4h-22v-4z" fill="transparent"/>
 </g>
 <g id="normal-bottom">
  <path d="m28 28v6h-22v-6z" opacity=".001"/>
  <path d="m28 28v4h-22v-4z" fill="transparent"/>
 </g>
 <g id="normal-bottomright">
  <path d="m28 28h6v6h-6z" opacity=".001"/>
  <path d="m28 28v4h0.044922 3.9551v-4h-0.044922-3.9551z" fill="transparent"/>
 </g>
 <g id="normal-topright">
  <path d="m28 0h6v6h-6z" opacity=".001"/>
  <path d="m28 2s-9.77e-4 0.015625 0 0.044922v3.9551h4v-4h-3.9551-0.044922z" fill="transparent"/>
 </g>
 <g id="normal-bottomleft">
  <path d="m0 28h6v6h-6z" opacity=".001"/>
  <path d="m2 28v4h3.9551 0.044922v-4h-3.9551c-0.029297-9.77e-4 -0.044922 0-0.044922 0z" fill="transparent"/>
 </g>
 <path id="pressed-center" d="m96 6v22h-22v-22z" fill="#5c87cc"/>
 <g id="pressed-left" transform="translate(68)">
  <path d="m0 6h6v22h-6z" opacity=".001"/>
  <path transform="translate(-68)" d="m70 6v22h1 3v-22h-3-1z" fill="#5c87cc"/>
 </g>
 <g id="pressed-topleft" transform="translate(68)">
  <path d="m0 0h6v6h-6z" opacity=".001"/>
  <path transform="translate(-68)" d="m70 2v4h1 3v-3-1h-4z" fill="#5c87cc"/>
 </g>
 <g id="pressed-right" transform="translate(68)">
  <path d="m28 6h6v22h-6z" opacity=".001"/>
  <path transform="translate(-68)" d="m96 6v22h3 1v-22h-1-3z" fill="#5c87cc"/>
 </g>
 <g id="pressed-top" transform="translate(68)">
  <path d="m28 0v6h-22v-6z" opacity=".001"/>
  <path transform="translate(-68)" d="m74 2v1 3h22v-3-1h-22z" fill="#5c87cc"/>
 </g>
 <g id="pressed-bottom" transform="translate(68)">
  <path d="m28 28v6h-22v-6z" opacity=".001"/>
  <path transform="translate(-68)" d="m74 28v3 1h22v-1-3h-22z" fill="#5c87cc"/>
 </g>
 <g id="pressed-bottomright" transform="translate(68)">
  <path d="m28 28h6v6h-6z" opacity=".001"/>
  <path transform="translate(-68)" d="m96 28v3 1h4v-4h-1-3z" fill="#5c87cc"/>
 </g>
 <g id="pressed-topright" transform="translate(68)">
  <path d="m28 0h6v6h-6z" opacity=".001"/>
  <path transform="translate(-68)" d="m96 2v1 3h3 1v-4h-4z" fill="#5c87cc"/>
 </g>
 <g id="pressed-bottomleft" transform="translate(68)">
  <path d="m0 28h6v6h-6z" opacity=".001"/>
  <path transform="translate(-68)" d="m70 28v4h4v-1-3h-3-1z" fill="#5c87cc"/>
 </g>
 <path id="normal-hint-top-margin" d="m16 0h2v6h-2z" fill="#f00"/>
 <path id="normal-hint-bottom-margin" d="m16 28h2v6h-2z" fill="#f00"/>
 <path id="normal-hint-left-margin" d="m0 16h6v2h-6z" fill="#f00"/>
 <path id="normal-hint-right-margin" d="m28 16h6v2h-6z" fill="#f00"/>
 <path id="hover-hint-top-margin" d="m50 0h2v6h-2z" fill="#f00"/>
 <path id="hover-hint-bottom-margin" d="m50 28h2v6h-2z" fill="#f00"/>
 <path id="hover-hint-left-margin" d="m34 16h6v2h-6z" fill="#f00"/>
 <path id="hover-hint-right-margin" d="m62 16h6v2h-6z" fill="#f00"/>
 <path id="pressed-hint-top-margin" d="m84 0h2v6h-2z" fill="#f00"/>
 <path id="pressed-hint-bottom-margin" d="m84 28h2v6h-2z" fill="#f00"/>
 <path id="pressed-hint-left-margin" d="m68 16h6v2h-6z" fill="#f00"/>
 <path id="pressed-hint-right-margin" d="m96 16h6v2h-6z" fill="#f00"/>
 <rect id="hint-stretch-borders" width="2" height="2" fill="#f00"/>
</svg>
