<?xml version="1.0" encoding="UTF-8"?>
<svg width="15.344" height="23" version="1" xmlns="http://www.w3.org/2000/svg">
 <path id="normal-left" d="m9.5e-6 1v5h1v-5h-1z" fill="#4b5165"/>
 <path id="normal-right" d="m13 1v5h-1v-5h1z" fill="#4b5165"/>
 <rect id="normal-bottom" x="1" y="6" width="11" height="1" fill="#4b5165"/>
 <path id="normal-top" d="m1 0v1h11v-1h-11z" fill="#4b5165"/>
 <path id="hover-left" d="m9.5e-6 9v5h1v-5h-1z" fill="#5c87cc"/>
 <path id="hover-right" d="m13 9v5h-1v-5h1z" fill="#5c87cc"/>
 <path id="hover-top" d="m1 8v0.99875h11v-0.99875h-11z" fill="#5c87cc"/>
 <path id="active-left" d="m0 17v5h1v-5h-1z" fill="#5c87cc"/>
 <path id="active-right" d="m13 17v5h-1v-5h1z" fill="#5c87cc"/>
 <rect id="active-bottom" x="1" y="22" width="11" height="1.001" fill="#5c87cc"/>
 <path id="active-top" d="m1 16v1h11v-1h-11z" fill="#5c87cc"/>
 <rect id="normal-center" transform="scale(1,-1)" x="1" y="-6" width="11" height="5" fill="#4b5165"/>
 <rect id="active-center" transform="scale(1,-1)" x="1" y="-22" width="11" height="5" fill="#5c87cc"/>
 <rect id="hover-center" transform="scale(1,-1)" x="1" y="-14" width="11" height="5" fill="#5c87cc"/>
 <g id="hover-bottom" transform="matrix(2.2 0 0 .99875 -1.2 -2.4469)">
  <rect x="1" y="16.47" width="5" height="1.001" fill="#5c87cc"/>
 </g>
 <path id="hover-bottomleft" d="m9.5e-6 14c0 0.55228 0.44772 1 1 1v-1h-1z" fill="#5c87cc"/>
 <path id="hover-topleft" d="m9.5e-6 9c0-0.55228 0.44772-1 1-1v1h-1z" fill="#5c87cc"/>
 <path id="hover-topright" d="m13 9c0-0.55228-0.44772-1-1-1v1h1z" fill="#5c87cc"/>
 <path id="hover-bottomright" d="m13 14c0 0.55228-0.44772 1-1 1v-1h1z" fill="#5c87cc"/>
 <path id="normal-bottomleft" d="m9.5e-6 6c0 0.55228 0.44772 1 1 1v-1h-1z" fill="#4b5165"/>
 <path id="normal-topleft" d="m9.5e-6 1c0-0.55228 0.44772-1 1-1v1h-1z" fill="#4b5165"/>
 <path id="normal-topright" d="m13 1c0-0.55228-0.44772-1-1-1v1h1z" fill="#4b5165"/>
 <path id="normal-bottomright" d="m13 6c0 0.55228-0.44772 1-1 1v-1h1z" fill="#4b5165"/>
 <path id="active-bottomleft" d="m9.5e-6 22c0 0.55228 0.44772 1 1 1v-1h-1z" fill="#5c87cc"/>
 <path id="active-topleft" d="m9.5e-6 17c0-0.55228 0.44772-1 1-1v1h-1z" fill="#5c87cc"/>
 <path id="active-topright" d="m13 17c0-0.55228-0.44772-1-1-1v1h1z" fill="#5c87cc"/>
 <path id="active-bottomright" d="m13 22c0 0.55228-0.44772 1-1 1v-1h1z" fill="#5c87cc"/>
</svg>
