<?xml version="1.0" encoding="UTF-8"?>
<svg width="205" height="210.94" version="1" xmlns="http://www.w3.org/2000/svg" xmlns:xlink="http://www.w3.org/1999/xlink">
 <defs>
  <radialGradient id="radialGradient4263" cx="984" cy="905.36" r="8.5" gradientTransform="matrix(-1.4118 -9.8997e-6 9.8997e-6 -1.4118 1527.2 1378.1)" gradientUnits="userSpaceOnUse" xlink:href="#linearGradient4465"/>
  <linearGradient id="linearGradient4465">
   <stop stop-opacity=".5098" offset="0"/>
   <stop stop-opacity="0" offset="1"/>
  </linearGradient>
  <linearGradient id="linearGradient4259" x1="83.6" x2="83.6" y1="-969.36" y2="-957.36" gradientTransform="matrix(.71429 0 0 1 127.29 919.42)" gradientUnits="userSpaceOnUse" xlink:href="#linearGradient4465"/>
  <radialGradient id="radialGradient3382" cx="984" cy="905.36" r="8.5" gradientTransform="matrix(7.8257e-6 1.4118 -1.4118 7.8257e-6 1466.2 -1289.3)" gradientUnits="userSpaceOnUse" xlink:href="#linearGradient4465"/>
  <linearGradient id="linearGradient4452" x1="-260" x2="-260" y1="281" y2="293" gradientTransform="translate(207.06 -93)" gradientUnits="userSpaceOnUse" xlink:href="#linearGradient4465"/>
  <radialGradient id="radialGradient4255" cx="982.91" cy="906.45" r="8.5" gradientTransform="matrix(1.4118 5.5406e-6 -5.5406e-6 1.4118 -1199.6 -1229.8)" gradientUnits="userSpaceOnUse" xlink:href="#linearGradient4465"/>
  <radialGradient id="radialGradient4275" cx="984" cy="905.36" r="8.5" gradientTransform="matrix(-1.6187e-5 -1.4118 1.4118 -1.6187e-5 -1140.2 1439.1)" gradientUnits="userSpaceOnUse" xlink:href="#linearGradient4465"/>
  <linearGradient id="linearGradient4385" x1="83.6" x2="83.6" y1="-969.36" y2="-957.36" gradientTransform="matrix(.71429 0 0 1 -110.65 831.36)" gradientUnits="userSpaceOnUse" xlink:href="#linearGradient4465"/>
  <linearGradient id="linearGradient4387" x1="83.6" x2="83.6" y1="-969.36" y2="-957.36" gradientTransform="matrix(.71429 0 0 1 127.29 1069.3)" gradientUnits="userSpaceOnUse" xlink:href="#linearGradient4465"/>
 </defs>
 <rect id="center" x="7" y="51.94" width="50" height="50" fill="#252a35" opacity=".9"/>
 <g id="bottomleft" transform="translate(-10 34.939)">
  <path d="m17 74v-7h-7v2c0 2.77 2.23 5 5 5z" fill="#252a35" opacity=".9"/>
  <path d="m10 67v2c0 2.77 2.23 5 5 5h2v-1h-2c-2.2333 0-4-1.7667-4-4v-2h-1z" opacity=".2"/>
 </g>
 <g id="left" transform="translate(-10 34.939)">
  <path d="m10 17v50l7 1e-5v-50z" fill="#252a35" opacity=".9"/>
  <path d="m10 17v50h1v-50h-1z" opacity=".2"/>
 </g>
 <g id="right" transform="translate(-10 34.939)">
  <path d="m74 17v50l-7 1e-5v-50z" fill="#252a35" opacity=".9"/>
  <path d="m73 17v50h1v-50h-1z" opacity=".2"/>
 </g>
 <g id="bottom" transform="translate(-10 34.939)">
  <path d="m17 74h50v-7h-50z" fill="#252a35" opacity=".9"/>
  <path d="m17 73v1h50v-1h-50z" opacity=".2"/>
 </g>
 <g id="bottomright" transform="translate(-10 34.939)">
  <path d="m67 74v-7h7v2c0 2.77-2.23 5-5 5z" fill="#252a35" opacity=".9"/>
  <path d="m73 67v2c0 2.2333-1.7667 4-4 4h-2v1h2c2.77 0 5-2.23 5-5v-2h-1z" opacity=".2"/>
 </g>
 <g id="top" transform="translate(-10 34.939)">
  <path d="m17 9.9999h50v7h-50z" fill="#252a35" opacity=".9"/>
  <path d="m17 10v1h50v-1h-50z" opacity=".2"/>
 </g>
 <g id="topright" transform="translate(-10 34.939)">
  <path d="m67 9.9999v7h7v-2c0-2.77-2.23-5-5-5z" fill="#252a35" opacity=".9"/>
  <path d="m67 10v1h2c2.2333 0 4 1.7667 4 4v2h1v-2c0-2.77-2.23-5-5-5h-2z" opacity=".2"/>
 </g>
 <g id="topleft" transform="translate(-10 34.939)">
  <path d="m17 9.9999v7h-7v-2c0-2.77 2.23-5 5-5z" fill="#252a35" opacity=".9"/>
  <path d="m15 10c-2.77 0-5 2.23-5 5v2h1v-2c0-2.2333 1.7667-4 4-4h2v-1h-2z" opacity=".2"/>
 </g>
 <path id="shadow-topleft" d="m121 49.939h10v-2c0-2.77 2.23-5 5-5h2v-10h-17z" fill="url(#radialGradient4275)"/>
 <path id="shadow-bottomright" d="m205 99.939h-10v2c0 2.77-2.23 5-5 5h-2v10h17z" fill="url(#radialGradient3382)"/>
 <path id="shadow-topright" d="m188 32.939v10h2c2.77 0 5 2.23 5 5v2h10v-17z" fill="url(#radialGradient4255)"/>
 <path id="shadow-bottomleft" d="m138 116.94v-10h-2c-2.77 0-5-2.23-5-5v-2h-10v17z" fill="url(#radialGradient4263)"/>
 <g id="shadow-center" transform="matrix(.80645 0 0 .80645 142.84 56.39)">
  <path d="m-6-7.999v62h62v-62z" opacity=".001"/>
 </g>
 <rect id="shadow-hint-right-margin" x="195" y="72.94" width="10" height="4" fill="#f0f"/>
 <rect id="shadow-hint-bottom-margin" x="161" y="106.94" width="4" height="10" fill="#f0f"/>
 <rect id="shadow-hint-left-margin" x="121" y="72.94" width="10" height="4" fill="#f0f"/>
 <rect id="shadow-hint-top-margin" x="162" y="32.94" width="4" height="10" fill="#f0f"/>
 <rect id="thick-hint-top-margin" x="29" y="44.94" width="4" height="7" fill="#f00"/>
 <rect id="hint-top-margin" x="29" y="44.94" width="4" height="2" fill="#f0f"/>
 <rect id="shadow-hint-top-inset" x="157" y="106.94" width="4" height="10" fill="#0f0"/>
 <rect id="shadow-hint-bottom-inset" x="158" y="32.94" width="4" height="10" fill="#0f0"/>
 <rect id="shadow-hint-right-inset" transform="rotate(90)" x="68.94" y="-205" width="4" height="10" fill="#0f0"/>
 <rect id="shadow-hint-left-inset" transform="rotate(90)" x="68.94" y="-131" width="4" height="10" fill="#0f0"/>
 <rect id="thick-hint-bottom-margin" x="29" y="101.94" width="4" height="7" fill="#f00"/>
 <rect id="hint-bottom-margin" x="29" y="106.94" width="4" height="2" fill="#f0f"/>
 <rect id="thick-hint-left-margin" transform="rotate(90)" x="72.94" y="-7" width="4" height="7" fill="#f00"/>
 <rect id="hint-left-margin" y="72.94" width="2" height="4" fill="#f0f"/>
 <rect id="thick-hint-right-margin" transform="rotate(90)" x="72.94" y="-64" width="4" height="7" fill="#f00"/>
 <rect id="hint-right-margin" x="62" y="72.94" width="2" height="4" fill="#f0f"/>
 <rect id="hint-tile-center" y="-.06" width="5" height="5" fill="#f60"/>
 <rect id="mask-center" x="70" y="144.94" width="50" height="50"/>
 <path id="mask-topleft" d="m70 137.94v7h-7v-2c0-2.77 2.23-5 5-5z"/>
 <path id="mask-left" d="m63 144.94v50l7 1e-5v-50z"/>
 <path id="mask-right" d="m127 144.94v50l-7 1e-5v-50z"/>
 <path id="mask-bottomleft" d="m70 201.94v-7h-7v2c0 2.77 2.23 5 5 5z"/>
 <path id="mask-bottom" d="m70 201.94h50v-7h-50z"/>
 <path id="mask-bottomright" d="m120 201.94v-7h7v2c0 2.77-2.23 5-5 5z"/>
 <path id="mask-topright" d="m120 137.94v7h7v-2c0-2.77-2.23-5-5-5z"/>
 <path id="mask-top" d="m70 137.94h50v7h-50z"/>
 <rect id="thick-center" x="5" y="-.06" width="5" height="5" fill="#800080"/>
 <g id="shadow-left">
  <rect transform="matrix(0,-1,-1,0,0,0)" x="-99.94" y="-131" width="50" height="10" fill="url(#linearGradient4385)"/>
  <rect x="131" y="49.94" width="7" height="50" opacity=".001"/>
 </g>
 <g id="shadow-top">
  <rect transform="scale(1,-1)" x="138" y="-42.94" width="50" height="10" fill="url(#linearGradient4259)"/>
  <rect transform="rotate(90)" x="42.94" y="-188" width="7" height="50" opacity=".001"/>
 </g>
 <g id="shadow-bottom">
  <rect x="138" y="106.94" width="50" height="10" fill="url(#linearGradient4387)"/>
  <rect transform="rotate(90)" x="99.94" y="-188" width="7" height="50" opacity=".001"/>
 </g>
 <g id="shadow-right">
  <rect transform="rotate(-90)" x="-99.94" y="195" width="50" height="10" fill="url(#linearGradient4452)"/>
  <rect x="188" y="49.94" width="7" height="50" opacity=".001"/>
 </g>
</svg>
