<?xml version="1.0" encoding="UTF-8"?>
<svg width="128" height="128" version="1" xmlns="http://www.w3.org/2000/svg">
 <path id="groove-top" d="m10 7v3h3v-3h-3z" opacity=".2"/>
 <rect id="hint-tile-center" x="2.26" y="4.66" width="2.033" height="2.077" rx="0" ry="2.077" fill="#4e9a06"/>
 <path id="groove-bottom" d="m10 18v-3h3v3h-3z" opacity=".2"/>
 <path id="groove-center" d="m10 11v3h3v-3h-3z" opacity=".2"/>
 <path id="groove-highlight-top" d="m28 7v3h3v-3h-3z" fill="#5c87cc"/>
 <path id="groove-highlight-bottom" d="m28 18v-3h3v3h-3z" fill="#5c87cc"/>
 <path id="groove-highlight-center" d="m28 11v3h3v-3h-3z" fill="#5c87cc"/>
 <g id="horizontal-slider-handle" transform="matrix(1.2,0,0,1.2,-2.2,63.2)">
  <path transform="matrix(.83333 0 0 .83333 -5.6667 -6)" d="m16 44h20v20h-20z" opacity=".001"/>
  <path transform="matrix(2.0833 0 0 2.0833 -13.167 -44.333)" d="m18 40a4 4 0 0 1-4 4 4 4 0 0 1-4-4 4 4 0 0 1 4-4 4 4 0 0 1 4 4z" fill="#272a33"/>
  <path transform="matrix(1.875,0,0,1.875,-10.25,-36)" d="m18 40a4 4 0 0 1-4 4 4 4 0 0 1-4-4 4 4 0 0 1 4-4 4 4 0 0 1 4 4z" fill="#444a58"/>
 </g>
 <g id="vertical-slider-handle" transform="matrix(1.2,0,0,1.2,-2.2,27.2)">
  <path transform="matrix(.83333 0 0 .83333 -5.6667 -6)" d="m16 44h20v20h-20z" opacity=".001"/>
  <path transform="matrix(2.0833 0 0 2.0833 -13.167 -44.333)" d="m18 40a4 4 0 0 1-4 4 4 4 0 0 1-4-4 4 4 0 0 1 4-4 4 4 0 0 1 4 4z" fill="#272a33"/>
  <path transform="matrix(1.875,0,0,1.875,-10.25,-36)" d="m18 40a4 4 0 0 1-4 4 4 4 0 0 1-4-4 4 4 0 0 1 4-4 4 4 0 0 1 4 4z" fill="#444a58"/>
 </g>
 <g id="horizontal-slider-shadow" opacity=".01">
  <path d="m98 100h20v20h-20z" opacity=".001"/>
 </g>
 <g id="vertical-slider-shadow" transform="translate(3,-36)" opacity=".01">
  <path d="m98 100h20v20h-20z" opacity=".001"/>
 </g>
 <g id="horizontal-slider-hover" transform="matrix(1.2,0,0,1.2,27.8,63.2)">
  <path transform="matrix(.83333 0 0 .83333 -5.6667 -6)" d="m16 44h20v20h-20z" opacity=".001"/>
  <circle transform="matrix(2.0833 0 0 2.0833 -13.167 -44.333)" cx="14" cy="40" r="4" fill="#272a33"/>
  <circle transform="matrix(1.875,0,0,1.875,-10.25,-36)" cx="14" cy="40" r="4" fill="#414857"/>
 </g>
 <g id="vertical-slider-hover" transform="matrix(1.2,0,0,1.2,27.8,27.2)">
  <path transform="matrix(.83333 0 0 .83333 -5.6667 -6)" d="m16 44h20v20h-20z" opacity=".001"/>
  <circle transform="matrix(2.0833 0 0 2.0833 -13.167 -44.333)" cx="14" cy="40" r="4" fill="#272a33"/>
  <circle transform="matrix(1.875,0,0,1.875,-10.25,-36)" cx="14" cy="40" r="4" fill="#414857"/>
 </g>
 <g id="horizontal-slider-focus" transform="matrix(1.2,0,0,1.2,57.8,63.2)">
  <path transform="matrix(.83333 0 0 .83333 -5.6667 -6)" d="m16 44h20v20h-20z" opacity=".001"/>
  <circle transform="matrix(2.0833 0 0 2.0833 -13.167 -44.333)" cx="14" cy="40" r="4" fill="#5c87cc"/>
 </g>
 <g id="vertical-slider-focus" transform="matrix(1.2,0,0,1.2,57.8,27.2)">
  <path transform="matrix(.83333 0 0 .83333 -5.6667 -6)" d="m16 44h20v20h-20z" opacity=".001"/>
  <circle transform="matrix(2.0833 0 0 2.0833 -13.167 -44.333)" cx="14" cy="40" r="4" fill="#5c87cc"/>
 </g>
 <circle id="hint-size" cx="87" cy="16" r="10" fill="#f00"/>
 <g id="groove-topleft" transform="translate(0,14)">
  <path d="m9-7c-1.6822 0-3 1.3178-3 3h3z" opacity=".2"/>
 </g>
 <g id="groove-left" transform="translate(0,14)">
  <path d="m6-3v3h3v-3z" opacity=".2"/>
 </g>
 <g id="groove-bottomleft" transform="translate(0,14)">
  <path d="m9 4c-1.6822 0-3-1.3178-3-3h3z" opacity=".2"/>
 </g>
 <g id="groove-topright" transform="translate(0,14)">
  <path d="m17-4c0-1.6822-1.3178-3-3-3v3z" opacity=".2"/>
 </g>
 <g id="groove-right" transform="translate(0,14)">
  <path d="m14-3v3h3v-3z" opacity=".2"/>
 </g>
 <g id="groove-bottomright" transform="translate(0,14)">
  <path d="m17 1c0 1.6822-1.3178 3-3 3v-3z" opacity=".2"/>
 </g>
 <g id="groove-highlight-topleft" transform="translate(0,14)">
  <path d="m27-7c-1.6822 0-3 1.3178-3 3h3z" fill="#5c87cc"/>
 </g>
 <g id="groove-highlight-left" transform="translate(0,14)">
  <path d="m24-3v3h3v-3z" fill="#5c87cc"/>
 </g>
 <g id="groove-highlight-bottomleft" transform="translate(0,14)">
  <path d="m27 4c-1.6822 0-3-1.3178-3-3h3z" fill="#5c87cc"/>
 </g>
 <g id="groove-highlight-topright" transform="translate(0,14)">
  <path d="m35-4c0-1.6822-1.3178-3-3-3v3z" fill="#5c87cc"/>
 </g>
 <g id="groove-highlight-right" transform="translate(0,14)">
  <path d="m32-3v3h3v-3z" fill="#5c87cc"/>
 </g>
 <g id="groove-highlight-bottomright" transform="translate(0,14)">
  <path d="m35 1c0 1.6822-1.3178 3-3 3v-3z" fill="#5c87cc"/>
 </g>
</svg>
