<?xml version="1.0" encoding="UTF-8"?>
<svg width="90" height="55" version="1.0" xmlns="http://www.w3.org/2000/svg">
 <g id="handle-shadow" transform="matrix(1.1 0 0 1.1 112.3 35.101)">
  <rect x="-42.09" y="-1.91" width="20" height="20" opacity=".001"/>
 </g>
 <path id="groove-bottomright" d="m20 20v10c10 0 10-10 10-10z" fill="#4b5165"/>
 <path id="groove-right" d="m20 10v10h10v-10z" fill="#4b5165"/>
 <path id="groove-topright" d="m20-1.5e-7v10h10c0-10-10-10-10-10z" fill="#4b5165"/>
 <path id="groove-bottomleft" d="m1e-6 20s0 10 10 10v-10z" fill="#4b5165"/>
 <path id="groove-left" d="m1e-6 10v10h10v-10z" fill="#4b5165"/>
 <path id="groove-topleft" d="m10-1.5e-7s-10 0-10 10h10z" fill="#4b5165"/>
 <path id="groove-bottom" d="m10 20v10h10v-10z" fill="#4b5165"/>
 <path id="groove-center" d="m20 10h-10v10h10z" fill="#4b5165"/>
 <path id="groove-top" d="m10-1.5e-7v10h10v-10z" fill="#4b5165"/>
 <path id="groove-highlight-bottomright" d="m50 20v10c10 0 10-10 10-10z" fill="#5c87cc"/>
 <path id="groove-highlight-right" d="m50 10v10h10v-10z" fill="#5c87cc"/>
 <path id="groove-highlight-topright" d="m50 0v10h10s0-10-10-10z" fill="#5c87cc"/>
 <path id="groove-highlight-bottomleft" d="m30 20s0 10 10 10v-10z" fill="#5c87cc"/>
 <path id="groove-highlight-left" d="m30 10v10h10v-10z" fill="#5c87cc"/>
 <path id="groove-highlight-topleft" d="m40 0c-10 0-10 10-10 10h10z" fill="#5c87cc"/>
 <path id="groove-highlight-bottom" d="m40 20v10h10v-10z" fill="#5c87cc"/>
 <path id="groove-highlight-center" d="m50 10h-10v10h10z" fill="#5c87cc"/>
 <path id="groove-highlight-top" d="m40 0v10h10v-10z" fill="#5c87cc"/>
 <rect id="hint-handle-size" x="66" y="7" width="20" height="20" fill="#f00"/>
 <g id="handle" transform="matrix(1.1 0 0 1.1 46.299 35.101)">
  <rect x="-42.09" y="-1.91" width="20" height="20" opacity=".001"/>
  <path d="m-23.454 8.09a8.6364 8.6364 0 0 1-8.6364 8.6364 8.6364 8.6364 0 0 1-8.6364-8.6364 8.6364 8.6364 0 0 1 8.6364-8.6364 8.6364 8.6364 0 0 1 8.6364 8.6364z" fill="#353a47"/>
 </g>
 <g id="handle-hover" transform="matrix(1.1 0 0 1.1 68.299 35.101)">
  <rect x="-42.09" y="-1.91" width="20" height="20" opacity=".001"/>
  <path transform="matrix(.90909 0 0 .90909 -62.09 -31.91)" d="m33 34.5a9.5 9.5 0 0 0-9.5 9.5 9.5 9.5 0 0 0 9.5 9.5 9.5 9.5 0 0 0 9.5-9.5 9.5 9.5 0 0 0-9.5-9.5z" fill="#353a47"/>
 </g>
 <g id="handle-focus" transform="matrix(1.1 0 0 1.1 90.299 35.101)">
  <rect x="-42.09" y="-1.91" width="20" height="20" opacity=".001"/>
  <path transform="matrix(.90909 0 0 .90909 -82.09 -31.91)" d="m55 34.5a9.5 9.5 0 0 0-9.5 9.5 9.5 9.5 0 0 0 9.5 9.5 9.5 9.5 0 0 0 9.5-9.5 9.5 9.5 0 0 0-9.5-9.5z" fill="#353a47"/>
 </g>
</svg>
