<?xml version="1.0" encoding="UTF-8"?>
<svg id="svg4379" width="128" height="128" version="1.1" viewBox="0 0 128 128" xmlns="http://www.w3.org/2000/svg" xmlns:xlink="http://www.w3.org/1999/xlink">
 <defs id="defs4381">
  <radialGradient id="radialGradient4275" cx="984" cy="905.36" r="8.5" gradientTransform="matrix(-2.7364e-5 -2.3865 2.3866 -2.7364e-5 -2139 3294.5)" gradientUnits="userSpaceOnUse" xlink:href="#linearGradient4465"/>
  <linearGradient id="linearGradient4465">
   <stop id="stop4467" stop-opacity=".5098" offset="0"/>
   <stop id="stop4469" stop-opacity="0" offset="1"/>
  </linearGradient>
  <linearGradient id="linearGradient4385" x1="83.6" x2="83.6" y1="-969.36" y2="-957.36" gradientTransform="matrix(.71429 0 0 1 -317.71 1250.4)" gradientUnits="userSpaceOnUse" xlink:href="#linearGradient4465"/>
  <radialGradient id="radialGradient3382" cx="984" cy="905.36" r="8.5" gradientTransform="matrix(1.3229e-5 2.3866 -2.3866 1.3229e-5 2266.9 -1317.8)" gradientUnits="userSpaceOnUse" xlink:href="#linearGradient4465"/>
  <linearGradient id="linearGradient4452" x1="-260" x2="-260" y1="281" y2="293" gradientUnits="userSpaceOnUse" xlink:href="#linearGradient4465"/>
  <radialGradient id="radialGradient4255" cx="982.91" cy="906.45" r="8.5" gradientTransform="matrix(2.3865 9.3663e-6 -9.3663e-6 2.3865 -2239.5 -1217.2)" gradientUnits="userSpaceOnUse" xlink:href="#linearGradient4465"/>
  <radialGradient id="radialGradient4263" cx="984" cy="905.36" r="8.5" gradientTransform="matrix(-2.3866 -1.6735e-5 1.6735e-5 -2.3865 2370.1 3191.3)" gradientUnits="userSpaceOnUse" xlink:href="#linearGradient4465"/>
  <filter id="filter5226" x="-.03" y="-.02" width="1.049" height="1.047" color-interpolation-filters="sRGB">
   <feGaussianBlur id="feGaussianBlur5228" stdDeviation=".82"/>
  </filter>
 </defs>
 <g id="layer1" transform="translate(0 -924.36)">
  <path id="shadow-topleft" d="m-7 946.1h16.905v-3.381c0-4.6826 3.7698-8.4524 8.4524-8.4524h3.381v-16.905h-28.738z" fill="url(#radialGradient4275)"/>
  <g id="shadow-left" transform="matrix(-1.6905 0 0 1.6905 496.76 511.65)">
   <rect id="rect4267" transform="rotate(-90)" x="-307" y="288" width="50" height="10" fill="url(#linearGradient4385)"/>
   <rect id="rect4269" transform="translate(3,2)" x="278" y="257" width="7" height="1" fill-opacity="0"/>
  </g>
  <path id="shadow-bottomright" d="m135 1030.6h-16.905v3.3809c0 4.6826-3.7698 8.4524-8.4524 8.4524h-3.381v16.905h28.738z" fill="url(#radialGradient3382)"/>
  <g id="shadow-bottom" transform="matrix(0 1.6905 -1.6905 0 540.71 555.6)">
   <rect id="rect3389" transform="rotate(-90)" x="-307" y="288" width="50" height="10" fill="url(#linearGradient4385)"/>
   <rect id="rect4241" transform="translate(3,2)" x="278" y="257" width="7" height="1" fill-opacity="0"/>
  </g>
  <g id="shadow-right" transform="matrix(1.6905 0 0 1.6905 -368.76 511.65)">
   <rect id="rect4251" transform="rotate(-90)" x="-307" y="288" width="50" height="10" fill="url(#linearGradient4452)"/>
   <rect id="rect4253" transform="translate(3,2)" x="278" y="257" width="7" height="1" fill-opacity="0"/>
  </g>
  <g id="shadow-top" transform="matrix(0 -1.6905 -1.6905 0 540.71 1421.1)">
   <rect id="rect4279" transform="rotate(-90)" x="-307" y="288" width="50" height="10" fill="url(#linearGradient4385)"/>
   <rect id="rect4281" transform="translate(3,2)" x="278" y="257" width="7" height="1" fill-opacity="0"/>
  </g>
  <path id="shadow-topright" d="m106.26 917.36v16.905h3.381c4.6826 0 8.4524 3.7698 8.4524 8.4524v3.381h16.905v-28.738z" fill="url(#radialGradient4255)"/>
  <path id="shadow-bottomleft" d="m21.738 1059.4v-16.905h-3.381c-4.6826 0-8.4524-3.7698-8.4524-8.4524v-3.3809h-16.905v28.738z" fill="url(#radialGradient4263)"/>
  <path id="center" d="m17.594 932.36c-4.7609 0-8.5944 3.8335-8.5944 8.5944v3.4374 85.936 3.4373c0 4.7609 3.8335 8.5945 8.5944 8.5945h3.4374 85.936 3.4374c4.7609 0 8.5944-3.8336 8.5944-8.5945v-3.4373-85.936-3.4374c0-4.7609-3.8335-8.5944-8.5944-8.5944h-3.4374-85.936-3.4374z" fill="#252a35" opacity=".95"/>
  <rect id="rect5188" x="129.65" y="945.68" width="96" height="96" opacity="0"/>
  <path id="path5220" d="m71.996 948.36-16 2.4219v57.875l16-4.2969v-22.359l16 26.359 16-6-20-24 20.008-25.992-15.523-4.0078-16.484 26.234zm-32.578 15.695c-0.37837 0-0.75675 0.14737-1.0469 0.4375l-6.2891 6.2891c-0.58027 0.58026-0.44058 1.4092 0 2.1016l6.5078 10.219c-0.48217 1.0009-0.89969 2.0316-1.25 3.0859-0.0154 0.0454-0.0396 0.0874-0.0547 0.1328l-11.805 2.625c-0.80109 0.17806-1.4844 0.66377-1.4844 1.4844v3.9297 3.9297c0 0.82062 0.68329 1.3064 1.4844 1.4844l11.805 2.6251c0.0258 0.078 0.0671 0.1492 0.0937 0.2265 0.34098 1.0242 0.74541 2.0261 1.2109 3l-6.5078 10.211c-0.44058 0.6923-0.58027 1.5213 0 2.1016l6.2891 6.289c0.58027 0.5803 1.5135 0.5803 2.0938 0l10.203-6.5c1.003 0.4878 2.0364 0.9106 3.0938 1.2657 0.0694 0.024 0.13356 0.062 0.20312 0.086l2.6172 11.797c0 0.8206 0.66376 1.4843 1.4844 1.4843h8.8828c0.82062 0 1.3064-0.6833 1.4844-1.4843l2.6172-12.156c1.2024-0.452 2.3697-0.9926 3.4922-1.6172l9.9609 7.125c0.58027 0.5803 1.5135 0.5803 2.0938 0l6.2891-6.289c0.58027-0.5803 0.44057-1.4093 0-2.1016l-3.7891-5.75-0.39844 0.1484c-0.90101 0.3384-1.9153-0.013-2.4141-0.8359l-3.9844-6.5625c-3.3198 7.9408-11.16 13.524-20.305 13.524-12.15 0-22-9.8498-22-22 0-9.3237 5.8112-17.273 14-20.477v-4.3828l-0.0312 0.14064c-0.0883 0.03-0.1698 0.0783-0.2578 0.10936-1.0433 0.34648-2.0636 0.75876-3.0547 1.2344l-10.188-6.4922c-0.29014-0.29013-0.66851-0.4375-1.0469-0.4375z" filter="url(#filter5226)" opacity=".2"/>
  <path id="path5196" d="m71.996 946.36-16 2.4219v57.875l16-4.2969v-22.359l16 26.359 16-6-20-24 20.008-25.992-15.523-4.0078-16.484 26.234zm-32.578 15.695c-0.37837 0-0.75675 0.14737-1.0469 0.4375l-6.2891 6.2891c-0.58027 0.58026-0.44058 1.4092 0 2.1016l6.5078 10.219c-0.48217 1.0009-0.89969 2.0316-1.25 3.0859-0.0154 0.0454-0.0396 0.0874-0.0547 0.1328l-11.805 2.625c-0.80109 0.17806-1.4844 0.66377-1.4844 1.4844v3.9297 3.9297c0 0.82062 0.68329 1.3064 1.4844 1.4844l11.805 2.625c0.0258 0.078 0.0671 0.1492 0.0937 0.2265 0.34098 1.0242 0.74541 2.0261 1.2109 3l-6.5078 10.211c-0.44058 0.6923-0.58027 1.5213 0 2.1016l6.2891 6.289c0.58027 0.5803 1.5135 0.5803 2.0938 0l10.203-6.5c1.003 0.4878 2.0364 0.9106 3.0938 1.2657 0.0694 0.024 0.13356 0.062 0.20312 0.086l2.6172 11.797c0 0.8206 0.66376 1.4843 1.4844 1.4843h8.8828c0.82062 0 1.3064-0.6833 1.4844-1.4843l2.6172-12.156c1.2024-0.452 2.3697-0.9926 3.4922-1.6172l9.9609 7.125c0.58027 0.5803 1.5135 0.5803 2.0938 0l6.2891-6.289c0.58027-0.5803 0.44057-1.4093 0-2.1016l-3.7891-5.75-0.39844 0.1484c-0.90101 0.3384-1.9153-0.013-2.4141-0.8359l-3.9844-6.5625c-3.3198 7.9408-11.16 13.524-20.305 13.524-12.15 0-22-9.8498-22-22 0-9.3237 5.8112-17.273 14-20.477v-4.3828l-0.0312 0.14064c-0.0883 0.03-0.1698 0.0783-0.2578 0.10936-1.0433 0.34648-2.0636 0.75876-3.0547 1.2344l-10.188-6.4922c-0.29014-0.29013-0.66851-0.4375-1.0469-0.4375z" fill="#d3dae3"/>
  <path id="path4256" transform="translate(0 924.36)" d="m17.594 8c-4.7609 0-8.5938 3.8328-8.5938 8.5938v3.4375 85.938 3.4375c0 4.7609 3.8329 8.5938 8.5938 8.5938h3.4375 85.938 3.4375c4.7609 0 8.5938-3.8328 8.5938-8.5938v-3.4375-85.938-3.4375c0-4.7609-3.8329-8.5938-8.5938-8.5938h-3.4375-85.938-3.4375zm0 1h3.4375 85.938 3.4375c4.2241 0 7.5938 3.3716 7.5938 7.5957v3.4375 85.936 3.4375c0 4.2241-3.3697 7.5938-7.5938 7.5938h-3.4375-85.938-3.4375c-4.2241 0-7.5938-3.3696-7.5938-7.5938v-3.4375-85.936-3.4375c0-4.2241 3.3697-7.5957 7.5938-7.5957z" color="#000000" color-rendering="auto" image-rendering="auto" opacity=".2" shape-rendering="auto" solid-color="#000000" style="block-progression:tb;isolation:auto;mix-blend-mode:normal;text-decoration-color:#000000;text-decoration-line:none;text-decoration-style:solid;text-indent:0;text-transform:none;white-space:normal"/>
 </g>
</svg>
