<?xml version="1.0" encoding="UTF-8"?>
<svg width="129" height="71" version="1" xmlns="http://www.w3.org/2000/svg">
 <rect id="center" x="7" y="13" width="50" height="50" fill="#353945"/>
 <g id="bottomleft" transform="translate(-10 -4.0001)">
  <path d="m17 74v-7h-7v2c0 2.77 2.23 5 5 5z" fill="#353945"/>
  <path d="m10 67v2c0 2.77 2.23 5 5 5h2v-1h-2c-2.2333 0-4-1.7667-4-4v-2z" opacity=".2"/>
 </g>
 <g id="left" transform="translate(-10 -4.0001)">
  <path d="m10 17v50l7 1e-5v-50z" fill="#353945"/>
  <path d="m10 17v50h1v-50z" opacity=".2"/>
 </g>
 <g id="right" transform="translate(-10 -4.0001)">
  <path d="m74 17v50l-7 1e-5v-50z" fill="#353945"/>
  <path d="m73 17v50h1v-50z" opacity=".2"/>
 </g>
 <g id="bottom" transform="translate(-10 -4.0001)">
  <path d="m17 74h50v-7h-50z" fill="#353945"/>
  <path d="m17 73v1h50v-1z" opacity=".2"/>
 </g>
 <g id="bottomright" transform="translate(-10 -4.0001)">
  <path d="m67 74v-7h7v2c0 2.77-2.23 5-5 5z" fill="#353945"/>
  <path d="m73 67v2c0 2.2333-1.7667 4-4 4h-2v1h2c2.77 0 5-2.23 5-5v-2z" opacity=".2"/>
 </g>
 <g id="top" transform="translate(-10 -4.0001)">
  <path d="m17 9.9999h50v7h-50z" fill="#353945"/>
  <path d="m17 10v1h50v-1z" opacity=".2"/>
 </g>
 <g id="topright" transform="translate(-10 -4.0001)">
  <path d="m67 9.9999v7h7v-2c0-2.77-2.23-5-5-5z" fill="#353945"/>
  <path d="m67 10v1h2c2.2333 0 4 1.7667 4 4v2h1v-2c0-2.77-2.23-5-5-5z" opacity=".2"/>
 </g>
 <g id="topleft" transform="translate(-10 -4.0001)">
  <path d="m17 9.9999v7h-7v-2c0-2.77 2.23-5 5-5z" fill="#353945"/>
  <path d="m15 10c-2.77 0-5 2.23-5 5v2h1v-2c0-2.2333 1.7667-4 4-4h2v-1z" opacity=".2"/>
 </g>
 <rect id="hint-top-margin" x="29" y="13" width="4" height="7" fill="#f00"/>
 <rect id="hint-bottom-margin" x="29" y="56" width="4" height="7" fill="#f00"/>
 <rect id="hint-left-margin" x="7" y="35" width="7" height="4" fill="#f00"/>
 <rect id="hint-right-margin" x="50" y="35" width="7" height="4" fill="#f00"/>
 <rect id="hint-tile-center" y="-1" width="5" height="5" fill="#f00"/>
 <rect id="mask-center" x="72" y="13" width="50" height="50"/>
 <path id="mask-topleft" d="m72 5.9998v7h-7v-2c0-2.77 2.23-5 5-5z"/>
 <path id="mask-left" d="m65 13v50l7 1e-5v-50z"/>
 <path id="mask-right" d="m129 13v50l-7 1e-5v-50z"/>
 <path id="mask-bottomleft" d="m72 70v-7h-7v2c0 2.77 2.23 5 5 5z"/>
 <path id="mask-bottom" d="m72 70h50v-7h-50z"/>
 <path id="mask-bottomright" d="m122 70v-7h7v2c0 2.77-2.23 5-5 5z"/>
 <path id="mask-topright" d="m122 5.9998v7h7v-2c0-2.77-2.23-5-5-5z"/>
 <path id="mask-top" d="m72 5.9998h50v7h-50z"/>
</svg>
