<?xml version="1.0" encoding="UTF-8"?>
<svg width="32" height="32" version="1.1" xmlns="http://www.w3.org/2000/svg">
 <g id="22-22-image-x-generic" transform="translate(27,5)">
  <rect x="5" y="5" width="22" height="22" opacity=".001"/>
  <path d="m9.1429 9c-1.1429 0-1.1429 1.1667-1.1429 1.1667v11.667c0 1.1667 1.1429 1.1667 1.1429 1.1667h13.714s1.1429 0 1.1429-1.1667v-11.667c0-1.1667-1.1429-1.1667-1.1429-1.1667zm4.3571 5 3.7 4 2.8-2 2 2.695v2.305h-12v-3.25z" fill="#d3dae3"/>
 </g>
 <g id="image-x-generic">
  <rect width="32" height="32" opacity=".001"/>
  <path d="m5.7143 5c-1.7143 0-1.7143 1.75-1.7143 1.75v17.5c0 1.75 1.7143 1.75 1.7143 1.75h20.571s1.7143 0 1.7143-1.75v-17.5c0-1.75-1.7143-1.75-1.7143-1.75zm6.2857 7.5 6 6 4-3 3 4.0425v3.4575h-18v-4.875z" fill="#d3dae3"/>
 </g>
</svg>
