<?xml version="1.0" encoding="UTF-8"?>
<svg width="32" height="32" version="1" xmlns="http://www.w3.org/2000/svg">
 <g id="22-22-internet-web-browser" transform="translate(27 5)">
  <rect x="5" y="5" width="22" height="22" opacity=".001"/>
  <path d="m16 8c-4.42 0-8 3.58-8 8s3.58 8 8 8 8-3.58 8-8-3.58-8-8-8zm4.86 3.14-3.25 6.47-6.47 3.25 3.25-6.47zm-4.86 4c-0.47 0-0.86 0.39-0.86 0.86s0.39 0.86 0.86 0.86 0.86-0.39 0.86-0.86-0.39-0.86-0.86-0.86z" fill="#d3dae3"/>
 </g>
 <g id="internet-web-browser">
  <rect width="32" height="32" opacity=".001"/>
  <path d="m16 4c-6.63 0-12 5.37-12 12s5.37 12 12 12 12-5.37 12-12-5.37-12-12-12zm7 5-4.6816 9.3184-9.3184 4.6816 4.6816-9.3184 9.3184-4.6816zm-7 6c-0.54651 0-1 0.45349-1 1s0.45349 1 1 1 1-0.45349 1-1-0.45349-1-1-1z" fill="#d3dae3"/>
 </g>
</svg>
