<?xml version="1.0" encoding="UTF-8"?>
<svg width="32" height="32" version="1.1" xmlns="http://www.w3.org/2000/svg">
 <g id="22-22-kmail" transform="translate(-435 -125)">
  <path d="m472 140c-1.108 0-2 0.892-2 2v8c0 1.108 0.892 2 2 2h12c1.108 0 2-0.892 2-2v-8c0-1.108-0.892-2-2-2zm0 2 6 3 6-3v2l-6 3-6-3z" fill="#d3dae3"/>
  <path d="m467 135h22v22h-22z" opacity=".001"/>
 </g>
 <g id="kmail">
  <path d="m7 7c-1.662 0-3 1.338-3 3v12c0 1.662 1.338 3 3 3h18c1.662 0 3-1.338 3-3v-12c0-1.662-1.338-3-3-3zm0 3 9 4.5 9-4.5v3l-9 4.5-9-4.5z" fill="#d3dae3"/>
  <path d="m-5.909e-7 2.5e-6h32v32h-32z" opacity=".001"/>
 </g>
</svg>
