<?xml version="1.0" encoding="UTF-8"?>
<svg width="32" height="32" version="1" xmlns="http://www.w3.org/2000/svg">
 <g id="22-22-ktorrent" transform="translate(32 10)">
  <rect width="22" height="22" opacity=".001"/>
  <path d="m8.6953 3c-0.34295 0-0.65196 0.36173-0.69531 0.80664v6.1934h-4l7 7 7-7h-4v-6.1934c0-0.44692-0.35236-0.80664-0.69531-0.80664zm2.3047 14h-7.1992c-0.4432 0-0.80078 0.446-0.80078 1s0.35758 1 0.80078 1h14.398c0.4432 0 0.80078-0.446 0.80078-1s-0.35758-1-0.80078-1z" fill="#d3dae3"/>
 </g>
 <g id="ktorrent">
  <rect width="32" height="32" opacity=".001"/>
  <path d="m12.042 4c-0.51443 0-0.97794 0.54259-1.043 1.21v9.79h-5.4995l10.5 10 10.5-10h-5.4995v-9.79c0-0.67039-0.52854-1.21-1.043-1.21zm3.9575 21h-10.799c-0.6648 0-1.2012 0.669-1.2012 1.5 0 0.831 0.53637 1.5 1.2012 1.5h21.598c0.6648 0 1.2012-0.669 1.2012-1.5 0-0.831-0.53637-1.5-1.2012-1.5z" fill="#d3dae3"/>
 </g>
</svg>
