<?xml version="1.0" encoding="UTF-8"?>
<svg width="32" height="32" version="1.1" xmlns="http://www.w3.org/2000/svg">
 <g id="22-22-mail-unread" transform="translate(-403 -157)">
  <path d="m472 140c-1.108 0-2 0.892-2 2v8c0 1.108 0.892 2 2 2h12c1.108 0 2-0.892 2-2v-8c0-1.108-0.892-2-2-2zm0 2 6 3 6-3v2l-6 3-6-3z" fill="#d3dae3"/>
  <path d="m467 135h22v22h-22z" opacity=".001"/>
 </g>
 <g id="22-22-mail-unread-new" transform="translate(32)">
  <path d="m1.1e-4 -22h22v22h-22z" opacity=".001"/>
  <path d="m5-17c-1.108 0-2 0.892-2 2v8c0 1.108 0.892 2 2 2h11c-1.645 0-3-1.355-3-3s1.355-3 3-3 3 1.355 3 3v-7c0-1.108-0.892-2-2-2zm0 2 6 3 6-3v2l-6 3-6-3z" fill="#d3dae3"/>
  <path d="m16-10a2 2 0 0 0-2 2 2 2 0 0 0 2 2 2 2 0 0 0 2-2 2 2 0 0 0-2-2z" fill="#4285f4"/>
 </g>
 <g id="22-22-mail-mark-unread-new" transform="translate(-.0001103)">
  <path d="m1.1e-4 -22h22v22h-22z" opacity=".001"/>
  <path d="m5-17c-1.108 0-2 0.892-2 2v8c0 1.108 0.892 2 2 2h11c-1.645 0-3-1.355-3-3s1.355-3 3-3 3 1.355 3 3v-7c0-1.108-0.892-2-2-2zm0 2 6 3 6-3v2l-6 3-6-3z" fill="#d3dae3"/>
  <path d="m16-10a2 2 0 0 0-2 2 2 2 0 0 0 2 2 2 2 0 0 0 2-2 2 2 0 0 0-2-2z" fill="#4285f4"/>
 </g>
 <g id="mail-unread" transform="translate(64 -3e-6)">
  <path d="m7 7c-1.662 0-3 1.338-3 3v12c0 1.662 1.338 3 3 3h18c1.662 0 3-1.338 3-3v-12c0-1.662-1.338-3-3-3zm0 3 9 4.5 9-4.5v3l-9 4.5-9-4.5z" fill="#d3dae3"/>
  <path d="m-5.909e-7 2.5e-6h32v32h-32z" opacity=".001"/>
 </g>
 <g id="mail-mark-unread-new">
  <path d="m7 7c-1.662 0-3 1.338-3 3v12c0 1.662 1.338 3 3 3h16a5 5 0 0 1-5-5 5 5 0 0 1 5-5 5 5 0 0 1 5 5v-10c0-1.662-1.338-3-3-3h-18zm0 3 9 4.5 9-4.5v3l-9 4.5-9-4.5v-3zm21 10.008a5 5 0 0 1-0.10547 0.99219h0.10547v-0.99219z" fill="#d3dae3"/>
  <path d="m-2.9545e-7 -2.5e-7h32v32h-32z" opacity=".001"/>
  <path d="m23 17a3 3 0 0 0-3 3 3 3 0 0 0 3 3 3 3 0 0 0 3-3 3 3 0 0 0-3-3z" fill="#4285f4"/>
 </g>
 <g id="mail-unread-new" transform="translate(32)">
  <path d="m7 7c-1.662 0-3 1.338-3 3v12c0 1.662 1.338 3 3 3h16a5 5 0 0 1-5-5 5 5 0 0 1 5-5 5 5 0 0 1 5 5v-10c0-1.662-1.338-3-3-3zm0 3 9 4.5 9-4.5v3l-9 4.5-9-4.5zm21 10.008a5 5 0 0 1-0.10547 0.99219h0.10547z" fill="#d3dae3"/>
  <path d="m-2.9545e-7 -2.5e-7h32v32h-32z" opacity=".001"/>
  <path d="m23 17a3 3 0 0 0-3 3 3 3 0 0 0 3 3 3 3 0 0 0 3-3 3 3 0 0 0-3-3z" fill="#4285f4"/>
 </g>
</svg>
