<?xml version="1.0" encoding="UTF-8"?>
<svg width="32" height="32" version="1.1" xmlns="http://www.w3.org/2000/svg">
 <g id="22-22-plasmavault_error" transform="translate(32,10)">
  <rect width="22" height="22" opacity=".001"/>
  <path d="m4.1426 3s-1.1426 0.04269-1.1426 1.1855v12.672s-2.789e-4 1.1426 1.1426 1.1426h13.715s1.1426 2.79e-4 1.1426-1.1426v-10.686c0-1.1429-1.1426-1.1719-1.1426-1.1719h-5.7148l-2.2852-2zm5.8574 3h2v7h-2zm1 8a1 1 0 0 1 1 1 1 1 0 0 1-1 1 1 1 0 0 1-1-1 1 1 0 0 1 1-1z" fill="#f44336"/>
 </g>
 <g id="plasmavault_error">
  <rect width="32" height="32" opacity=".001"/>
  <path d="m4 3s-2 0-2 2v22s0 2 2 2h24s2 0 2-2v-18c0-2-2-2-2-2h-10l-4-4zm11 7h3v11h-3zm1.5 13c0.828 0 1.5 0.672 1.5 1.5s-0.672 1.5-1.5 1.5-1.5-0.672-1.5-1.5 0.672-1.5 1.5-1.5z" fill="#f44336"/>
 </g>
</svg>
