<?xml version="1.0" encoding="UTF-8"?>
<svg width="32" height="32" version="1.1" xmlns="http://www.w3.org/2000/svg">
 <g id="22-22-printer" transform="translate(-473 135.01)">
  <rect x="505" y="-125.01" width="22" height="22" opacity=".001"/>
  <path transform="translate(505 -125.01)" d="m6 3v3h10v-3zm-2.7148 4c-0.64285 0-1.2852 0.58268-1.2852 1.166v4.668c0 0.58334 0.64231 1.166 1.2852 1.166h1.7148v-2h12v2h1.7148c0.64285 0 1.2852-0.58268 1.2852-1.166v-4.668c0-0.58334-0.64231-1.166-1.2852-1.166zm2.7148 6v6h10v-6zm1 2h8v1h-8zm0 2h8v1h-8z" fill="#d3dae3"/>
 </g>
 <g id="printer">
  <rect width="32" height="32" opacity=".001"/>
  <path d="m9 5v4h14v-4h-14zm-4.1445 6c-0.92856 0-1.8555 0.83267-1.8555 1.666v6.668c0 0.83334 0.92691 1.666 1.8555 1.666h2.1445v-3h18v3h2.1445c0.92856 0 1.8555-0.83267 1.8555-1.666v-6.668c0-0.83334-0.92691-1.666-1.8555-1.666h-22.289zm4.1445 9v8h14v-8h-14zm2 2h10v2h-10v-2zm0 3h10v2h-10v-2z" fill="#d3dae3"/>
 </g>
</svg>
