<?xml version="1.0" encoding="UTF-8"?>
<svg width="32" height="32" version="1.1" xmlns="http://www.w3.org/2000/svg">
 <g id="22-22-veracrypt" transform="translate(0,-22)">
  <rect width="22" height="22" opacity=".001"/>
  <path d="m2 3 4.4492 16 0.29102-0.95508 1.6152-7.0293h0.085937l-2.1406-8.0156z" fill="#d3dae3" opacity=".3"/>
  <path d="m12.036 11.02-3.6796-0.0049-1.6154 7.0294-0.29231 0.95508 4.1588-7e-6c1.6878-7.3182 1.4288-7.9802 1.4288-7.9802z" fill="#d3dae3" opacity=".15"/>
  <path d="m11.038 3-2.599 8.0155 2.1605 7.9845h8.6314l-1.8462-4h-3.7l-1.1227-3.9845 1.4304-4.0155h3.3923l1.8462-4z" fill="#d3dae3"/>
 </g>
 <g id="veracrypt">
  <rect width="32" height="32" opacity=".001"/>
  <path d="m3 4 6.7133 24 0.43911-1.4326 2.4372-10.544h0.12967l-3.2299-12.023z" fill="#d3dae3" opacity=".3"/>
  <path d="m18.143 16.03-5.552-0.0073-2.4374 10.544-0.44106 1.4326 6.2752-1.1e-5c2.5466-10.977 2.1559-11.97 2.1559-11.97z" fill="#d3dae3" opacity=".15"/>
  <path d="m16.638 4-3.9216 12.023 3.26 11.977h13.024l-2.7856-6h-5.5828l-1.694-5.9767 2.1583-6.0233h5.1186l2.7856-6z" fill="#d3dae3"/>
 </g>
</svg>
