<?xml version="1.0" encoding="UTF-8"?>
<svg width="32" height="32" version="1.1" xmlns="http://www.w3.org/2000/svg">
 <g id="yakuake">
  <rect width="32" height="32" opacity=".001"/>
  <path d="m18.047 4.127-8.0234 8.0215 2.8281 2.8301 8.0234-8.0234z" fill="#d3dae3" opacity=".3"/>
  <path d="m4.8301 4.127-2.8301 2.8281 6.6074 6.6074-6.6074 6.6094 2.8301 2.8281 9.4355-9.4375-9.4355-9.4355zm10.17 19.873v4h15v-4h-15z" fill="#d3dae3"/>
 </g>
 <g id="22-22-yakuake" transform="translate(27,5)">
  <rect x="5" y="5" width="22" height="22" opacity=".001"/>
  <path d="m18.596 7.9902-5.2988 5.2988 1.4141 1.4141 5.2988-5.2988z" fill="#d3dae3" opacity=".3"/>
  <path d="m9.4141 7.9902-1.4141 1.4141 4.5898 4.5918-4.5898 4.5898 1.4141 1.4141 6.0059-6.0039zm4.873 14.01v2h9.7129v-2z" fill="#d3dae3"/>
 </g>
</svg>
