<?xml version="1.0" encoding="UTF-8"?>
<svg width="64" height="137" version="1" xmlns="http://www.w3.org/2000/svg">
 <defs>
  <style id="current-color-scheme" type="text/css">.ColorScheme-Background {color:#2f343f; } .ColorScheme-ButtonBackground { color:#444a58; } .ColorScheme-Highlight { color:#5c87cc; } .ColorScheme-Text { color:#d3dae3; } .ColorScheme-NegativeText { color:#f44336; } .ColorScheme-PositiveText { color:#4caf50; } .ColorScheme-NeutralText { color:#ff9800; }</style>
 </defs>
 <rect id="center" class="ColorScheme-Background" x="7" y="14" width="50" height="50" fill="currentColor"/>
 <g id="bottomleft" transform="translate(-10 -3.0001)">
  <path class="ColorScheme-Background" d="m17 74v-7h-7v2c0 2.77 2.23 5 5 5z" fill="currentColor"/>
  <path d="m10 67v2c0 2.77 2.23 5 5 5h2v-1h-2c-2.2333 0-4-1.7667-4-4v-2z" opacity=".2"/>
 </g>
 <g id="left" transform="translate(-10 -3.0001)">
  <path class="ColorScheme-Background" d="m10 17v50l7 1e-5v-50z" fill="currentColor"/>
  <path d="m10 17v50h1v-50z" opacity=".2"/>
 </g>
 <g id="right" transform="translate(-10 -3.0001)">
  <path class="ColorScheme-Background" d="m74 17v50l-7 1e-5v-50z" fill="currentColor"/>
  <path d="m73 17v50h1v-50z" opacity=".2"/>
 </g>
 <g id="bottom" transform="translate(-10 -3.0001)">
  <path class="ColorScheme-Background" d="m17 74h50v-7h-50z" fill="currentColor"/>
  <path d="m17 73v1h50v-1z" opacity=".2"/>
 </g>
 <g id="bottomright" transform="translate(-10 -3.0001)">
  <path class="ColorScheme-Background" d="m67 74v-7h7v2c0 2.77-2.23 5-5 5z" fill="currentColor"/>
  <path d="m73 67v2c0 2.2333-1.7667 4-4 4h-2v1h2c2.77 0 5-2.23 5-5v-2z" opacity=".2"/>
 </g>
 <g id="top" transform="translate(-10 -3.0001)">
  <path class="ColorScheme-Background" d="m17 9.9999h50v7h-50z" fill="currentColor"/>
  <path d="m17 10v1h50v-1z" opacity=".2"/>
 </g>
 <g id="topright" transform="translate(-10 -3.0001)">
  <path class="ColorScheme-Background" d="m67 9.9999v7h7v-2c0-2.77-2.23-5-5-5z" fill="currentColor"/>
  <path d="m67 10v1h2c2.2333 0 4 1.7667 4 4v2h1v-2c0-2.77-2.23-5-5-5z" opacity=".2"/>
 </g>
 <g id="topleft" transform="translate(-10 -3.0001)">
  <path class="ColorScheme-Background" d="m17 9.9999v7h-7v-2c0-2.77 2.23-5 5-5z" fill="currentColor"/>
  <path d="m15 10c-2.77 0-5 2.23-5 5v2h1v-2c0-2.2333 1.7667-4 4-4h2v-1z" opacity=".2"/>
 </g>
 <rect id="hint-top-margin" x="29" y="14" width="4" height="10" fill="#f0f"/>
 <rect id="hint-bottom-margin" x="29" y="54" width="4" height="10" fill="#f0f"/>
 <rect id="hint-left-margin" x="7" y="36" width="10" height="4" fill="#f0f"/>
 <rect id="hint-right-margin" x="47" y="36" width="10" height="4" fill="#f0f"/>
 <rect id="hint-tile-center" width="5" height="5" fill="#f60"/>
 <rect id="mask-center" x="7" y="80" width="50" height="50"/>
 <path id="mask-topleft" d="m7 73v7h-7v-2c0-2.77 2.23-5 5-5z"/>
 <path id="mask-left" d="m1e-5 80v50l7 1e-5v-50z"/>
 <path id="mask-right" d="m64 80v50l-7 1e-5v-50z"/>
 <path id="mask-bottomleft" d="m7 137v-7h-7v2c0 2.77 2.23 5 5 5z"/>
 <path id="mask-bottom" d="m7 137h50v-7h-50z"/>
 <path id="mask-bottomright" d="m57 137v-7h7v2c0 2.77-2.23 5-5 5z"/>
 <path id="mask-topright" d="m57 73v7h7v-2c0-2.77-2.23-5-5-5z"/>
 <path id="mask-top" d="m7 73h50v7h-50z"/>
</svg>
