<?xml version="1.0" encoding="UTF-8"?>
<svg width="16" height="16" version="1.1" xmlns="http://www.w3.org/2000/svg">
 <g id="active-center">
  <rect width="16" height="16" opacity=".001"/>
  <path d="m8 1a7 7 0 0 0-7 7 7 7 0 0 0 7 7 7 7 0 0 0 7-7 7 7 0 0 0-7-7zm-3 3.9219h0.75c8e-3 -9e-5 0.0156-3.45e-4 0.0234 0 0.19121 0.0084 0.3824 0.09643 0.51562 0.23438l1.711 1.7109 1.7344-1.7109c0.19921-0.17288 0.335-0.22912 0.51562-0.23438h0.75v0.75c0 0.21485-0.0258 0.41299-0.1875 0.5625l-1.7109 1.7109 1.6875 1.6875c0.14114 0.14113 0.21093 0.34009 0.21094 0.53906v0.75h-0.75c-0.19898-8e-6 -0.39794-0.06982-0.53906-0.21094l-1.7109-1.7109-1.7109 1.7109c-0.14112 0.14114-0.34009 0.21094-0.53906 0.21094h-0.75v-0.75c0-0.19897 0.0698-0.39794 0.21094-0.53906l1.7109-1.6875-1.7109-1.7109c-0.15806-0.14597-0.22737-0.35194-0.21094-0.5625z" fill="#cc575d"/>
 </g>
 <g id="hover-center">
  <rect x="18" width="16" height="16" opacity=".001"/>
  <path d="m26 1a7 7 0 0 0-7 7 7 7 0 0 0 7 7 7 7 0 0 0 7-7 7 7 0 0 0-7-7zm-3 3.9219h0.75c8e-3 -9e-5 0.0156-3.45e-4 0.0234 0 0.19121 0.0084 0.3824 0.09643 0.51562 0.23438l1.711 1.7109 1.7344-1.7109c0.19921-0.17288 0.335-0.22912 0.51562-0.23438h0.75v0.75c0 0.21485-0.0258 0.41299-0.1875 0.5625l-1.7109 1.7109 1.6875 1.6875c0.14114 0.14113 0.21093 0.34009 0.21094 0.53907v0.75h-0.75c-0.19898-1e-5 -0.39794-0.0698-0.53906-0.21094l-1.7109-1.7109-1.7109 1.7109c-0.14112 0.14114-0.34009 0.21094-0.53906 0.21094h-0.75v-0.75c0-0.19897 0.0698-0.39794 0.21094-0.53907l1.7109-1.6875-1.7109-1.7109c-0.15806-0.14597-0.22737-0.35194-0.21094-0.5625z" fill="#d7787d"/>
 </g>
 <g id="pressed-center">
  <rect x="36" width="16" height="16" opacity=".001"/>
  <path d="m44 1a7 7 0 0 0-7 7 7 7 0 0 0 7 7 7 7 0 0 0 7-7 7 7 0 0 0-7-7zm-3 3.9219h0.75c8e-3 -1e-4 0.0156-3.5e-4 0.0234 0 0.19121 8e-3 0.3824 0.0964 0.51562 0.23437l1.7109 1.7109 1.7344-1.7109c0.19921-0.17287 0.335-0.22913 0.51562-0.23437h0.75v0.75c0 0.21485-0.0258 0.41298-0.1875 0.5625l-1.7109 1.7109 1.6875 1.6875c0.14114 0.14113 0.21093 0.34009 0.21094 0.53907v0.75h-0.75c-0.19898-1e-5 -0.39794-0.0698-0.53906-0.21094l-1.7109-1.7109-1.7109 1.7109c-0.14112 0.14114-0.34009 0.21094-0.53906 0.21094h-0.75v-0.75c0-0.19897 0.0698-0.39794 0.21094-0.53907l1.7109-1.6875-1.7109-1.7109c-0.15806-0.14598-0.22737-0.35194-0.21094-0.5625z" fill="#be3841"/>
 </g>
 <g id="inactive-center">
  <rect x="54" width="16" height="16" opacity=".001"/>
  <path d="m62 1a7 7 0 0 0-7 7 7 7 0 0 0 7 7 7 7 0 0 0 7-7 7 7 0 0 0-7-7zm-3 3.9219h0.75c8e-3 -9e-5 0.0156-3.45e-4 0.0234 0 0.19121 0.0084 0.3824 0.09643 0.51562 0.23438l1.711 1.7109 1.7344-1.7109c0.19921-0.17288 0.335-0.22912 0.51562-0.23438h0.75v0.75c0 0.21485-0.0258 0.41299-0.1875 0.5625l-1.7109 1.7109 1.6875 1.6875c0.14114 0.14113 0.21093 0.34009 0.21094 0.53906v0.75h-0.75c-0.19898-8e-6 -0.39794-0.06982-0.53906-0.21094l-1.7109-1.7109-1.7109 1.7109c-0.14112 0.14114-0.34009 0.21094-0.53906 0.21094h-0.75v-0.75c0-0.19897 0.0698-0.39794 0.21094-0.53906l1.7109-1.6875-1.7109-1.7109c-0.15806-0.14597-0.22737-0.35194-0.21094-0.5625z" fill="#b9bcc2" opacity=".4"/>
 </g>
 <g id="deactivated-center">
  <rect x="72" width="16" height="16" opacity=".001"/>
  <path d="m80 1a7 7 0 0 0-7 7 7 7 0 0 0 7 7 7 7 0 0 0 7-7 7 7 0 0 0-7-7zm-3 3.9219h0.75c8e-3 -9e-5 0.0156-3.45e-4 0.0234 0 0.19121 0.0084 0.3824 0.09643 0.51562 0.23438l1.711 1.7109 1.7344-1.7109c0.19921-0.17288 0.335-0.22912 0.51562-0.23438h0.75v0.75c0 0.21485-0.0258 0.41299-0.1875 0.5625l-1.7109 1.7109 1.6875 1.6875c0.14114 0.14113 0.21093 0.34009 0.21094 0.53906v0.75h-0.75c-0.19898-8e-6 -0.39794-0.06982-0.53906-0.21094l-1.7109-1.7109-1.7109 1.7109c-0.14112 0.14114-0.34009 0.21094-0.53906 0.21094h-0.75v-0.75c0-0.19897 0.0698-0.39794 0.21094-0.53906l1.7109-1.6875-1.7109-1.7109c-0.15806-0.14597-0.22737-0.35194-0.21094-0.5625z" fill="#b9bcc2" opacity=".4"/>
 </g>
</svg>
