<?xml version="1.0" encoding="UTF-8"?>
<svg width="84" height="84" version="1" xmlns="http://www.w3.org/2000/svg" xmlns:xlink="http://www.w3.org/1999/xlink">
 <defs id="defs3644">
  <linearGradient id="linearGradient4215-49">
   <stop id="stop4217-5" stop-opacity=".184" offset="0"/>
   <stop id="stop4223-8" stop-opacity="0" offset="1"/>
  </linearGradient>
  <radialGradient id="radialGradient4275" cx="984" cy="905.36" r="8.5" gradientTransform="matrix(-1.6187e-5 -1.4118 1.4118 -1.6187e-5 -1261.2 1406.2)" gradientUnits="userSpaceOnUse" xlink:href="#linearGradient4215-49"/>
  <linearGradient id="linearGradient4271" x1="83.6" x2="83.6" y1="-969.36" y2="-957.36" gradientTransform="matrix(.71429 0 0 1 -317.71 1250.4)" gradientUnits="userSpaceOnUse" xlink:href="#linearGradient4215-49"/>
  <radialGradient id="radialGradient3382" cx="984" cy="905.36" r="8.5" gradientTransform="matrix(7.8257e-6 1.4118 -1.4118 7.8257e-6 1345.2 -1322.2)" gradientUnits="userSpaceOnUse" xlink:href="#linearGradient4215-49"/>
  <linearGradient id="linearGradient4452" x1="-260" x2="-260" y1="281" y2="293" gradientUnits="userSpaceOnUse" xlink:href="#linearGradient4215-49"/>
  <radialGradient id="radialGradient4255" cx="982.91" cy="906.45" r="8.5" gradientTransform="matrix(1.4118 5.5406e-6 -5.5406e-6 1.4118 -1320.6 -1262.7)" gradientUnits="userSpaceOnUse" xlink:href="#linearGradient4215-49"/>
  <radialGradient id="radialGradient4263" cx="984" cy="905.36" r="8.5" gradientTransform="matrix(-1.4118 -9.8997e-6 9.8997e-6 -1.4118 1406.2 1345.2)" gradientUnits="userSpaceOnUse" xlink:href="#linearGradient4215-49"/>
 </defs>
 <rect id="decoration-center" x="17" y="17" width="50" height="50" fill="#2f343f"/>
 <g id="decoration-bottomleft">
  <path d="m17 84v-10h-2c-2.77 0-5-2.23-5-5v-2h-10v17z" fill="url(#radialGradient4263)"/>
  <path d="m10.9 67v2c0 2.2333 1.8695 4.2115 4.1 4.1h2v-6.1z" fill="#2f343f"/>
  <path d="m10 67v2c0 2.77 2.23 5 5 5h2v-1h-2c-2.2333 0-4-1.7667-4-4v-2h-1z" fill="#272a33"/>
 </g>
 <g id="decoration-left">
  <g transform="matrix(-1,0,0,1,298,-240)">
   <rect transform="rotate(-90)" x="-307" y="288" width="50" height="10" fill="url(#linearGradient4271)"/>
  </g>
  <path d="m10.9 17v50h6.1v-50z" fill="#2f343f"/>
  <path d="m10 17v50h1v-50h-1z" fill="#272a33"/>
 </g>
 <g id="decoration-right">
  <g transform="translate(-214,-240)">
   <rect transform="rotate(-90)" x="-307" y="288" width="50" height="10" fill="url(#linearGradient4452)"/>
  </g>
  <path d="m67 17v50h6.1v-50z" fill="#2f343f"/>
  <path d="m73 17v50h1v-50h-1z" fill="#272a33"/>
 </g>
 <g id="decoration-bottom">
  <g transform="matrix(0,1,-1,0,324,-214)">
   <rect transform="rotate(-90)" x="-307" y="288" width="50" height="10" fill="url(#linearGradient4271)"/>
  </g>
  <path d="m17 67v6.1h50v-6.1z" fill="#2f343f"/>
  <path d="m17 73v1h50v-1h-50z" fill="#272a33"/>
 </g>
 <g id="decoration-bottomright">
  <path d="m84 67h-10v2c0 2.77-2.23 5-5 5h-2v10h17z" fill="url(#radialGradient3382)"/>
  <path d="m67 67v6.1h2c2.2333 0 4.2115-1.8695 4.1-4.1v-2z" fill="#2f343f"/>
  <path d="m73 67v2c0 2.2333-1.7667 4-4 4h-2v1h2c2.77 0 5-2.23 5-5v-2h-1z" fill="#272a33"/>
 </g>
 <g id="decoration-top">
  <g transform="matrix(0,-1,-1,0,324,298)">
   <rect transform="rotate(-90)" x="-307" y="288" width="50" height="10" fill="url(#linearGradient4271)"/>
  </g>
  <path d="m17 10.9v6.1h50v-6.1z" fill="#2f343f"/>
  <path d="m17 10v1h50v-1h-50z" fill="#272a33"/>
 </g>
 <g id="decoration-topright">
  <path d="m67 0v10h2c2.77 0 5 2.23 5 5v2h10v-17z" fill="url(#radialGradient4255)"/>
  <path d="m67 10.9v6.1h6.1v-2c0-2.2333-1.8667-4.1-4.1-4.1z" fill="#2f343f"/>
  <path d="m67 10v1h2c2.2333 0 4 1.7667 4 4v2h1v-2c0-2.77-2.23-5-5-5h-2z" fill="#272a33"/>
 </g>
 <g id="decoration-topleft">
  <path d="m0 17h10v-2c0-2.77 2.23-5 5-5h2v-10h-17z" fill="url(#radialGradient4275)"/>
  <path d="m15 10.9c-2.2333 0-4.1 1.8667-4.1 4.1v2h6.1v-6.1z" fill="#2f343f"/>
  <path d="m15 10c-2.77 0-5 2.23-5 5v2h1v-2c0-2.2333 1.7667-4 4-4h2v-1h-2z" fill="#272a33"/>
 </g>
</svg>
