<?xml version="1.0" encoding="UTF-8"?>
<svg width="16" height="16" version="1.1" xmlns="http://www.w3.org/2000/svg">
 <g id="active-center">
  <rect width="16" height="16" opacity=".001"/>
  <path d="m5 10h6l-3-5z" fill="#b9bcc2" opacity=".7"/>
 </g>
 <g id="hover-center">
  <rect x="18" width="16" height="16" opacity=".001"/>
  <circle cx="26" cy="8" r="6" fill="#5f697f" opacity=".45"/>
  <path d="m26 1a7 7 0 0 0-7 7 7 7 0 0 0 7 7 7 7 0 0 0 7-7 7 7 0 0 0-7-7zm0 1a6 6 0 0 1 6 6 6 6 0 0 1-6 6 6 6 0 0 1-6-6 6 6 0 0 1 6-6z" fill="#15171c" opacity=".37"/>
  <path d="m23 10h6l-3-5z" fill="#c4c7cc"/>
 </g>
 <g id="pressed-center">
  <circle cx="44" cy="8" r="7" fill="#5c87cc"/>
  <rect x="36" width="16" height="16" opacity=".001"/>
  <path d="m41 10h6l-3-5z" fill="#fff"/>
 </g>
 <g id="inactive-center">
  <rect x="54" width="16" height="16" opacity=".001"/>
  <path d="m59 10h6l-3-5z" fill="#b9bcc2" opacity=".4"/>
 </g>
 <g id="deactivated-center">
  <rect x="72" width="16" height="16" opacity=".001"/>
  <path d="m77 10h6l-3-5z" fill="#b9bcc2" opacity=".4"/>
 </g>
</svg>
