<?xml version="1.0" encoding="UTF-8"?>
<svg width="16" height="16" version="1.1" xmlns="http://www.w3.org/2000/svg">
 <g id="active-center">
  <rect width="16" height="16" opacity=".001"/>
  <path d="m6.7995 5h3.3818c0.4503 0 0.8162 0.36847 0.8187 0.8188v3.3817zm2.4074 6.0069h-3.395c-0.4504 0-0.8188-0.36842-0.8188-0.81875v-3.3951l4.2138 4.2138" fill="#b9bcc2" opacity=".7"/>
 </g>
 <g id="hover-center">
  <rect x="18" width="16" height="16" opacity=".001"/>
  <circle cx="26" cy="8" r="6" fill="#5f697f" opacity=".45"/>
  <path d="m26 1a7 7 0 0 0-7 7 7 7 0 0 0 7 7 7 7 0 0 0 7-7 7 7 0 0 0-7-7zm0 1a6 6 0 0 1 6 6 6 6 0 0 1-6 6 6 6 0 0 1-6-6 6 6 0 0 1 6-6z" fill="#15171c" opacity=".37"/>
  <path d="m24.8 5h3.3817c0.4503 0 0.81623 0.36847 0.81876 0.8188v3.3817zm2.4074 6.0069h-3.3951c-0.45035 0-0.81876-0.36842-0.81876-0.81875v-3.3951l4.2138 4.2138" fill="#c4c7cc"/>
 </g>
 <g id="pressed-center">
  <rect x="36" width="16" height="16" opacity=".001"/>
  <circle cx="44" cy="8" r="7" fill="#5c87cc"/>
  <path d="m42.8 5h3.3817c0.4503 0 0.81623 0.36847 0.81876 0.8188v3.3817zm2.4074 6.0069h-3.3951c-0.45035 0-0.81876-0.36842-0.81876-0.81875v-3.3951l4.2138 4.2138" fill="#fff"/>
 </g>
 <g id="inactive-center">
  <rect x="54" width="16" height="16" opacity=".001"/>
  <path d="m60.8 5h3.3818c0.4503 0 0.8162 0.36847 0.8187 0.8188v3.3817zm2.4074 6.0069h-3.395c-0.4504 0-0.8188-0.36842-0.8188-0.81875v-3.3951l4.2138 4.2138" fill="#b9bcc2" opacity=".4"/>
 </g>
 <g id="deactivated-center">
  <rect x="72" width="16" height="16" opacity=".001"/>
  <path d="m78.8 5h3.3818c0.4503 0 0.8162 0.36847 0.8187 0.8188v3.3817zm2.4074 6.0069h-3.395c-0.4504 0-0.8188-0.36842-0.8188-0.81875v-3.3951l4.2138 4.2138" fill="#b9bcc2" opacity=".4"/>
 </g>
</svg>
