<?xml version="1.0" encoding="UTF-8"?>
<svg width="32" height="32" version="1.1" xmlns="http://www.w3.org/2000/svg">
 <defs>
  <style id="current-color-scheme" type="text/css">.ColorScheme-Background {color:#2f343f; } .ColorScheme-ButtonBackground { color:#444a58; } .ColorScheme-Highlight { color:#5c87cc; } .ColorScheme-Text { color:#d3dae3; } .ColorScheme-NegativeText { color:#f44336; } .ColorScheme-PositiveText { color:#4caf50; } .ColorScheme-NeutralText { color:#ff9800; }</style>
 </defs>
 <g id="distribute-horizontal-x">
  <rect width="32" height="32" opacity=".001"/>
  <path class="ColorScheme-Text" d="m3 9v14h7v-14zm19 0v14h7v-14zm-10 3v8h2v-2h4v2h2v-8h-2v2h-4v-2z" fill="currentColor"/>
 </g>
 <g id="16-16-distribute-horizontal-x" transform="translate(46,8)">
  <rect x="8" y="8" width="16" height="16" opacity=".001"/>
  <path class="ColorScheme-Text" d="m9 12v8h4v-8zm10 0v8h4v-8zm-5 2v4h1v-1h2v1h1v-4h-1v1h-2v-1z" fill="currentColor"/>
 </g>
 <g id="22-22-distribute-horizontal-x" transform="translate(27,5)">
  <rect x="5" y="5" width="22" height="22" opacity=".001"/>
  <path class="ColorScheme-Text" d="m8 12v8h5v-8zm11 0v8h5v-8zm-5 2v4h1v-1h2v1h1v-4h-1v1h-2v-1z" fill="currentColor"/>
 </g>
</svg>
