<?xml version="1.0" encoding="UTF-8"?>
<svg width="32" height="32" version="1.1" xmlns="http://www.w3.org/2000/svg">
 <defs>
  <style id="current-color-scheme" type="text/css">.ColorScheme-Background {color:#2f343f; } .ColorScheme-ButtonBackground { color:#444a58; } .ColorScheme-Highlight { color:#5c87cc; } .ColorScheme-Text { color:#d3dae3; } .ColorScheme-NegativeText { color:#f44336; } .ColorScheme-PositiveText { color:#4caf50; } .ColorScheme-NeutralText { color:#ff9800; }</style>
 </defs>
 <g id="22-22-klipper" transform="translate(27,5)">
  <rect x="5" y="5" width="22" height="22" opacity=".001"/>
  <path class="ColorScheme-Text" d="m16 8c-1.1046 0-2 0.89543-2 2 0 1.0702-1 1-1 1v1.4336c-0.0018 0.01653-9.1e-5 0.03249 0 0.04883v0.51758h6v-0.51758c9.1e-5 -0.01633 0.0018-0.0323 0-0.04883v-1.4336s-1 0.07018-1-1c0-1.1046-0.89543-2-2-2zm0 1c0.55228 0 1 0.44772 1 1s-0.44772 1-1 1-1-0.44772-1-1 0.44772-1 1-1zm-4.8008 3c-0.6648 0-1.1992 0.53442-1.1992 1.1992v9.6016c0 0.6648 0.53442 1.1992 1.1992 1.1992h9.6016c0.6648 0 1.1992-0.53442 1.1992-1.1992v-9.6016c0-0.6648-0.53442-1.1992-1.1992-1.1992h-0.80078v10h-8v-10zm1.8008 3v1h3v-1zm0 2v1h4v-1zm0 2v1h6v-1z" fill="currentColor"/>
 </g>
 <g id="klipper">
  <rect width="32" height="32" opacity=".001"/>
  <path class="ColorScheme-Text" d="m16 4c-1.6569 0-3 1.3431-3 3-0.2043 1.2695-0.87318 1.5275-2 1.5v2.5h1 8 1v-2.5c-1.187 0.13317-1.9796-0.55106-2-1.5 0-1.6569-1.3431-3-3-3zm0 2c0.55229 0 1 0.44772 1 1 0 0.55228-0.44771 1-1 1-0.55228 0-1-0.44772-1-1 0-0.55228 0.44772-1 1-1zm-7.2012 4c-0.9972 0-1.7988 0.80163-1.7988 1.7988v14.402c0 0.9972 0.80163 1.7988 1.7988 1.7988h14.402c0.9972 0 1.7988-0.80163 1.7988-1.7988v-14.402c0-0.9972-0.80163-1.7988-1.7988-1.7988h-1.2012v3 4.5 7.5h-12v-7.5-4.5-3h-1.2012zm3.2012 4v2h4v-2h-4zm0 3v2h5v-2h-5zm0 3v2h8v-2h-8z" fill="currentColor"/>
 </g>
</svg>
