<?xml version="1.0" encoding="UTF-8"?>
<svg width="32" height="32" version="1.1" xmlns="http://www.w3.org/2000/svg">
 <defs>
  <style id="current-color-scheme" type="text/css">.ColorScheme-Background {color:#2f343f; } .ColorScheme-ButtonBackground { color:#444a58; } .ColorScheme-Highlight { color:#5c87cc; } .ColorScheme-Text { color:#d3dae3; } .ColorScheme-NegativeText { color:#f44336; } .ColorScheme-PositiveText { color:#4caf50; } .ColorScheme-NeutralText { color:#ff9800; }</style>
 </defs>
 <g id="22-22-korgac">
  <rect x="32" y="10" width="22" height="22" opacity=".001"/>
  <path class="ColorScheme-Text" d="m42.998 11.996c-4.9706 0-9 4.0294-9 9s4.0294 9 9 9 9-4.0294 9-9-4.0294-9-9-9zm0 3c3.3137 0 6 2.6863 6 6s-2.6863 6-6 6-6-2.6863-6-6 2.6863-6 6-6zm-0.99805 1.0039v6h6v-2h-4v-4z" fill="currentColor"/>
 </g>
 <g id="korgac">
  <rect width="32" height="32" opacity=".001"/>
  <path class="ColorScheme-Text" d="m15.5 3c-6.9036 0-12.5 5.5964-12.5 12.5 0 6.9036 5.5964 12.5 12.5 12.5 6.9036 0 12.5-5.5964 12.5-12.5 0-6.9036-5.5964-12.5-12.5-12.5zm0 4c4.6944 0 8.5 3.8056 8.5 8.5 0 4.6944-3.8056 8.5-8.5 8.5-4.6944 0-8.5-3.8056-8.5-8.5 0-4.6944 3.8056-8.5 8.5-8.5zm-1.5 2v5 3h3 5v-3h-5v-5h-3z" fill="currentColor"/>
 </g>
</svg>
