<?xml version="1.0" encoding="UTF-8"?>
<svg width="32" height="32" version="1.1" xmlns="http://www.w3.org/2000/svg">
 <defs>
  <style id="current-color-scheme" type="text/css">.ColorScheme-Background {color:#2f343f; } .ColorScheme-ButtonBackground { color:#444a58; } .ColorScheme-Highlight { color:#5c87cc; } .ColorScheme-Text { color:#d3dae3; } .ColorScheme-NegativeText { color:#f44336; } .ColorScheme-PositiveText { color:#4caf50; } .ColorScheme-NeutralText { color:#ff9800; }</style>
 </defs>
 <g id="22-22-list-add" transform="translate(-285 -16.997)">
  <path d="m285-5.0033h22v22h-22z" opacity=".001"/>
  <path class="ColorScheme-Text" transform="translate(285 -5.0033)" d="m9 3v6h-6v4h6v6h4v-6h6v-4h-6v-6z" fill="currentColor"/>
 </g>
 <g id="list-add">
  <path d="m-4.3181e-6 -4.8197e-7h32v32h-32z" opacity=".001"/>
  <path class="ColorScheme-Text" d="m13 4v9h-9v6h9v9h6v-9h9v-6h-9v-9z" fill="currentColor"/>
 </g>
 <g id="22-22-list-remove" transform="translate(-253 -16.997)">
  <path d="m285-5.0033h22v22h-22z" opacity=".001"/>
  <path class="ColorScheme-Text" transform="translate(285 -5.0033)" d="m3 9v4h16v-4z" fill="currentColor"/>
 </g>
 <g id="list-remove" transform="translate(32)">
  <path d="m-4.3181e-6 -4.8197e-7h32v32h-32z" opacity=".001"/>
  <path class="ColorScheme-Text" d="m4 13v6h24v-6z" fill="currentColor"/>
 </g>
 <g id="16-16-list-add" transform="matrix(.5 0 0 .5 2.1591e-6 -38)">
  <path d="m-4.3181e-6 -4.8197e-7h32v32h-32z" opacity=".001"/>
  <path class="ColorScheme-Text" d="m14 4-3e-6 10h-10v4h10l3e-6 10h4l-3e-6 -10h10v-4h-10l3e-6 -10z" fill="currentColor"/>
 </g>
 <g id="16-16-list-remove" transform="matrix(.5 0 0 .5 32 -38)">
  <path d="m-4.3181e-6 -4.8197e-7h32v32h-32z" opacity=".001"/>
  <path class="ColorScheme-Text" d="m4 14v4h24v-4z" fill="currentColor"/>
 </g>
</svg>
