<?xml version="1.0" encoding="UTF-8"?>
<svg width="32" height="32" version="1.1" xmlns="http://www.w3.org/2000/svg">
 <defs>
  <style id="current-color-scheme" type="text/css">.ColorScheme-Background {color:#2f343f; } .ColorScheme-ButtonBackground { color:#444a58; } .ColorScheme-Highlight { color:#5c87cc; } .ColorScheme-Text { color:#d3dae3; } .ColorScheme-NegativeText { color:#f44336; } .ColorScheme-PositiveText { color:#4caf50; } .ColorScheme-NeutralText { color:#ff9800; }</style>
 </defs>
 <g id="22-22-media-record" transform="translate(256 -1052.4)">
  <rect y="1030.4" width="22" height="22" opacity=".001"/>
  <path class="ColorScheme-Highlight" d="m11 1035.4c-3.311 0-6 2.6888-6 6 0 3.311 2.689 6 6 6s6-2.689 6-6c0-3.3112-2.689-6-6-6z" fill="currentColor"/>
 </g>
 <g id="22-22-media-playback-stop" transform="translate(32 -1052.4)">
  <rect y="1030.4" width="22" height="22" opacity=".001"/>
  <path class="ColorScheme-Text" d="m5 1035.4v12h12v-12z" fill="currentColor"/>
 </g>
 <g id="22-22-media-skip-forward" transform="translate(96 -1052.4)">
  <rect y="1030.4" width="22" height="22" opacity=".001"/>
  <path class="ColorScheme-Text" d="m19 1037.4v8h-2v-8zm-2 4-7 4v-8zm-7 0-7 4v-8z" fill="currentColor"/>
 </g>
 <g id="22-22-media-skip-backward" transform="matrix(-1 0 0 1 150 -1052.4)">
  <rect y="1030.4" width="22" height="22" opacity=".001"/>
  <path class="ColorScheme-Text" d="m19 1037.4v8h-2v-8zm-2 4-7 4v-8zm-7 0-7 4v-8z" fill="currentColor"/>
 </g>
 <g id="22-22-media-seek-forward" transform="translate(160 -1052.4)">
  <rect y="1030.4" width="22" height="22" opacity=".001"/>
  <path class="ColorScheme-Text" d="m11 1037.4 7 4-7 4v-4zm0 4-7 4v-8z" fill="currentColor"/>
 </g>
 <g id="22-22-media-seek-backward" transform="matrix(-1 0 0 1 214 -1052.4)">
  <rect y="1030.4" width="22" height="22" opacity=".001"/>
  <path class="ColorScheme-Text" d="m11 1037.4 7 4-7 4v-4zm0 4-7 4v-8z" fill="currentColor"/>
 </g>
 <g id="22-22-media-eject" transform="translate(224 -1052.4)">
  <rect y="1030.4" width="22" height="22" opacity=".001"/>
  <path class="ColorScheme-Text" d="m11 1036.4-5 5v1h10v-1zm-5 8v2h10v-2z" display="block" fill="currentColor"/>
 </g>
 <g id="22-22-media-playback-pause" transform="translate(64 -1052.4)">
  <rect y="1030.4" width="22" height="22" opacity=".001"/>
  <path class="ColorScheme-Text" d="m5 1035.4v12h4v-12zm8 0v12h4v-12z" fill="currentColor"/>
 </g>
 <g id="22-22-media-playback-start" transform="translate(0 -1052.4)">
  <rect y="1030.4" width="22" height="22" opacity=".001"/>
  <path class="ColorScheme-Text" d="m6 1035.4v12l11-6-9.8992-5.3996z" fill="currentColor"/>
 </g>
 <g id="22-22-media-playback-stopped" transform="translate(32 -1074.4)">
  <rect y="1030.4" width="22" height="22" opacity=".001"/>
  <path class="ColorScheme-Text" d="m5 1035.4v12h12v-12z" fill="currentColor"/>
 </g>
 <g id="22-22-media-playback-paused" transform="translate(64 -1074.4)">
  <rect y="1030.4" width="22" height="22" opacity=".001"/>
  <path class="ColorScheme-Text" d="m5 1035.4v12h4v-12zm8 0v12h4v-12z" fill="currentColor"/>
 </g>
 <g id="22-22-media-playback-playing" transform="translate(0 -1074.4)">
  <rect y="1030.4" width="22" height="22" opacity=".001"/>
  <path class="ColorScheme-Text" d="m6 1035.4v12l11-6-9.8992-5.3996z" fill="currentColor"/>
 </g>
 <g id="media-record" transform="matrix(1.4545 0 0 1.4545 256 -1498.7)">
  <rect y="1030.4" width="22" height="22" opacity=".001"/>
  <path class="ColorScheme-Highlight" d="m11 1035.2c-3.4145 0-6.1875 2.7728-6.1875 6.1875 0 3.4145 2.773 6.1875 6.1875 6.1875 3.4145 0 6.1875-2.773 6.1875-6.1875 0-3.4147-2.773-6.1875-6.1875-6.1875z" fill="currentColor"/>
 </g>
 <g id="media-playback-stop" transform="matrix(1.4545 0 0 1.4545 32 -1498.7)">
  <rect y="1030.4" width="22" height="22" opacity=".001"/>
  <path class="ColorScheme-Text" d="m4.8125 1035.2v12.375h12.375v-12.375z" fill="currentColor"/>
 </g>
 <g id="media-skip-forward" transform="translate(96)">
  <rect width="32" height="32" opacity=".001"/>
  <path class="ColorScheme-Text" d="m28 10v12h-3v-12zm-3 6-10 6v-12zm-10 0-11 6v-12z" fill="currentColor"/>
 </g>
 <g id="media-seek-forward" transform="translate(160)">
  <rect width="32" height="32" opacity=".001"/>
  <path class="ColorScheme-Text" d="m17 10 10 6-10 6v-6zm0 6-11 6v-12z" fill="currentColor"/>
 </g>
 <g id="media-eject" transform="translate(224)">
  <rect width="32" height="32" opacity=".001"/>
  <path class="ColorScheme-Text" d="m16.5 8-7.5 7.5v1.5h15v-1.5zm-7.5 12v3h15v-3z" display="block" fill="currentColor"/>
 </g>
 <g id="media-playback-pause" transform="translate(64)">
  <rect width="32" height="32" opacity=".001"/>
  <path class="ColorScheme-Text" d="m7 7v18h6v-18zm12 0v18h6v-18z" fill="currentColor"/>
 </g>
 <g id="media-playback-start" transform="translate(5e-7 1.9927e-5)">
  <rect width="32" height="32" opacity=".001"/>
  <path class="ColorScheme-Text" d="m9 7v18l16-9-14.399-8.0994z" fill="currentColor"/>
 </g>
 <g id="media-skip-backward" transform="matrix(-1,0,0,1,160,0)">
  <rect width="32" height="32" opacity=".001"/>
  <path class="ColorScheme-Text" d="m28 10v12h-3v-12zm-3 6-10 6v-12zm-10 0-11 6v-12z" fill="currentColor"/>
 </g>
 <g id="media-seek-backward" transform="matrix(-1,0,0,1,224,0)">
  <rect width="32" height="32" opacity=".001"/>
  <path class="ColorScheme-Text" d="m17 10 10 6-10 6v-6zm0 6-11 6v-12z" fill="currentColor"/>
 </g>
 <g id="media-playback-stopped" transform="matrix(1.4545 0 0 1.4545 32 -1466.7)">
  <rect y="1030.4" width="22" height="22" opacity=".001"/>
  <path class="ColorScheme-Text" d="m4.8125 1035.2v12.375h12.375v-12.375z" fill="currentColor"/>
 </g>
 <g id="media-playback-paused" transform="translate(64 32)">
  <rect width="32" height="32" opacity=".001"/>
  <path class="ColorScheme-Text" d="m7 7v18h6v-18zm12 0v18h6v-18z" fill="currentColor"/>
 </g>
 <g id="media-playback-playing" transform="translate(5e-7 32)">
  <rect width="32" height="32" opacity=".001"/>
  <path class="ColorScheme-Text" d="m9 7v18l16-9-14.399-8.0994z" fill="currentColor"/>
 </g>
 <g id="media-playlist-repeat">
  <path d="m320-1.99e-5h32v32h-32z" opacity=".001"/>
  <path class="ColorScheme-Text" d="m331 6v3h-2.8572c-3.1428 0-3.1428 3-3.1428 3v9s0 3 3.1428 3h15.714c3.1428 0 3.1428-3 3.1428-3v-9s0-3-3.1428-3h-2.8572v3h3v9h-16v-9h3v3l6.5714-4.5z" fill="currentColor"/>
 </g>
 <g id="media-playlist-shuffle">
  <path d="m288-1.99e-5h32v32h-32z" opacity=".001"/>
  <path class="ColorScheme-Text" d="m294 9v3h6.4286l1.4286 2.5714 1.4286-2.5714-1.4286-3zm14 8.4286v2.5714h-0.42857l-1.4286-2.5714-1.4286 2.5714 1.4286 3h1.8571v3l6-4.2857zm0-11.429v3h-1.8571l-5.7143 11h-6.4286v3h7.8571l5.7143-11h0.42857v2.5714l6-4.2857z" fill="currentColor"/>
 </g>
</svg>
