<?xml version="1.0" encoding="UTF-8"?>
<svg width="32" height="32" version="1.1" xmlns="http://www.w3.org/2000/svg">
 <defs>
  <style id="current-color-scheme" type="text/css">.ColorScheme-Background {color:#2f343f; } .ColorScheme-ButtonBackground { color:#444a58; } .ColorScheme-Highlight { color:#5c87cc; } .ColorScheme-Text { color:#d3dae3; } .ColorScheme-NegativeText { color:#f44336; } .ColorScheme-PositiveText { color:#4caf50; } .ColorScheme-NeutralText { color:#ff9800; }</style>
 </defs>
 <g id="22-22-zoom-fit-width" transform="translate(-433 43)">
  <rect x="465" y="-65" width="22" height="22" opacity=".001"/>
  <path class="ColorScheme-Text" d="m472-58.003-5 4 5 4v-3h8v3l5-4-5-4v3h-8z" fill="currentColor"/>
 </g>
 <g id="22-22-zoom-fit-height" transform="rotate(90,222,-265)">
  <rect x="465" y="-65" width="22" height="22" opacity=".001"/>
  <path class="ColorScheme-Text" d="m472-58.003-5 4 5 4v-3h8v3l5-4-5-4v3h-8z" fill="currentColor"/>
 </g>
 <g id="zoom-fit-height">
  <rect transform="rotate(90)" y="-32" width="32" height="32" opacity=".001"/>
  <path class="ColorScheme-Text" d="m21 10-5.5-7-5.5 7h4v12h-4l5.5 7 5.5-7h-4v-12z" fill="currentColor"/>
 </g>
 <g id="zoom-fit-width" transform="rotate(90 32 32)">
  <rect transform="rotate(90)" y="-32" width="32" height="32" opacity=".001"/>
  <path class="ColorScheme-Text" d="m21 10-5.5-7-5.5 7h4v12h-4l5.5 7 5.5-7h-4v-12z" fill="currentColor"/>
 </g>
 <g id="16-16-zoom-fit-height" transform="translate(-8,-46)">
  <rect transform="rotate(90)" x="8" y="-24" width="16" height="16" opacity=".001"/>
  <path class="ColorScheme-Text" d="m19 13-3-4-3 4h2v6h-2l3 4 3-4h-2v-6z" fill="currentColor"/>
 </g>
 <g id="16-16-zoom-fit-width" transform="rotate(90 51 5)">
  <rect transform="rotate(90)" x="8" y="-24" width="16" height="16" opacity=".001"/>
  <path class="ColorScheme-Text" d="m19 13-3-4-3 4h2v6h-2l3 4 3-4h-2v-6z" fill="currentColor"/>
 </g>
</svg>
