<?xml version="1.0" encoding="UTF-8"?>
<svg id="svg2" width="16" height="16" version="1.1" viewBox="0 0 16 16" xmlns="http://www.w3.org/2000/svg" xmlns:cc="http://creativecommons.org/ns#" xmlns:dc="http://purl.org/dc/elements/1.1/" xmlns:rdf="http://www.w3.org/1999/02/22-rdf-syntax-ns#">
 <metadata id="metadata20">
  <rdf:RDF>
   <cc:Work rdf:about="">
    <dc:format>image/svg+xml</dc:format>
    <dc:type rdf:resource="http://purl.org/dc/dcmitype/StillImage"/>
    <dc:title/>
   </cc:Work>
  </rdf:RDF>
 </metadata>
 <path id="path4307" d="m7.5 1c-1.933-4.81e-6 -3.5 1.567-3.5 3.5 1.45e-5 1.933 1.567 3.5 3.5 3.5 1.933 5.3e-6 3.5-1.567 3.5-3.5-1.5e-5 -1.933-1.567-3.5-3.5-3.5zm-1.5 1h1v1h1v-1h1v1h1v1h-1v1h1v1h-1v1h-1v-1h-1v1h-1v-1h-1v-1h1v-1h-1v-1h1v-1zm1 2v1h1v-1h-1z" fill="#5c616c"/>
 <path id="path4150" d="m7.5 9c-3.8107 0.0048-7.0237 2.0036-7.5 6h7.5 7.5c-0.47634-3.9964-3.6893-5.9952-7.5-6z" fill="#5c616c"/>
</svg>
